<svg xmlns="http://www.w3.org/2000/svg" xmlns:xlink="http://www.w3.org/1999/xlink" contentStyleType="text/css" data-diagram-type="CLASS" height="472px" preserveAspectRatio="none" style="width:1216px;height:472px;background:#FFFFFF;" version="1.1" viewBox="0 0 1216 472" width="1216px" zoomAndPan="magnify"><defs/><g><g class="entity" data-entity="Tabla1" data-source-line="1" data-uid="ent0002" id="entity_Tabla1"><rect fill="#F1F1F1" height="44.5938" rx="2.5" ry="2.5" style="stroke:#181818;stroke-width:0.5;" width="145.5127" x="290.5" y="15"/><text fill="#000000" font-family="sans-serif" font-size="14" lengthAdjust="spacing" textLength="90.5967" x="317.958" y="29.9951">Tabla1:Tabla</text><line style="stroke:#181818;stroke-width:0.5;" x1="291.5" x2="435.0127" y1="35.2969" y2="35.2969"/><text fill="#000000" font-family="sans-serif" font-size="14" lengthAdjust="spacing" textLength="133.5127" x="296.5" y="52.292">nombre: productos</text></g><g class="entity" data-entity="Esquema1" data-source-line="5" data-uid="ent0003" id="entity_Esquema1"><rect fill="#F1F1F1" height="36.2969" rx="2.5" ry="2.5" style="stroke:#181818;stroke-width:0.5;" width="157.083" x="475" y="157.5"/><text fill="#000000" font-family="sans-serif" font-size="14" lengthAdjust="spacing" textLength="143.083" x="482" y="172.4951">Esquema1:Esquema</text><line style="stroke:#181818;stroke-width:0.5;" x1="476" x2="631.083" y1="177.7969" y2="177.7969"/></g><g class="entity" data-entity="Campo1" data-source-line="8" data-uid="ent0004" id="entity_Campo1"><rect fill="#F1F1F1" height="60.8906" rx="2.5" ry="2.5" style="stroke:#181818;stroke-width:0.5;" width="126.5127" x="417" y="283"/><text fill="#000000" font-family="sans-serif" font-size="14" lengthAdjust="spacing" textLength="112.5127" x="424" y="297.9951">Campo1:Campo</text><line style="stroke:#181818;stroke-width:0.5;" x1="418" x2="542.5127" y1="303.2969" y2="303.2969"/><text fill="#000000" font-family="sans-serif" font-size="14" lengthAdjust="spacing" textLength="78.4082" x="423" y="320.292">nombre: ID</text><text fill="#000000" font-family="sans-serif" font-size="14" lengthAdjust="spacing" textLength="72.4404" x="423" y="336.5889">tipo: texto</text></g><g class="entity" data-entity="Campo2" data-source-line="13" data-uid="ent0005" id="entity_Campo2"><rect fill="#F1F1F1" height="60.8906" rx="2.5" ry="2.5" style="stroke:#181818;stroke-width:0.5;" width="129.8311" x="741.5" y="283"/><text fill="#000000" font-family="sans-serif" font-size="14" lengthAdjust="spacing" textLength="112.5127" x="750.1592" y="297.9951">Campo2:Campo</text><line style="stroke:#181818;stroke-width:0.5;" x1="742.5" x2="870.3311" y1="303.2969" y2="303.2969"/><text fill="#000000" font-family="sans-serif" font-size="14" lengthAdjust="spacing" textLength="117.8311" x="747.5" y="320.292">nombre: nombre</text><text fill="#000000" font-family="sans-serif" font-size="14" lengthAdjust="spacing" textLength="72.4404" x="747.5" y="336.5889">tipo: texto</text></g><g class="entity" data-entity="Campo3" data-source-line="18" data-uid="ent0006" id="entity_Campo3"><rect fill="#F1F1F1" height="60.8906" rx="2.5" ry="2.5" style="stroke:#181818;stroke-width:0.5;" width="126.5127" x="579" y="283"/><text fill="#000000" font-family="sans-serif" font-size="14" lengthAdjust="spacing" textLength="112.5127" x="586" y="297.9951">Campo3:Campo</text><line style="stroke:#181818;stroke-width:0.5;" x1="580" x2="704.5127" y1="303.2969" y2="303.2969"/><text fill="#000000" font-family="sans-serif" font-size="14" lengthAdjust="spacing" textLength="100.6523" x="585" y="320.292">nombre: stock</text><text fill="#000000" font-family="sans-serif" font-size="14" lengthAdjust="spacing" textLength="90.3164" x="585" y="336.5889">tipo: n&#250;mero</text></g><g class="entity" data-entity="Consulta1" data-source-line="23" data-uid="ent0007" id="entity_Consulta1"><rect fill="#F1F1F1" height="44.5938" rx="2.5" ry="2.5" style="stroke:#181818;stroke-width:0.5;" width="418.9707" x="521" y="15"/><text fill="#000000" font-family="sans-serif" font-size="14" lengthAdjust="spacing" textLength="136.3018" x="662.3345" y="29.9951">Consulta1:Consulta</text><line style="stroke:#181818;stroke-width:0.5;" x1="522" x2="938.9707" y1="35.2969" y2="35.2969"/><text fill="#000000" font-family="sans-serif" font-size="14" lengthAdjust="spacing" textLength="406.9707" x="527" y="52.292">enunciado: SELECT * FROM productos WHERE stock &lt; 10;</text></g><g class="entity" data-entity="Usuario1" data-source-line="27" data-uid="ent0008" id="entity_Usuario1"><rect fill="#F1F1F1" height="60.8906" rx="2.5" ry="2.5" style="stroke:#181818;stroke-width:0.5;" width="169.1992" x="1024" y="7"/><text fill="#000000" font-family="sans-serif" font-size="14" lengthAdjust="spacing" textLength="120.0322" x="1048.5835" y="21.9951">Usuario1:Usuario</text><line style="stroke:#181818;stroke-width:0.5;" x1="1025" x2="1192.1992" y1="27.2969" y2="27.2969"/><text fill="#000000" font-family="sans-serif" font-size="14" lengthAdjust="spacing" textLength="97.2275" x="1030" y="44.292">nombre: paco</text><text fill="#000000" font-family="sans-serif" font-size="14" lengthAdjust="spacing" textLength="157.1992" x="1030" y="60.5889">contrase&#241;a: Zx#9c!vB</text></g><g class="entity" data-entity="Rol1" data-source-line="32" data-uid="ent0009" id="entity_Rol1"><rect fill="#F1F1F1" height="44.5938" rx="2.5" ry="2.5" style="stroke:#181818;stroke-width:0.5;" width="201.4717" x="1008" y="153"/><text fill="#000000" font-family="sans-serif" font-size="14" lengthAdjust="spacing" textLength="57.9893" x="1079.7412" y="167.9951">Rol1:Rol</text><line style="stroke:#181818;stroke-width:0.5;" x1="1009" x2="1208.4717" y1="173.2969" y2="173.2969"/><text fill="#000000" font-family="sans-serif" font-size="14" lengthAdjust="spacing" textLength="189.4717" x="1014" y="190.292">nombre: revisor_inventario</text></g><g class="entity" data-entity="Permiso1" data-source-line="36" data-uid="ent0010" id="entity_Permiso1"><rect fill="#F1F1F1" height="44.5938" rx="2.5" ry="2.5" style="stroke:#181818;stroke-width:0.5;" width="145.5537" x="1035.5" y="291"/><text fill="#000000" font-family="sans-serif" font-size="14" lengthAdjust="spacing" textLength="126.0205" x="1045.2666" y="305.9951">Permiso1:Permiso</text><line style="stroke:#181818;stroke-width:0.5;" x1="1036.5" x2="1180.0537" y1="311.2969" y2="311.2969"/><text fill="#000000" font-family="sans-serif" font-size="14" lengthAdjust="spacing" textLength="133.5537" x="1041.5" y="328.292">capacidad: SELECT</text></g><g class="entity" data-entity="Llave1" data-source-line="40" data-uid="ent0011" id="entity_Llave1"><rect fill="#F1F1F1" height="44.5938" rx="2.5" ry="2.5" style="stroke:#181818;stroke-width:0.5;" width="106.9717" x="354" y="421"/><text fill="#000000" font-family="sans-serif" font-size="14" lengthAdjust="spacing" textLength="87.958" x="363.5068" y="435.9951">Llave1:Llave</text><line style="stroke:#181818;stroke-width:0.5;" x1="355" x2="459.9717" y1="441.2969" y2="441.2969"/><text fill="#000000" font-family="sans-serif" font-size="14" lengthAdjust="spacing" textLength="94.9717" x="360" y="458.292">tipo: primaria</text></g><g class="entity" data-entity="Restriccion1" data-source-line="44" data-uid="ent0012" id="entity_Restriccion1"><rect fill="#F1F1F1" height="44.5938" rx="2.5" ry="2.5" style="stroke:#181818;stroke-width:0.5;" width="189.8984" x="744.5" y="421"/><text fill="#000000" font-family="sans-serif" font-size="14" lengthAdjust="spacing" textLength="168.6084" x="755.145" y="435.9951">Restriccion1:Restriccion</text><line style="stroke:#181818;stroke-width:0.5;" x1="745.5" x2="933.3984" y1="441.2969" y2="441.2969"/><text fill="#000000" font-family="sans-serif" font-size="14" lengthAdjust="spacing" textLength="177.8984" x="750.5" y="458.292">tipo: CHECK (stock &gt;= 0)</text></g><g class="entity" data-entity="Vista1" data-source-line="48" data-uid="ent0013" id="entity_Vista1"><rect fill="#F1F1F1" height="36.2969" rx="2.5" ry="2.5" style="stroke:#181818;stroke-width:0.5;" width="97.2822" x="213" y="157.5"/><text fill="#000000" font-family="sans-serif" font-size="14" lengthAdjust="spacing" textLength="83.2822" x="220" y="172.4951">Vista1:Vista</text><line style="stroke:#181818;stroke-width:0.5;" x1="214" x2="309.2822" y1="177.7969" y2="177.7969"/></g><g class="entity" data-entity="Trigger1" data-source-line="51" data-uid="ent0014" id="entity_Trigger1"><rect fill="#F1F1F1" height="60.8906" rx="2.5" ry="2.5" style="stroke:#181818;stroke-width:0.5;" width="133.3037" x="7" y="145"/><text fill="#000000" font-family="sans-serif" font-size="14" lengthAdjust="spacing" textLength="114.3037" x="16.5" y="159.9951">Trigger1:Trigger</text><line style="stroke:#181818;stroke-width:0.5;" x1="8" x2="139.3037" y1="165.2969" y2="165.2969"/><text fill="#000000" font-family="sans-serif" font-size="14" lengthAdjust="spacing" textLength="114.0508" x="13" y="182.292">evento: UPDATE</text><text fill="#000000" font-family="sans-serif" font-size="14" lengthAdjust="spacing" textLength="121.3037" x="13" y="198.5889">momento: AFTER</text></g><g class="entity" data-entity="Indice1" data-source-line="56" data-uid="ent0015" id="entity_Indice1"><rect fill="#F1F1F1" height="36.2969" rx="2.5" ry="2.5" style="stroke:#181818;stroke-width:0.5;" width="111.8018" x="725.5" y="157.5"/><text fill="#000000" font-family="sans-serif" font-size="14" lengthAdjust="spacing" textLength="97.8018" x="732.5" y="172.4951">Indice1:Indice</text><line style="stroke:#181818;stroke-width:0.5;" x1="726.5" x2="836.3018" y1="177.7969" y2="177.7969"/></g><!--reverse link Tabla1 to Esquema1--><g class="link" data-entity-1="Tabla1" data-entity-2="Esquema1" data-source-line="60" data-uid="lnk16" id="link_Tabla1_Esquema1"><path codeLine="60" d="M403.3683,67.0339 C441.0383,93.9939 495.02,132.64 529.55,157.36" fill="none" id="Tabla1-backto-Esquema1" style="stroke:#181818;stroke-width:1;"/><polygon fill="#181818" points="393.61,60.05,396.1612,66.7947,403.3683,67.0339,400.8171,60.2892,393.61,60.05" style="stroke:#181818;stroke-width:1;"/><text fill="#000000" font-family="sans-serif" font-size="13" lengthAdjust="spacing" textLength="32.9443" x="471.5" y="111.0669">tiene</text></g><!--reverse link Tabla1 to Llave1--><g class="link" data-entity-1="Tabla1" data-entity-2="Llave1" data-source-line="61" data-uid="lnk17" id="link_Tabla1_Llave1"><path codeLine="61" d="M367.1692,72.1495 C374.8092,142.2995 397.47,350.37 405.12,420.67" fill="none" id="Tabla1-backto-Llave1" style="stroke:#181818;stroke-width:1;"/><polygon fill="#181818" points="365.87,60.22,362.5431,66.6178,367.1692,72.1495,370.4961,65.7517,365.87,60.22" style="stroke:#181818;stroke-width:1;"/><text fill="#000000" font-family="sans-serif" font-size="13" lengthAdjust="spacing" textLength="32.9443" x="388.5" y="249.0669">tiene</text></g><!--reverse link Tabla1 to Restriccion1--><g class="link" data-entity-1="Tabla1" data-entity-2="Restriccion1" data-source-line="62" data-uid="lnk18" id="link_Tabla1_Restriccion1"><path codeLine="62" d="M448.405,56.6181 C584.795,85.7681 852.61,143.16 854.5,145 C918.75,207.64 909.03,256.65 888.5,344 C881.86,372.26 865.83,401.69 853.9,420.93" fill="none" id="Tabla1-backto-Restriccion1" style="stroke:#181818;stroke-width:1;"/><polygon fill="#181818" points="436.67,54.11,441.7015,59.2757,448.405,56.6181,443.3735,51.4524,436.67,54.11" style="stroke:#181818;stroke-width:1;"/><text fill="#000000" font-family="sans-serif" font-size="13" lengthAdjust="spacing" textLength="32.9443" x="905.5" y="249.0669">tiene</text></g><!--reverse link Tabla1 to Vista1--><g class="link" data-entity-1="Tabla1" data-entity-2="Vista1" data-source-line="63" data-uid="lnk19" id="link_Tabla1_Vista1"><path codeLine="63" d="M329.705,68.4154 C318.245,79.1054 313.74,84.41 303.5,98 C289.27,116.88 276.79,141.15 269.21,157.24" fill="none" id="Tabla1-backto-Vista1" style="stroke:#181818;stroke-width:1;"/><polygon fill="#181818" points="338.48,60.23,331.3641,61.3977,329.705,68.4154,336.821,67.2477,338.48,60.23" style="stroke:#181818;stroke-width:1;"/><text fill="#000000" font-family="sans-serif" font-size="13" lengthAdjust="spacing" textLength="32.9443" x="304.5" y="111.0669">tiene</text></g><!--reverse link Tabla1 to Indice1--><g class="link" data-entity-1="Tabla1" data-entity-2="Indice1" data-source-line="64" data-uid="lnk20" id="link_Tabla1_Indice1"><path codeLine="64" d="M441.1413,63.7625 C524.1313,90.7625 653.24,132.77 729.13,157.46" fill="none" id="Tabla1-backto-Indice1" style="stroke:#181818;stroke-width:1;"/><polygon fill="#181818" points="429.73,60.05,434.1981,65.71,441.1413,63.7625,436.6731,58.1025,429.73,60.05" style="stroke:#181818;stroke-width:1;"/><text fill="#000000" font-family="sans-serif" font-size="13" lengthAdjust="spacing" textLength="32.9443" x="599.5" y="111.0669">tiene</text></g><!--reverse link Tabla1 to Trigger1--><g class="link" data-entity-1="Tabla1" data-entity-2="Trigger1" data-source-line="65" data-uid="lnk21" id="link_Tabla1_Trigger1"><path codeLine="65" d="M278.347,42.9162 C226.327,48.4362 169.11,61.5 119.5,98 C103.65,109.66 92.2,128.58 84.69,144.69" fill="none" id="Tabla1-backto-Trigger1" style="stroke:#181818;stroke-width:1;"/><polygon fill="#181818" points="290.28,41.65,283.8914,38.3055,278.347,42.9162,284.7356,46.2608,290.28,41.65" style="stroke:#181818;stroke-width:1;"/><text fill="#000000" font-family="sans-serif" font-size="13" lengthAdjust="spacing" textLength="32.9443" x="120.5" y="111.0669">tiene</text></g><!--link Trigger1 to Tabla1--><g class="link" data-entity-1="Trigger1" data-entity-2="Tabla1" data-source-line="76" data-uid="lnk34" id="link_Trigger1_Tabla1"><path codeLine="76" d="M136.5,144.96 C191.05,119.37 263.2478,85.5177 312.1178,62.5977" fill="none" id="Trigger1-to-Tabla1" style="stroke:#181818;stroke-width:1;"/><polygon fill="#181818" points="317.55,60.05,307.7032,60.2501,313.0231,62.1731,311.1001,67.4931,317.55,60.05" style="stroke:#181818;stroke-width:1;"/><text fill="#000000" font-family="sans-serif" font-size="13" lengthAdjust="spacing" textLength="36.4165" x="237.5" y="111.0669">act&#250;a</text></g><!--reverse link Tabla1 to Consulta1--><g class="link" data-entity-1="Tabla1" data-entity-2="Consulta1" data-source-line="66" data-uid="lnk23" id="link_Tabla1_Consulta1"><path codeLine="66" d="M442.89,37.5 C467.67,37.5 490.72,37.5 520.71,37.5" fill="none" id="Tabla1-backto-Consulta1" style="stroke:#181818;stroke-width:1;"/><polygon fill="#181818" points="436.89,37.5,445.89,41.5,441.89,37.5,445.89,33.5,436.89,37.5" style="stroke:#181818;stroke-width:1;"/><text fill="#000000" font-family="sans-serif" font-size="13" lengthAdjust="spacing" textLength="48.0581" x="454.75" y="30.5669">ejecuta</text></g><!--reverse link Consulta1 to Usuario1--><g class="link" data-entity-1="Consulta1" data-entity-2="Usuario1" data-source-line="67" data-uid="lnk25" id="link_Consulta1_Usuario1"><path codeLine="67" d="M946.23,37.5 C975.66,37.5 998.41,37.5 1023.59,37.5" fill="none" id="Consulta1-backto-Usuario1" style="stroke:#181818;stroke-width:1;"/><polygon fill="#181818" points="940.23,37.5,949.23,41.5,945.23,37.5,949.23,33.5,940.23,37.5" style="stroke:#181818;stroke-width:1;"/><text fill="#000000" font-family="sans-serif" font-size="13" lengthAdjust="spacing" textLength="48.0581" x="958" y="30.5669">ejecuta</text></g><!--reverse link Usuario1 to Rol1--><g class="link" data-entity-1="Usuario1" data-entity-2="Rol1" data-source-line="68" data-uid="lnk26" id="link_Usuario1_Rol1"><path codeLine="68" d="M1108.5,80.01 C1108.5,105.48 1108.5,129.69 1108.5,152.63" fill="none" id="Usuario1-backto-Rol1" style="stroke:#181818;stroke-width:1;"/><polygon fill="#181818" points="1108.5,68.01,1104.5,74.01,1108.5,80.01,1112.5,74.01,1108.5,68.01" style="stroke:#181818;stroke-width:1;"/><text fill="#000000" font-family="sans-serif" font-size="13" lengthAdjust="spacing" textLength="32.9443" x="1109.5" y="111.0669">tiene</text></g><!--reverse link Rol1 to Permiso1--><g class="link" data-entity-1="Rol1" data-entity-2="Permiso1" data-source-line="69" data-uid="lnk27" id="link_Rol1_Permiso1"><path codeLine="69" d="M1108.5,210.05 C1108.5,235.37 1108.5,265.13 1108.5,290.6" fill="none" id="Rol1-backto-Permiso1" style="stroke:#181818;stroke-width:1;"/><polygon fill="#181818" points="1108.5,198.05,1104.5,204.05,1108.5,210.05,1112.5,204.05,1108.5,198.05" style="stroke:#181818;stroke-width:1;"/><text fill="#000000" font-family="sans-serif" font-size="13" lengthAdjust="spacing" textLength="32.9443" x="1109.5" y="249.0669">tiene</text></g><!--reverse link Esquema1 to Campo1--><g class="link" data-entity-1="Esquema1" data-entity-2="Campo1" data-source-line="70" data-uid="lnk28" id="link_Esquema1_Campo1"><path codeLine="70" d="M522.1683,201.6083 C509.7483,212.4183 504.14,219.52 495.5,236 C487.96,250.38 484.19,268.09 482.31,282.85" fill="none" id="Esquema1-backto-Campo1" style="stroke:#181818;stroke-width:1;"/><polygon fill="#181818" points="531.22,193.73,524.0681,194.6519,522.1683,201.6083,529.3203,200.6864,531.22,193.73" style="stroke:#181818;stroke-width:1;"/><text fill="#000000" font-family="sans-serif" font-size="13" lengthAdjust="spacing" textLength="56.2847" x="496.5" y="249.0669">contiene</text></g><!--reverse link Esquema1 to Campo2--><g class="link" data-entity-1="Esquema1" data-entity-2="Campo2" data-source-line="71" data-uid="lnk29" id="link_Esquema1_Campo2"><path codeLine="71" d="M595.8596,199.2718 C637.5296,221.6718 700.72,255.64 751.54,282.95" fill="none" id="Esquema1-backto-Campo2" style="stroke:#181818;stroke-width:1;"/><polygon fill="#181818" points="585.29,193.59,588.6809,199.9541,595.8596,199.2718,592.4687,192.9077,585.29,193.59" style="stroke:#181818;stroke-width:1;"/><text fill="#000000" font-family="sans-serif" font-size="13" lengthAdjust="spacing" textLength="56.2847" x="696.5" y="249.0669">contiene</text></g><!--reverse link Esquema1 to Campo3--><g class="link" data-entity-1="Esquema1" data-entity-2="Campo3" data-source-line="72" data-uid="lnk30" id="link_Esquema1_Campo3"><path codeLine="72" d="M567.2991,204.4068 C575.2691,220.2268 582.53,233.42 595.5,253 C602.19,263.09 610.14,273.62 617.59,282.96" fill="none" id="Esquema1-backto-Campo3" style="stroke:#181818;stroke-width:1;"/><polygon fill="#181818" points="561.9,193.69,561.0273,200.8481,567.2991,204.4068,568.1718,197.2487,561.9,193.69" style="stroke:#181818;stroke-width:1;"/><text fill="#000000" font-family="sans-serif" font-size="13" lengthAdjust="spacing" textLength="56.2847" x="596.5" y="249.0669">contiene</text></g><!--link Campo1 to Llave1--><g class="link" data-entity-1="Campo1" data-entity-2="Llave1" data-source-line="73" data-uid="lnk31" id="link_Campo1_Llave1"><path codeLine="73" d="M463.57,344.19 C450.17,367.67 431.79,399.91 419.78,420.97" fill="none" id="Campo1-Llave1" style="stroke:#181818;stroke-width:1;"/><text fill="#000000" font-family="sans-serif" font-size="13" lengthAdjust="spacing" textLength="14.771" x="447.5" y="387.0669">es</text></g><!--reverse link Campo3 to Restriccion1--><g class="link" data-entity-1="Campo3" data-entity-2="Restriccion1" data-source-line="74" data-uid="lnk32" id="link_Campo3_Restriccion1"><path codeLine="74" d="M698.2535,350.7264 C734.4035,374.2064 773.95,399.91 806.36,420.97" fill="none" id="Campo3-backto-Restriccion1" style="stroke:#181818;stroke-width:1;"/><polygon fill="none" points="688.19,344.19,691.043,350.8127,698.2535,350.7264,695.4006,344.1037,688.19,344.19" style="stroke:#181818;stroke-width:1;"/><text fill="#000000" font-family="sans-serif" font-size="13" lengthAdjust="spacing" textLength="32.9443" x="760.5" y="387.0669">tiene</text></g><!--reverse link Indice1 to Campo2--><g class="link" data-entity-1="Indice1" data-entity-2="Campo2" data-source-line="75" data-uid="lnk33" id="link_Indice1_Campo2"><path codeLine="75" d="M786.8375,205.5226 C790.9475,227.9026 796.02,255.5 801.03,282.76" fill="none" id="Indice1-backto-Campo2" style="stroke:#181818;stroke-width:1;"/><polygon fill="#181818" points="784.67,193.72,781.8195,200.3438,786.8375,205.5226,789.688,198.8988,784.67,193.72" style="stroke:#181818;stroke-width:1;"/><text fill="#000000" font-family="sans-serif" font-size="13" lengthAdjust="spacing" textLength="32.9443" x="796.5" y="249.0669">tiene</text></g><!--link Trigger1 to Vista1--><g class="link" data-entity-1="Trigger1" data-entity-2="Vista1" data-source-line="77" data-uid="lnk35" id="link_Trigger1_Vista1"><path codeLine="77" d="M140.05,175.5 C164.02,175.5 184.61,175.5 206.79,175.5" fill="none" id="Trigger1-to-Vista1" style="stroke:#181818;stroke-width:1;"/><polygon fill="#181818" points="212.79,175.5,203.79,171.5,207.79,175.5,203.79,179.5,212.79,175.5" style="stroke:#181818;stroke-width:1;"/><text fill="#000000" font-family="sans-serif" font-size="13" lengthAdjust="spacing" textLength="36.4165" x="158.5" y="168.5669">act&#250;a</text></g><!--SRC=[VLJ1RjGm4BtxAqovGAL8pUw9K5OgsrIjAA9QqY9nGLx7gWo9lTZEgjAAZ-BQw_uO4u-TU4lQouuzp- -DvtcoUlrJS4UFAhPkM5xuS4IPfPZO4QNRjH45tHXTTznfI_uGeWEhjByxqG8lB3mp9dVfoILhDpelVF2dC37gNvqJ9pUwe4uyEFqVTVQKEXkf65-apv_IvoFTEir_1RRQFxR27FAribtZeCcuGfMOtX6XEiKbgu7_jRmkbnKzfXUhBvz7p-Ytot9LOYLwIlEJzsc5Mzin8y6TiF3wCPcy0EEQSAsSOLRi_xA2Vdzu_Ow_sdvCnLQwoGluyIBzPXGmOYkjDZ-asWhbUlMKU2DC2t1UX8KNYCaTuGpgovhLiScKUzsmhSWB7pmF4xlWwiR85ignWtiAwupaN6e5znqtUEy4Z2BBotBvYRv13nSVwCdRLEvEslw9VF0Ic3YOmSh8-tjXOCfnWNCUal2ClIjGwFRc_AmgIQjRt9zTLEKgrRbIjUJGBaQl4bA-7C5FXnvdsV0jK1XCAPH8CVHe2adRdyAnjoaat6CAYeqEs331D6koHVZW0HNGPUSOYHE8y7XwuWJU6ePj4FURFXidQ406IteK_mK0w-Vw6NZsCZnFuQ2NkYii2UVqSzP6rmvA1WEZQrbg4UDk_yWIS36-2MB_0000]--></g></svg>