<svg xmlns="http://www.w3.org/2000/svg" xmlns:xlink="http://www.w3.org/1999/xlink" contentStyleType="text/css" data-diagram-type="CLASS" height="942px" preserveAspectRatio="none" style="width:601px;height:942px;background:#FFFFFF;" version="1.1" viewBox="0 0 601 942" width="601px" zoomAndPan="magnify"><defs/><g><!--class Tabla--><g class="entity" data-entity="Tabla" data-source-line="1" data-uid="ent0002" id="entity_Tabla"><rect fill="#F1F1F1" height="64.2969" rx="2.5" ry="2.5" style="stroke:#181818;stroke-width:0.5;" width="70.4863" x="270.1067" y="290"/><ellipse cx="285.1067" cy="306" fill="#ADD1B2" rx="11" ry="11" style="stroke:#181818;stroke-width:1;"/><path d="M288.0754,311.6406 Q287.4973,311.9375 286.8567,312.0781 Q286.2161,312.2344 285.5129,312.2344 Q283.0129,312.2344 281.6848,310.5938 Q280.3723,308.9375 280.3723,305.8125 Q280.3723,302.6875 281.6848,301.0313 Q283.0129,299.375 285.5129,299.375 Q286.2161,299.375 286.8567,299.5313 Q287.5129,299.6875 288.0754,299.9844 L288.0754,302.7031 Q287.4504,302.125 286.8567,301.8594 Q286.2629,301.5781 285.6379,301.5781 Q284.2942,301.5781 283.6067,302.6563 Q282.9192,303.7188 282.9192,305.8125 Q282.9192,307.9063 283.6067,308.9844 Q284.2942,310.0469 285.6379,310.0469 Q286.2629,310.0469 286.8567,309.7813 Q287.4504,309.5 288.0754,308.9219 L288.0754,311.6406 Z " fill="#000000"/><text fill="#000000" font-family="sans-serif" font-size="14" lengthAdjust="spacing" textLength="38.4863" x="299.1067" y="310.8467">Tabla</text><line style="stroke:#181818;stroke-width:0.5;" x1="271.1067" x2="339.593" y1="322" y2="322"/><text fill="#000000" font-family="sans-serif" font-size="14" lengthAdjust="spacing" textLength="54.332" x="276.1067" y="338.9951">nombre</text><line style="stroke:#181818;stroke-width:0.5;" x1="271.1067" x2="339.593" y1="346.2969" y2="346.2969"/></g><!--class Vista--><g class="entity" data-entity="Vista" data-source-line="4" data-uid="ent0003" id="entity_Vista"><rect fill="#F1F1F1" height="48" rx="2.5" ry="2.5" style="stroke:#181818;stroke-width:0.5;" width="66.8291" x="8.6067" y="431"/><ellipse cx="23.6067" cy="447" fill="#ADD1B2" rx="11" ry="11" style="stroke:#181818;stroke-width:1;"/><path d="M26.5754,452.6406 Q25.9973,452.9375 25.3567,453.0781 Q24.7161,453.2344 24.0129,453.2344 Q21.5129,453.2344 20.1848,451.5938 Q18.8723,449.9375 18.8723,446.8125 Q18.8723,443.6875 20.1848,442.0313 Q21.5129,440.375 24.0129,440.375 Q24.7161,440.375 25.3567,440.5313 Q26.0129,440.6875 26.5754,440.9844 L26.5754,443.7031 Q25.9504,443.125 25.3567,442.8594 Q24.7629,442.5781 24.1379,442.5781 Q22.7942,442.5781 22.1067,443.6563 Q21.4192,444.7188 21.4192,446.8125 Q21.4192,448.9063 22.1067,449.9844 Q22.7942,451.0469 24.1379,451.0469 Q24.7629,451.0469 25.3567,450.7813 Q25.9504,450.5 26.5754,449.9219 L26.5754,452.6406 Z " fill="#000000"/><text fill="#000000" font-family="sans-serif" font-size="14" lengthAdjust="spacing" textLength="34.8291" x="37.6067" y="451.8467">Vista</text><line style="stroke:#181818;stroke-width:0.5;" x1="9.6067" x2="74.4358" y1="463" y2="463"/><line style="stroke:#181818;stroke-width:0.5;" x1="9.6067" x2="74.4358" y1="471" y2="471"/></g><!--class Consulta--><g class="entity" data-entity="Consulta" data-source-line="6" data-uid="ent0004" id="entity_Consulta"><rect fill="#F1F1F1" height="48" rx="2.5" ry="2.5" style="stroke:#181818;stroke-width:0.5;" width="93.3389" x="261.6067" y="165"/><ellipse cx="276.6067" cy="181" fill="#ADD1B2" rx="11" ry="11" style="stroke:#181818;stroke-width:1;"/><path d="M279.5754,186.6406 Q278.9973,186.9375 278.3567,187.0781 Q277.7161,187.2344 277.0129,187.2344 Q274.5129,187.2344 273.1848,185.5938 Q271.8723,183.9375 271.8723,180.8125 Q271.8723,177.6875 273.1848,176.0313 Q274.5129,174.375 277.0129,174.375 Q277.7161,174.375 278.3567,174.5313 Q279.0129,174.6875 279.5754,174.9844 L279.5754,177.7031 Q278.9504,177.125 278.3567,176.8594 Q277.7629,176.5781 277.1379,176.5781 Q275.7942,176.5781 275.1067,177.6563 Q274.4192,178.7188 274.4192,180.8125 Q274.4192,182.9063 275.1067,183.9844 Q275.7942,185.0469 277.1379,185.0469 Q277.7629,185.0469 278.3567,184.7813 Q278.9504,184.5 279.5754,183.9219 L279.5754,186.6406 Z " fill="#000000"/><text fill="#000000" font-family="sans-serif" font-size="14" lengthAdjust="spacing" textLength="61.3389" x="290.6067" y="185.8467">Consulta</text><line style="stroke:#181818;stroke-width:0.5;" x1="262.6067" x2="353.9455" y1="197" y2="197"/><line style="stroke:#181818;stroke-width:0.5;" x1="262.6067" x2="353.9455" y1="205" y2="205"/></g><!--class Usuario--><g class="entity" data-entity="Usuario" data-source-line="8" data-uid="ent0005" id="entity_Usuario"><rect fill="#F1F1F1" height="80.5938" rx="2.5" ry="2.5" style="stroke:#181818;stroke-width:0.5;" width="90.3193" x="317.1067" y="7"/><ellipse cx="334.4085" cy="23" fill="#ADD1B2" rx="11" ry="11" style="stroke:#181818;stroke-width:1;"/><path d="M337.3773,28.6406 Q336.7992,28.9375 336.1585,29.0781 Q335.5179,29.2344 334.8148,29.2344 Q332.3148,29.2344 330.9867,27.5938 Q329.6742,25.9375 329.6742,22.8125 Q329.6742,19.6875 330.9867,18.0313 Q332.3148,16.375 334.8148,16.375 Q335.5179,16.375 336.1585,16.5313 Q336.8148,16.6875 337.3773,16.9844 L337.3773,19.7031 Q336.7523,19.125 336.1585,18.8594 Q335.5648,18.5781 334.9398,18.5781 Q333.596,18.5781 332.9085,19.6563 Q332.221,20.7188 332.221,22.8125 Q332.221,24.9063 332.9085,25.9844 Q333.596,27.0469 334.9398,27.0469 Q335.5648,27.0469 336.1585,26.7813 Q336.7523,26.5 337.3773,25.9219 L337.3773,28.6406 Z " fill="#000000"/><text fill="#000000" font-family="sans-serif" font-size="14" lengthAdjust="spacing" textLength="53.2041" x="348.9201" y="27.8467">Usuario</text><line style="stroke:#181818;stroke-width:0.5;" x1="318.1067" x2="406.426" y1="39" y2="39"/><text fill="#000000" font-family="sans-serif" font-size="14" lengthAdjust="spacing" textLength="54.332" x="323.1067" y="55.9951">nombre</text><text fill="#000000" font-family="sans-serif" font-size="14" lengthAdjust="spacing" textLength="78.3193" x="323.1067" y="72.292">contrase&#241;a</text><line style="stroke:#181818;stroke-width:0.5;" x1="318.1067" x2="406.426" y1="79.5938" y2="79.5938"/></g><!--class Rol--><g class="entity" data-entity="Rol" data-source-line="12" data-uid="ent0006" id="entity_Rol"><rect fill="#F1F1F1" height="48" rx="2.5" ry="2.5" style="stroke:#181818;stroke-width:0.5;" width="54.1826" x="391.1067" y="165"/><ellipse cx="406.1067" cy="181" fill="#ADD1B2" rx="11" ry="11" style="stroke:#181818;stroke-width:1;"/><path d="M409.0754,186.6406 Q408.4973,186.9375 407.8567,187.0781 Q407.2161,187.2344 406.5129,187.2344 Q404.0129,187.2344 402.6848,185.5938 Q401.3723,183.9375 401.3723,180.8125 Q401.3723,177.6875 402.6848,176.0313 Q404.0129,174.375 406.5129,174.375 Q407.2161,174.375 407.8567,174.5313 Q408.5129,174.6875 409.0754,174.9844 L409.0754,177.7031 Q408.4504,177.125 407.8567,176.8594 Q407.2629,176.5781 406.6379,176.5781 Q405.2942,176.5781 404.6067,177.6563 Q403.9192,178.7188 403.9192,180.8125 Q403.9192,182.9063 404.6067,183.9844 Q405.2942,185.0469 406.6379,185.0469 Q407.2629,185.0469 407.8567,184.7813 Q408.4504,184.5 409.0754,183.9219 L409.0754,186.6406 Z " fill="#000000"/><text fill="#000000" font-family="sans-serif" font-size="14" lengthAdjust="spacing" textLength="22.1826" x="420.1067" y="185.8467">Rol</text><line style="stroke:#181818;stroke-width:0.5;" x1="392.1067" x2="444.2893" y1="197" y2="197"/><line style="stroke:#181818;stroke-width:0.5;" x1="392.1067" x2="444.2893" y1="205" y2="205"/></g><!--class Permiso--><g class="entity" data-entity="Permiso" data-source-line="14" data-uid="ent0007" id="entity_Permiso"><rect fill="#F1F1F1" height="48" rx="2.5" ry="2.5" style="stroke:#181818;stroke-width:0.5;" width="88.1982" x="375.1067" y="298"/><ellipse cx="390.1067" cy="314" fill="#ADD1B2" rx="11" ry="11" style="stroke:#181818;stroke-width:1;"/><path d="M393.0754,319.6406 Q392.4973,319.9375 391.8567,320.0781 Q391.2161,320.2344 390.5129,320.2344 Q388.0129,320.2344 386.6848,318.5938 Q385.3723,316.9375 385.3723,313.8125 Q385.3723,310.6875 386.6848,309.0313 Q388.0129,307.375 390.5129,307.375 Q391.2161,307.375 391.8567,307.5313 Q392.5129,307.6875 393.0754,307.9844 L393.0754,310.7031 Q392.4504,310.125 391.8567,309.8594 Q391.2629,309.5781 390.6379,309.5781 Q389.2942,309.5781 388.6067,310.6563 Q387.9192,311.7188 387.9192,313.8125 Q387.9192,315.9063 388.6067,316.9844 Q389.2942,318.0469 390.6379,318.0469 Q391.2629,318.0469 391.8567,317.7813 Q392.4504,317.5 393.0754,316.9219 L393.0754,319.6406 Z " fill="#000000"/><text fill="#000000" font-family="sans-serif" font-size="14" lengthAdjust="spacing" textLength="56.1982" x="404.1067" y="318.8467">Permiso</text><line style="stroke:#181818;stroke-width:0.5;" x1="376.1067" x2="462.3049" y1="330" y2="330"/><line style="stroke:#181818;stroke-width:0.5;" x1="376.1067" x2="462.3049" y1="338" y2="338"/></g><!--class Llave--><g class="entity" data-entity="Llave" data-source-line="16" data-uid="ent0008" id="entity_Llave"><rect fill="#F1F1F1" height="48" rx="2.5" ry="2.5" style="stroke:#181818;stroke-width:0.5;" width="69.167" x="114.6067" y="713.5"/><ellipse cx="129.6067" cy="729.5" fill="#ADD1B2" rx="11" ry="11" style="stroke:#181818;stroke-width:1;"/><path d="M132.5754,735.1406 Q131.9973,735.4375 131.3567,735.5781 Q130.7161,735.7344 130.0129,735.7344 Q127.5129,735.7344 126.1848,734.0938 Q124.8723,732.4375 124.8723,729.3125 Q124.8723,726.1875 126.1848,724.5313 Q127.5129,722.875 130.0129,722.875 Q130.7161,722.875 131.3567,723.0313 Q132.0129,723.1875 132.5754,723.4844 L132.5754,726.2031 Q131.9504,725.625 131.3567,725.3594 Q130.7629,725.0781 130.1379,725.0781 Q128.7942,725.0781 128.1067,726.1563 Q127.4192,727.2188 127.4192,729.3125 Q127.4192,731.4063 128.1067,732.4844 Q128.7942,733.5469 130.1379,733.5469 Q130.7629,733.5469 131.3567,733.2813 Q131.9504,733 132.5754,732.4219 L132.5754,735.1406 Z " fill="#000000"/><text fill="#000000" font-family="sans-serif" font-size="14" lengthAdjust="spacing" textLength="37.167" x="143.6067" y="734.3467">Llave</text><line style="stroke:#181818;stroke-width:0.5;" x1="115.6067" x2="182.7737" y1="745.5" y2="745.5"/><line style="stroke:#181818;stroke-width:0.5;" x1="115.6067" x2="182.7737" y1="753.5" y2="753.5"/></g><!--class TipoLlave--><g class="entity" data-entity="TipoLlave" data-source-line="18" data-uid="ent0009" id="entity_TipoLlave"><rect fill="#F1F1F1" height="80.5938" rx="2.5" ry="2.5" style="stroke:#181818;stroke-width:0.5;" width="99.0605" x="99.6067" y="855"/><ellipse cx="114.6067" cy="871" fill="#EB937F" rx="11" ry="11" style="stroke:#181818;stroke-width:1;"/><path d="M118.7161,877 L110.9973,877 L110.9973,864.6094 L118.7161,864.6094 L118.7161,866.7656 L113.4504,866.7656 L113.4504,869.4375 L118.2161,869.4375 L118.2161,871.5938 L113.4504,871.5938 L113.4504,874.8438 L118.7161,874.8438 L118.7161,877 Z " fill="#000000"/><text fill="#000000" font-family="sans-serif" font-size="14" lengthAdjust="spacing" textLength="67.0605" x="128.6067" y="875.8467">TipoLlave</text><line style="stroke:#181818;stroke-width:0.5;" x1="100.6067" x2="197.6672" y1="887" y2="887"/><text fill="#000000" font-family="sans-serif" font-size="14" lengthAdjust="spacing" textLength="58.9736" x="105.6067" y="903.9951">primaria</text><text fill="#000000" font-family="sans-serif" font-size="14" lengthAdjust="spacing" textLength="53.8945" x="105.6067" y="920.292">for&#225;nea</text><line style="stroke:#181818;stroke-width:0.5;" x1="100.6067" x2="197.6672" y1="927.5938" y2="927.5938"/></g><!--class Esquema--><g class="entity" data-entity="Esquema" data-source-line="22" data-uid="ent0010" id="entity_Esquema"><rect fill="#F1F1F1" height="48" rx="2.5" ry="2.5" style="stroke:#181818;stroke-width:0.5;" width="96.7295" x="182.6067" y="431"/><ellipse cx="197.6067" cy="447" fill="#ADD1B2" rx="11" ry="11" style="stroke:#181818;stroke-width:1;"/><path d="M200.5754,452.6406 Q199.9973,452.9375 199.3567,453.0781 Q198.7161,453.2344 198.0129,453.2344 Q195.5129,453.2344 194.1848,451.5938 Q192.8723,449.9375 192.8723,446.8125 Q192.8723,443.6875 194.1848,442.0313 Q195.5129,440.375 198.0129,440.375 Q198.7161,440.375 199.3567,440.5313 Q200.0129,440.6875 200.5754,440.9844 L200.5754,443.7031 Q199.9504,443.125 199.3567,442.8594 Q198.7629,442.5781 198.1379,442.5781 Q196.7942,442.5781 196.1067,443.6563 Q195.4192,444.7188 195.4192,446.8125 Q195.4192,448.9063 196.1067,449.9844 Q196.7942,451.0469 198.1379,451.0469 Q198.7629,451.0469 199.3567,450.7813 Q199.9504,450.5 200.5754,449.9219 L200.5754,452.6406 Z " fill="#000000"/><text fill="#000000" font-family="sans-serif" font-size="14" lengthAdjust="spacing" textLength="64.7295" x="211.6067" y="451.8467">Esquema</text><line style="stroke:#181818;stroke-width:0.5;" x1="183.6067" x2="278.3362" y1="463" y2="463"/><line style="stroke:#181818;stroke-width:0.5;" x1="183.6067" x2="278.3362" y1="471" y2="471"/></g><!--class Trigger--><g class="entity" data-entity="Trigger" data-source-line="24" data-uid="ent0011" id="entity_Trigger"><rect fill="#F1F1F1" height="48" rx="2.5" ry="2.5" style="stroke:#181818;stroke-width:0.5;" width="82.3398" x="315.1067" y="431"/><ellipse cx="330.1067" cy="447" fill="#ADD1B2" rx="11" ry="11" style="stroke:#181818;stroke-width:1;"/><path d="M333.0754,452.6406 Q332.4973,452.9375 331.8567,453.0781 Q331.2161,453.2344 330.5129,453.2344 Q328.0129,453.2344 326.6848,451.5938 Q325.3723,449.9375 325.3723,446.8125 Q325.3723,443.6875 326.6848,442.0313 Q328.0129,440.375 330.5129,440.375 Q331.2161,440.375 331.8567,440.5313 Q332.5129,440.6875 333.0754,440.9844 L333.0754,443.7031 Q332.4504,443.125 331.8567,442.8594 Q331.2629,442.5781 330.6379,442.5781 Q329.2942,442.5781 328.6067,443.6563 Q327.9192,444.7188 327.9192,446.8125 Q327.9192,448.9063 328.6067,449.9844 Q329.2942,451.0469 330.6379,451.0469 Q331.2629,451.0469 331.8567,450.7813 Q332.4504,450.5 333.0754,449.9219 L333.0754,452.6406 Z " fill="#000000"/><text fill="#000000" font-family="sans-serif" font-size="14" lengthAdjust="spacing" textLength="50.3398" x="344.1067" y="451.8467">Trigger</text><line style="stroke:#181818;stroke-width:0.5;" x1="316.1067" x2="396.4465" y1="463" y2="463"/><line style="stroke:#181818;stroke-width:0.5;" x1="316.1067" x2="396.4465" y1="471" y2="471"/></g><!--class Indice--><g class="entity" data-entity="Indice" data-source-line="26" data-uid="ent0012" id="entity_Indice"><rect fill="#F1F1F1" height="48" rx="2.5" ry="2.5" style="stroke:#181818;stroke-width:0.5;" width="74.0889" x="432.1067" y="431"/><ellipse cx="447.1067" cy="447" fill="#ADD1B2" rx="11" ry="11" style="stroke:#181818;stroke-width:1;"/><path d="M450.0754,452.6406 Q449.4973,452.9375 448.8567,453.0781 Q448.2161,453.2344 447.5129,453.2344 Q445.0129,453.2344 443.6848,451.5938 Q442.3723,449.9375 442.3723,446.8125 Q442.3723,443.6875 443.6848,442.0313 Q445.0129,440.375 447.5129,440.375 Q448.2161,440.375 448.8567,440.5313 Q449.5129,440.6875 450.0754,440.9844 L450.0754,443.7031 Q449.4504,443.125 448.8567,442.8594 Q448.2629,442.5781 447.6379,442.5781 Q446.2942,442.5781 445.6067,443.6563 Q444.9192,444.7188 444.9192,446.8125 Q444.9192,448.9063 445.6067,449.9844 Q446.2942,451.0469 447.6379,451.0469 Q448.2629,451.0469 448.8567,450.7813 Q449.4504,450.5 450.0754,449.9219 L450.0754,452.6406 Z " fill="#000000"/><text fill="#000000" font-family="sans-serif" font-size="14" lengthAdjust="spacing" textLength="42.0889" x="461.1067" y="451.8467">Indice</text><line style="stroke:#181818;stroke-width:0.5;" x1="433.1067" x2="505.1955" y1="463" y2="463"/><line style="stroke:#181818;stroke-width:0.5;" x1="433.1067" x2="505.1955" y1="471" y2="471"/></g><!--class Campo--><g class="entity" data-entity="Campo" data-source-line="28" data-uid="ent0013" id="entity_Campo"><rect fill="#F1F1F1" height="48" rx="2.5" ry="2.5" style="stroke:#181818;stroke-width:0.5;" width="81.4443" x="313.6067" y="556"/><ellipse cx="328.6067" cy="572" fill="#ADD1B2" rx="11" ry="11" style="stroke:#181818;stroke-width:1;"/><path d="M331.5754,577.6406 Q330.9973,577.9375 330.3567,578.0781 Q329.7161,578.2344 329.0129,578.2344 Q326.5129,578.2344 325.1848,576.5938 Q323.8723,574.9375 323.8723,571.8125 Q323.8723,568.6875 325.1848,567.0313 Q326.5129,565.375 329.0129,565.375 Q329.7161,565.375 330.3567,565.5313 Q331.0129,565.6875 331.5754,565.9844 L331.5754,568.7031 Q330.9504,568.125 330.3567,567.8594 Q329.7629,567.5781 329.1379,567.5781 Q327.7942,567.5781 327.1067,568.6563 Q326.4192,569.7188 326.4192,571.8125 Q326.4192,573.9063 327.1067,574.9844 Q327.7942,576.0469 329.1379,576.0469 Q329.7629,576.0469 330.3567,575.7813 Q330.9504,575.5 331.5754,574.9219 L331.5754,577.6406 Z " fill="#000000"/><text fill="#000000" font-family="sans-serif" font-size="14" lengthAdjust="spacing" textLength="49.4443" x="342.6067" y="576.8467">Campo</text><line style="stroke:#181818;stroke-width:0.5;" x1="314.6067" x2="394.051" y1="588" y2="588"/><line style="stroke:#181818;stroke-width:0.5;" x1="314.6067" x2="394.051" y1="596" y2="596"/></g><!--class TipoCampo--><g class="entity" data-entity="TipoCampo" data-source-line="30" data-uid="ent0014" id="entity_TipoCampo"><rect fill="#F1F1F1" height="113.1875" rx="2.5" ry="2.5" style="stroke:#181818;stroke-width:0.5;" width="111.3379" x="298.6067" y="681"/><ellipse cx="313.6067" cy="697" fill="#EB937F" rx="11" ry="11" style="stroke:#181818;stroke-width:1;"/><path d="M317.7161,703 L309.9973,703 L309.9973,690.6094 L317.7161,690.6094 L317.7161,692.7656 L312.4504,692.7656 L312.4504,695.4375 L317.2161,695.4375 L317.2161,697.5938 L312.4504,697.5938 L312.4504,700.8438 L317.7161,700.8438 L317.7161,703 Z " fill="#000000"/><text fill="#000000" font-family="sans-serif" font-size="14" lengthAdjust="spacing" textLength="79.3379" x="327.6067" y="701.8467">TipoCampo</text><line style="stroke:#181818;stroke-width:0.5;" x1="299.6067" x2="408.9446" y1="713" y2="713"/><text fill="#000000" font-family="sans-serif" font-size="14" lengthAdjust="spacing" textLength="36.4424" x="304.6067" y="729.9951">texto</text><text fill="#000000" font-family="sans-serif" font-size="14" lengthAdjust="spacing" textLength="54.3184" x="304.6067" y="746.292">n&#250;mero</text><text fill="#000000" font-family="sans-serif" font-size="14" lengthAdjust="spacing" textLength="38.6914" x="304.6067" y="762.5889">fecha</text><text fill="#000000" font-family="sans-serif" font-size="14" lengthAdjust="spacing" textLength="13.3506" x="304.6067" y="778.8857">...</text><line style="stroke:#181818;stroke-width:0.5;" x1="299.6067" x2="408.9446" y1="786.1875" y2="786.1875"/></g><!--class Restriccion--><g class="entity" data-entity="Restriccion" data-source-line="36" data-uid="ent0015" id="entity_Restriccion"><rect fill="#F1F1F1" height="48" rx="2.5" ry="2.5" style="stroke:#181818;stroke-width:0.5;" width="109.4922" x="484.6067" y="713.5"/><ellipse cx="499.6067" cy="729.5" fill="#ADD1B2" rx="11" ry="11" style="stroke:#181818;stroke-width:1;"/><path d="M502.5754,735.1406 Q501.9973,735.4375 501.3567,735.5781 Q500.7161,735.7344 500.0129,735.7344 Q497.5129,735.7344 496.1848,734.0938 Q494.8723,732.4375 494.8723,729.3125 Q494.8723,726.1875 496.1848,724.5313 Q497.5129,722.875 500.0129,722.875 Q500.7161,722.875 501.3567,723.0313 Q502.0129,723.1875 502.5754,723.4844 L502.5754,726.2031 Q501.9504,725.625 501.3567,725.3594 Q500.7629,725.0781 500.1379,725.0781 Q498.7942,725.0781 498.1067,726.1563 Q497.4192,727.2188 497.4192,729.3125 Q497.4192,731.4063 498.1067,732.4844 Q498.7942,733.5469 500.1379,733.5469 Q500.7629,733.5469 501.3567,733.2813 Q501.9504,733 502.5754,732.4219 L502.5754,735.1406 Z " fill="#000000"/><text fill="#000000" font-family="sans-serif" font-size="14" lengthAdjust="spacing" textLength="77.4922" x="513.6067" y="734.3467">Restriccion</text><line style="stroke:#181818;stroke-width:0.5;" x1="485.6067" x2="593.0989" y1="745.5" y2="745.5"/><line style="stroke:#181818;stroke-width:0.5;" x1="485.6067" x2="593.0989" y1="753.5" y2="753.5"/></g><!--reverse link Usuario to Rol--><g class="link" data-entity-1="Usuario" data-entity-2="Rol" data-source-line="39" data-uid="lnk16" id="link_Usuario_Rol"><path codeLine="39" d="M382.4773,99.2361 C392.4373,124.0461 400.4567,144.02 408.8267,164.88" fill="none" id="Usuario-backto-Rol" style="stroke:#181818;stroke-width:1;"/><polygon fill="#181818" points="378.0067,88.1,376.5299,95.1583,382.4773,99.2361,383.954,92.1779,378.0067,88.1" style="stroke:#181818;stroke-width:1;"/><text fill="#000000" font-family="sans-serif" font-size="13" lengthAdjust="spacing" textLength="32.9443" x="398.1067" y="131.0669">tiene</text><text fill="#000000" font-family="sans-serif" font-size="13" lengthAdjust="spacing" textLength="36.5625" x="341.7037" y="107.5735">many</text><text fill="#000000" font-family="sans-serif" font-size="13" lengthAdjust="spacing" textLength="8.271" x="397.435" y="153.8613">1</text></g><!--reverse link Rol to Permiso--><g class="link" data-entity-1="Rol" data-entity-2="Permiso" data-source-line="40" data-uid="lnk17" id="link_Rol_Permiso"><path codeLine="40" d="M418.3774,225.1197 C418.5574,248.9197 418.7467,273.8 418.9267,297.67" fill="none" id="Rol-backto-Permiso" style="stroke:#181818;stroke-width:1;"/><polygon fill="#181818" points="418.2867,213.12,414.3322,219.1501,418.3774,225.1197,422.3319,219.0896,418.2867,213.12" style="stroke:#181818;stroke-width:1;"/><text fill="#000000" font-family="sans-serif" font-size="13" lengthAdjust="spacing" textLength="32.9443" x="419.1067" y="256.0669">tiene</text><text fill="#000000" font-family="sans-serif" font-size="13" lengthAdjust="spacing" textLength="36.5625" x="377.9894" y="232.9105">many</text><text fill="#000000" font-family="sans-serif" font-size="13" lengthAdjust="spacing" textLength="36.5625" x="378.5397" y="286.9945">many</text></g><!--link Usuario to Consulta--><g class="link" data-entity-1="Usuario" data-entity-2="Consulta" data-source-line="41" data-uid="lnk18" id="link_Usuario_Consulta"><path codeLine="41" d="M333.7867,88.26 C328.1667,97.66 322.8567,107.89 319.1067,118 C313.5467,133 311.3805,144.8385 310.0205,158.7485" fill="none" id="Usuario-to-Consulta" style="stroke:#181818;stroke-width:1;"/><polygon fill="#181818" points="309.4367,164.72,314.2935,156.1519,309.9232,159.7437,306.3314,155.3735,309.4367,164.72" style="stroke:#181818;stroke-width:1;"/><text fill="#000000" font-family="sans-serif" font-size="13" lengthAdjust="spacing" textLength="48.0581" x="320.1067" y="131.0669">ejecuta</text></g><!--link Consulta to Tabla--><g class="link" data-entity-1="Consulta" data-entity-2="Tabla" data-source-line="42" data-uid="lnk19" id="link_Consulta_Tabla"><path codeLine="42" d="M307.5767,213.12 C307.0867,234.42 306.4916,260.2015 305.9616,283.7615" fill="none" id="Consulta-to-Tabla" style="stroke:#181818;stroke-width:1;"/><polygon fill="#181818" points="305.8267,289.76,310.0281,280.8522,305.9391,284.7613,302.0301,280.6723,305.8267,289.76" style="stroke:#181818;stroke-width:1;"/><text fill="#000000" font-family="sans-serif" font-size="13" lengthAdjust="spacing" textLength="48.0581" x="308.1067" y="256.0669">ejecuta</text></g><!--reverse link Tabla to Esquema--><g class="link" data-entity-1="Tabla" data-entity-2="Esquema" data-source-line="43" data-uid="lnk20" id="link_Tabla_Esquema"><path codeLine="43" d="M269.2407,363.5085 C261.8407,372.6785 261.8767,373.69 256.1067,384 C247.8567,398.75 241.5067,416.74 237.2667,430.78" fill="none" id="Tabla-backto-Esquema" style="stroke:#181818;stroke-width:1;"/><polygon fill="#181818" points="276.7767,354.17,269.8958,356.3273,269.2407,363.5085,276.1215,361.3513,276.7767,354.17" style="stroke:#181818;stroke-width:1;"/><text fill="#000000" font-family="sans-serif" font-size="13" lengthAdjust="spacing" textLength="32.9443" x="257.1067" y="397.0669">tiene</text><text fill="#000000" font-family="sans-serif" font-size="13" lengthAdjust="spacing" textLength="8.271" x="262.0864" y="374.4019">1</text><text fill="#000000" font-family="sans-serif" font-size="13" lengthAdjust="spacing" textLength="8.271" x="229.8592" y="420.1313">1</text></g><!--reverse link Tabla to Llave--><g class="link" data-entity-1="Tabla" data-entity-2="Llave" data-source-line="44" data-uid="lnk21" id="link_Tabla_Llave"><path codeLine="44" d="M259.1607,344.6874 C225.6507,362.1174 187.7767,387.78 165.1067,431 C115.5267,525.54 133.9367,659.95 144.1367,713.35" fill="none" id="Tabla-backto-Llave" style="stroke:#181818;stroke-width:1;"/><polygon fill="#181818" points="269.8067,339.15,262.6379,338.3701,259.1607,344.6874,266.3295,345.4674,269.8067,339.15" style="stroke:#181818;stroke-width:1;"/><text fill="#000000" font-family="sans-serif" font-size="13" lengthAdjust="spacing" textLength="32.9443" x="141.1067" y="522.0669">tiene</text><text fill="#000000" font-family="sans-serif" font-size="13" lengthAdjust="spacing" textLength="8.271" x="253.6788" y="338.1903">1</text><text fill="#000000" font-family="sans-serif" font-size="13" lengthAdjust="spacing" textLength="36.5625" x="102.3013" y="702.3236">many</text></g><!--reverse link Tabla to Restriccion--><g class="link" data-entity-1="Tabla" data-entity-2="Restriccion" data-source-line="45" data-uid="lnk22" id="link_Tabla_Restriccion"><path codeLine="45" d="M350.6516,350.7986 C356.5316,354.0586 352.1567,351.37 358.1067,354 C432.4967,386.87 484.0967,360.19 524.1067,431 C576.6067,523.93 555.9167,659.26 544.5967,713.12" fill="none" id="Tabla-backto-Restriccion" style="stroke:#181818;stroke-width:1;"/><polygon fill="#181818" points="340.1567,344.98,343.4646,351.3876,350.6516,350.7986,347.3437,344.391,340.1567,344.98" style="stroke:#181818;stroke-width:1;"/><text fill="#000000" font-family="sans-serif" font-size="13" lengthAdjust="spacing" textLength="32.9443" x="554.1067" y="522.0669">tiene</text><text fill="#000000" font-family="sans-serif" font-size="13" lengthAdjust="spacing" textLength="8.271" x="348.6753" y="345.4152">1</text><text fill="#000000" font-family="sans-serif" font-size="13" lengthAdjust="spacing" textLength="36.5625" x="505.5559" y="702.4323">many</text></g><!--reverse link Tabla to Vista--><g class="link" data-entity-1="Tabla" data-entity-2="Vista" data-source-line="46" data-uid="lnk23" id="link_Tabla_Vista"><path codeLine="46" d="M258.1002,322.8295 C207.5502,324.0495 125.9767,333.33 69.1067,384 C55.6867,395.96 48.8867,415.36 45.4767,430.71" fill="none" id="Tabla-backto-Vista" style="stroke:#181818;stroke-width:1;"/><polygon fill="#181818" points="270.0967,322.54,264.0019,318.6859,258.1002,322.8295,264.1949,326.6836,270.0967,322.54" style="stroke:#181818;stroke-width:1;"/><text fill="#000000" font-family="sans-serif" font-size="13" lengthAdjust="spacing" textLength="32.9443" x="70.1067" y="397.0669">tiene</text><text fill="#000000" font-family="sans-serif" font-size="13" lengthAdjust="spacing" textLength="8.271" x="254.0287" y="318.1545">1</text><text fill="#000000" font-family="sans-serif" font-size="13" lengthAdjust="spacing" textLength="36.5625" x="6" y="420.0443">many</text></g><!--reverse link Tabla to Indice--><g class="link" data-entity-1="Tabla" data-entity-2="Indice" data-source-line="47" data-uid="lnk24" id="link_Tabla_Indice"><path codeLine="47" d="M350.0509,352.8308 C366.2109,363.8508 375.5367,370.75 392.1067,384 C410.5867,398.78 430.3167,416.77 445.1767,430.8" fill="none" id="Tabla-backto-Indice" style="stroke:#181818;stroke-width:1;"/><polygon fill="#181818" points="340.1367,346.07,342.8402,352.7551,350.0509,352.8308,347.3474,346.1457,340.1367,346.07" style="stroke:#181818;stroke-width:1;"/><text fill="#000000" font-family="sans-serif" font-size="13" lengthAdjust="spacing" textLength="32.9443" x="413.1067" y="397.0669">tiene</text><text fill="#000000" font-family="sans-serif" font-size="13" lengthAdjust="spacing" textLength="8.271" x="348.6509" y="365.0249">1</text><text fill="#000000" font-family="sans-serif" font-size="13" lengthAdjust="spacing" textLength="36.5625" x="398.4928" y="419.7608">many</text></g><!--reverse link Tabla to Trigger--><g class="link" data-entity-1="Tabla" data-entity-2="Trigger" data-source-line="48" data-uid="lnk25" id="link_Tabla_Trigger"><path codeLine="48" d="M296.4377,365.9796 C294.5177,380.7296 295.9667,386.38 302.1067,401 C306.8867,412.39 315.4367,422.56 324.3467,430.87" fill="none" id="Tabla-backto-Trigger" style="stroke:#181818;stroke-width:1;"/><polygon fill="#181818" points="297.9867,354.08,293.2457,359.5135,296.4377,365.9796,301.1787,360.5461,297.9867,354.08" style="stroke:#181818;stroke-width:1;"/><text fill="#000000" font-family="sans-serif" font-size="13" lengthAdjust="spacing" textLength="32.9443" x="303.1067" y="397.0669">tiene</text><text fill="#000000" font-family="sans-serif" font-size="13" lengthAdjust="spacing" textLength="8.271" x="287.671" y="374.2934">1</text><text fill="#000000" font-family="sans-serif" font-size="13" lengthAdjust="spacing" textLength="36.5625" x="275.6242" y="419.8487">many</text></g><!--link Trigger to Tabla--><g class="link" data-entity-1="Trigger" data-entity-2="Tabla" data-source-line="49" data-uid="lnk26" id="link_Trigger_Tabla"><path codeLine="49" d="M352.5867,430.79 C350.0467,416.91 346.0067,399.09 340.1067,384 C336.1467,373.88 333.7264,368.6105 328.3164,359.2805" fill="none" id="Trigger-to-Tabla" style="stroke:#181818;stroke-width:1;"/><polygon fill="#181818" points="325.3067,354.09,326.3609,363.8823,327.8148,358.4154,333.2816,359.8693,325.3067,354.09" style="stroke:#181818;stroke-width:1;"/><text fill="#000000" font-family="sans-serif" font-size="13" lengthAdjust="spacing" textLength="36.4165" x="347.1067" y="397.0669">act&#250;a</text></g><!--reverse link Esquema to Campo--><g class="link" data-entity-1="Esquema" data-entity-2="Campo" data-source-line="50" data-uid="lnk27" id="link_Esquema_Campo"><path codeLine="50" d="M262.732,487.6253 C284.722,509.6153 309.1167,534.01 331.0767,555.97" fill="none" id="Esquema-backto-Campo" style="stroke:#181818;stroke-width:1;"/><polygon fill="#181818" points="254.2467,479.14,255.6609,486.2111,262.732,487.6253,261.3177,480.5542,254.2467,479.14" style="stroke:#181818;stroke-width:1;"/><text fill="#000000" font-family="sans-serif" font-size="13" lengthAdjust="spacing" textLength="56.2847" x="301.1067" y="522.0669">contiene</text><text fill="#000000" font-family="sans-serif" font-size="13" lengthAdjust="spacing" textLength="8.271" x="250.9781" y="498.9353">1</text><text fill="#000000" font-family="sans-serif" font-size="13" lengthAdjust="spacing" textLength="36.5625" x="284.5779" y="544.9743">many</text></g><!--link Campo to TipoCampo--><g class="link" data-entity-1="Campo" data-entity-2="TipoCampo" data-source-line="51" data-uid="lnk28" id="link_Campo_TipoCampo"><path codeLine="51" d="M354.1067,604.28 C354.1067,624.44 354.1067,654.43 354.1067,680.75" fill="none" id="Campo-TipoCampo" style="stroke:#181818;stroke-width:1;stroke-dasharray:7,7;"/></g><!--reverse link Campo to Restriccion--><g class="link" data-entity-1="Campo" data-entity-2="Restriccion" data-source-line="52" data-uid="lnk29" id="link_Campo_Restriccion"><path codeLine="52" d="M390.9919,612.0022 C425.9619,641.4022 476.5967,683.96 511.5267,713.32" fill="none" id="Campo-backto-Restriccion" style="stroke:#181818;stroke-width:1;"/><polygon fill="none" points="381.8067,604.28,383.8252,611.2028,390.9919,612.0022,388.9733,605.0794,381.8067,604.28" style="stroke:#181818;stroke-width:1;"/><text fill="#000000" font-family="sans-serif" font-size="13" lengthAdjust="spacing" textLength="32.9443" x="436.1067" y="647.0669">tiene</text><text fill="#000000" font-family="sans-serif" font-size="13" lengthAdjust="spacing" textLength="8.271" x="379.5624" y="624.1095">1</text><text fill="#000000" font-family="sans-serif" font-size="13" lengthAdjust="spacing" textLength="36.5625" x="463.8558" y="702.2859">many</text></g><!--link Indice to Campo--><g class="link" data-entity-1="Indice" data-entity-2="Campo" data-source-line="53" data-uid="lnk30" id="link_Indice_Campo"><path codeLine="53" d="M447.4767,479.14 C426.9167,501.13 396.1667,534.01 375.6367,555.97" fill="none" id="Indice-Campo" style="stroke:#181818;stroke-width:1;"/><text fill="#000000" font-family="sans-serif" font-size="13" lengthAdjust="spacing" textLength="56.2847" x="419.1067" y="522.0669">contiene</text></g><!--link Llave to TipoLlave--><g class="link" data-entity-1="Llave" data-entity-2="TipoLlave" data-source-line="54" data-uid="lnk31" id="link_Llave_TipoLlave"><path codeLine="54" d="M149.1067,761.52 C149.1067,786.01 149.1067,825.22 149.1067,854.73" fill="none" id="Llave-TipoLlave" style="stroke:#181818;stroke-width:1;stroke-dasharray:7,7;"/></g><!--link Campo to Llave--><g class="link" data-entity-1="Campo" data-entity-2="Llave" data-source-line="55" data-uid="lnk32" id="link_Campo_Llave"><path codeLine="55" d="M323.4167,604.28 C284.6567,633.68 218.3667,683.96 179.6767,713.32" fill="none" id="Campo-Llave" style="stroke:#181818;stroke-width:1;"/></g><!--SRC=[VLAxJiKm3Dtp5L57f5PYPM1134WC21Lst-1x2MhYagG8XFWOFe7rhlqnyceJBbAt-FZusCUE6C1QtiDkW4-cIUqCiYyc8leehVFe4bwHjjDG8mzs0YDfBHIadG6Bym-id7iQIi4T6YKj5U1sW3SC8Uf9yLwEb97HIEMrWUt9pDyQY-2rVPrGLLFqHXuEQ0fmev-am6fmK2FzQP8HX- -Ec9wF2WsnFOfdO5tNbTdHEYE5aAH3ESj-UQD0VpJyh6rvSzu4Y_o2EuaQMNZNwVJClbVM8jIsb-jQVH9VK4mEs0g5VBnDbKnnwBlqpnjPrKyOQOIursrAPNUR63_6DYNTO9kJ3rT8EQvTWt3p4TXYyKGXtj6pmiUB4WdekdBb38L2shQQH_QaVx9fULas1bdMasFu2m00]--></g></svg>