<svg xmlns="http://www.w3.org/2000/svg" xmlns:xlink="http://www.w3.org/1999/xlink" contentStyleType="text/css" data-diagram-type="CLASS" height="840px" preserveAspectRatio="none" style="width:1110px;height:840px;background:#FFFFFF;" version="1.1" viewBox="0 0 1110 840" width="1110px" zoomAndPan="magnify"><defs/><g><!--class Tabla--><g class="entity" data-entity="Tabla" data-source-line="1" data-uid="ent0002" id="entity_Tabla"><rect fill="#F1F1F1" height="64.2969" rx="2.5" ry="2.5" style="stroke:#181818;stroke-width:0.5;" width="70.4863" x="551" y="15.5"/><ellipse cx="566" cy="31.5" fill="#ADD1B2" rx="11" ry="11" style="stroke:#181818;stroke-width:1;"/><path d="M568.9688,37.1406 Q568.3906,37.4375 567.75,37.5781 Q567.1094,37.7344 566.4063,37.7344 Q563.9063,37.7344 562.5781,36.0938 Q561.2656,34.4375 561.2656,31.3125 Q561.2656,28.1875 562.5781,26.5313 Q563.9063,24.875 566.4063,24.875 Q567.1094,24.875 567.75,25.0313 Q568.4063,25.1875 568.9688,25.4844 L568.9688,28.2031 Q568.3438,27.625 567.75,27.3594 Q567.1563,27.0781 566.5313,27.0781 Q565.1875,27.0781 564.5,28.1563 Q563.8125,29.2188 563.8125,31.3125 Q563.8125,33.4063 564.5,34.4844 Q565.1875,35.5469 566.5313,35.5469 Q567.1563,35.5469 567.75,35.2813 Q568.3438,35 568.9688,34.4219 L568.9688,37.1406 Z " fill="#000000"/><text fill="#000000" font-family="sans-serif" font-size="14" lengthAdjust="spacing" textLength="38.4863" x="580" y="36.3467">Tabla</text><line style="stroke:#181818;stroke-width:0.5;" x1="552" x2="620.4863" y1="47.5" y2="47.5"/><text fill="#000000" font-family="sans-serif" font-size="14" lengthAdjust="spacing" textLength="54.332" x="557" y="64.4951">nombre</text><line style="stroke:#181818;stroke-width:0.5;" x1="552" x2="620.4863" y1="71.7969" y2="71.7969"/></g><!--class Vista--><g class="entity" data-entity="Vista" data-source-line="4" data-uid="ent0003" id="entity_Vista"><rect fill="#F1F1F1" height="48" rx="2.5" ry="2.5" style="stroke:#181818;stroke-width:0.5;" width="66.8291" x="532.5" y="181.5"/><ellipse cx="547.5" cy="197.5" fill="#ADD1B2" rx="11" ry="11" style="stroke:#181818;stroke-width:1;"/><path d="M550.4688,203.1406 Q549.8906,203.4375 549.25,203.5781 Q548.6094,203.7344 547.9063,203.7344 Q545.4063,203.7344 544.0781,202.0938 Q542.7656,200.4375 542.7656,197.3125 Q542.7656,194.1875 544.0781,192.5313 Q545.4063,190.875 547.9063,190.875 Q548.6094,190.875 549.25,191.0313 Q549.9063,191.1875 550.4688,191.4844 L550.4688,194.2031 Q549.8438,193.625 549.25,193.3594 Q548.6563,193.0781 548.0313,193.0781 Q546.6875,193.0781 546,194.1563 Q545.3125,195.2188 545.3125,197.3125 Q545.3125,199.4063 546,200.4844 Q546.6875,201.5469 548.0313,201.5469 Q548.6563,201.5469 549.25,201.2813 Q549.8438,201 550.4688,200.4219 L550.4688,203.1406 Z " fill="#000000"/><text fill="#000000" font-family="sans-serif" font-size="14" lengthAdjust="spacing" textLength="34.8291" x="561.5" y="202.3467">Vista</text><line style="stroke:#181818;stroke-width:0.5;" x1="533.5" x2="598.3291" y1="213.5" y2="213.5"/><line style="stroke:#181818;stroke-width:0.5;" x1="533.5" x2="598.3291" y1="221.5" y2="221.5"/></g><!--class Consulta--><g class="entity" data-entity="Consulta" data-source-line="6" data-uid="ent0004" id="entity_Consulta"><rect fill="#F1F1F1" height="64.2969" rx="2.5" ry="2.5" style="stroke:#181818;stroke-width:0.5;" width="93.3389" x="716.5" y="15.5"/><ellipse cx="731.5" cy="31.5" fill="#ADD1B2" rx="11" ry="11" style="stroke:#181818;stroke-width:1;"/><path d="M734.4688,37.1406 Q733.8906,37.4375 733.25,37.5781 Q732.6094,37.7344 731.9063,37.7344 Q729.4063,37.7344 728.0781,36.0938 Q726.7656,34.4375 726.7656,31.3125 Q726.7656,28.1875 728.0781,26.5313 Q729.4063,24.875 731.9063,24.875 Q732.6094,24.875 733.25,25.0313 Q733.9063,25.1875 734.4688,25.4844 L734.4688,28.2031 Q733.8438,27.625 733.25,27.3594 Q732.6563,27.0781 732.0313,27.0781 Q730.6875,27.0781 730,28.1563 Q729.3125,29.2188 729.3125,31.3125 Q729.3125,33.4063 730,34.4844 Q730.6875,35.5469 732.0313,35.5469 Q732.6563,35.5469 733.25,35.2813 Q733.8438,35 734.4688,34.4219 L734.4688,37.1406 Z " fill="#000000"/><text fill="#000000" font-family="sans-serif" font-size="14" lengthAdjust="spacing" textLength="61.3389" x="745.5" y="36.3467">Consulta</text><line style="stroke:#181818;stroke-width:0.5;" x1="717.5" x2="808.8389" y1="47.5" y2="47.5"/><text fill="#000000" font-family="sans-serif" font-size="14" lengthAdjust="spacing" textLength="72.8506" x="722.5" y="64.4951">enunciado</text><line style="stroke:#181818;stroke-width:0.5;" x1="717.5" x2="808.8389" y1="71.7969" y2="71.7969"/></g><!--class Usuario--><g class="entity" data-entity="Usuario" data-source-line="9" data-uid="ent0005" id="entity_Usuario"><rect fill="#F1F1F1" height="80.5938" rx="2.5" ry="2.5" style="stroke:#181818;stroke-width:0.5;" width="90.3193" x="899" y="7"/><ellipse cx="916.3019" cy="23" fill="#ADD1B2" rx="11" ry="11" style="stroke:#181818;stroke-width:1;"/><path d="M919.2706,28.6406 Q918.6925,28.9375 918.0519,29.0781 Q917.4112,29.2344 916.7081,29.2344 Q914.2081,29.2344 912.88,27.5938 Q911.5675,25.9375 911.5675,22.8125 Q911.5675,19.6875 912.88,18.0313 Q914.2081,16.375 916.7081,16.375 Q917.4112,16.375 918.0519,16.5313 Q918.7081,16.6875 919.2706,16.9844 L919.2706,19.7031 Q918.6456,19.125 918.0519,18.8594 Q917.4581,18.5781 916.8331,18.5781 Q915.4894,18.5781 914.8019,19.6563 Q914.1144,20.7188 914.1144,22.8125 Q914.1144,24.9063 914.8019,25.9844 Q915.4894,27.0469 916.8331,27.0469 Q917.4581,27.0469 918.0519,26.7813 Q918.6456,26.5 919.2706,25.9219 L919.2706,28.6406 Z " fill="#000000"/><text fill="#000000" font-family="sans-serif" font-size="14" lengthAdjust="spacing" textLength="53.2041" x="930.8134" y="27.8467">Usuario</text><line style="stroke:#181818;stroke-width:0.5;" x1="900" x2="988.3193" y1="39" y2="39"/><text fill="#000000" font-family="sans-serif" font-size="14" lengthAdjust="spacing" textLength="54.332" x="905" y="55.9951">nombre</text><text fill="#000000" font-family="sans-serif" font-size="14" lengthAdjust="spacing" textLength="78.3193" x="905" y="72.292">contrase&#241;a</text><line style="stroke:#181818;stroke-width:0.5;" x1="900" x2="988.3193" y1="79.5938" y2="79.5938"/></g><!--class Rol--><g class="entity" data-entity="Rol" data-source-line="13" data-uid="ent0006" id="entity_Rol"><rect fill="#F1F1F1" height="64.2969" rx="2.5" ry="2.5" style="stroke:#181818;stroke-width:0.5;" width="66.332" x="958" y="173.5"/><ellipse cx="978.4672" cy="189.5" fill="#ADD1B2" rx="11" ry="11" style="stroke:#181818;stroke-width:1;"/><path d="M981.436,195.1406 Q980.8579,195.4375 980.2172,195.5781 Q979.5766,195.7344 978.8735,195.7344 Q976.3735,195.7344 975.0454,194.0938 Q973.7329,192.4375 973.7329,189.3125 Q973.7329,186.1875 975.0454,184.5313 Q976.3735,182.875 978.8735,182.875 Q979.5766,182.875 980.2172,183.0313 Q980.8735,183.1875 981.436,183.4844 L981.436,186.2031 Q980.811,185.625 980.2172,185.3594 Q979.6235,185.0781 978.9985,185.0781 Q977.6547,185.0781 976.9672,186.1563 Q976.2797,187.2188 976.2797,189.3125 Q976.2797,191.4063 976.9672,192.4844 Q977.6547,193.5469 978.9985,193.5469 Q979.6235,193.5469 980.2172,193.2813 Q980.811,193 981.436,192.4219 L981.436,195.1406 Z " fill="#000000"/><text fill="#000000" font-family="sans-serif" font-size="14" lengthAdjust="spacing" textLength="22.1826" x="993.6822" y="194.3467">Rol</text><line style="stroke:#181818;stroke-width:0.5;" x1="959" x2="1023.332" y1="205.5" y2="205.5"/><text fill="#000000" font-family="sans-serif" font-size="14" lengthAdjust="spacing" textLength="54.332" x="964" y="222.4951">nombre</text><line style="stroke:#181818;stroke-width:0.5;" x1="959" x2="1023.332" y1="229.7969" y2="229.7969"/></g><!--class Permiso--><g class="entity" data-entity="Permiso" data-source-line="16" data-uid="ent0007" id="entity_Permiso"><rect fill="#F1F1F1" height="64.2969" rx="2.5" ry="2.5" style="stroke:#181818;stroke-width:0.5;" width="88.1982" x="958" y="339.5"/><ellipse cx="973" cy="355.5" fill="#ADD1B2" rx="11" ry="11" style="stroke:#181818;stroke-width:1;"/><path d="M975.9688,361.1406 Q975.3906,361.4375 974.75,361.5781 Q974.1094,361.7344 973.4063,361.7344 Q970.9063,361.7344 969.5781,360.0938 Q968.2656,358.4375 968.2656,355.3125 Q968.2656,352.1875 969.5781,350.5313 Q970.9063,348.875 973.4063,348.875 Q974.1094,348.875 974.75,349.0313 Q975.4063,349.1875 975.9688,349.4844 L975.9688,352.2031 Q975.3438,351.625 974.75,351.3594 Q974.1563,351.0781 973.5313,351.0781 Q972.1875,351.0781 971.5,352.1563 Q970.8125,353.2188 970.8125,355.3125 Q970.8125,357.4063 971.5,358.4844 Q972.1875,359.5469 973.5313,359.5469 Q974.1563,359.5469 974.75,359.2813 Q975.3438,359 975.9688,358.4219 L975.9688,361.1406 Z " fill="#000000"/><text fill="#000000" font-family="sans-serif" font-size="14" lengthAdjust="spacing" textLength="56.1982" x="987" y="360.3467">Permiso</text><line style="stroke:#181818;stroke-width:0.5;" x1="959" x2="1045.1982" y1="371.5" y2="371.5"/><text fill="#000000" font-family="sans-serif" font-size="14" lengthAdjust="spacing" textLength="71.6816" x="964" y="388.4951">capacidad</text><line style="stroke:#181818;stroke-width:0.5;" x1="959" x2="1045.1982" y1="395.7969" y2="395.7969"/></g><!--class TipoCapacidadPermiso--><g class="entity" data-entity="TipoCapacidadPermiso" data-source-line="19" data-uid="ent0008" id="entity_TipoCapacidadPermiso"><rect fill="#F1F1F1" height="162.0781" rx="2.5" ry="2.5" style="stroke:#181818;stroke-width:0.5;" width="191.8516" x="912" y="497"/><ellipse cx="927" cy="513" fill="#EB937F" rx="11" ry="11" style="stroke:#181818;stroke-width:1;"/><path d="M931.1094,519 L923.3906,519 L923.3906,506.6094 L931.1094,506.6094 L931.1094,508.7656 L925.8438,508.7656 L925.8438,511.4375 L930.6094,511.4375 L930.6094,513.5938 L925.8438,513.5938 L925.8438,516.8438 L931.1094,516.8438 L931.1094,519 Z " fill="#000000"/><text fill="#000000" font-family="sans-serif" font-size="14" lengthAdjust="spacing" textLength="159.8516" x="941" y="517.8467">TipoCapacidadPermiso</text><line style="stroke:#181818;stroke-width:0.5;" x1="913" x2="1102.8516" y1="529" y2="529"/><text fill="#000000" font-family="sans-serif" font-size="14" lengthAdjust="spacing" textLength="52.7051" x="918" y="545.9951">SELECT</text><text fill="#000000" font-family="sans-serif" font-size="14" lengthAdjust="spacing" textLength="50.6133" x="918" y="562.292">INSERT</text><text fill="#000000" font-family="sans-serif" font-size="14" lengthAdjust="spacing" textLength="56.4443" x="918" y="578.5889">UPDATE</text><text fill="#000000" font-family="sans-serif" font-size="14" lengthAdjust="spacing" textLength="53.6689" x="918" y="594.8857">DELETE</text><text fill="#000000" font-family="sans-serif" font-size="14" lengthAdjust="spacing" textLength="55.3232" x="918" y="611.1826">CREATE</text><text fill="#000000" font-family="sans-serif" font-size="14" lengthAdjust="spacing" textLength="39.9697" x="918" y="627.4795">DROP</text><text fill="#000000" font-family="sans-serif" font-size="14" lengthAdjust="spacing" textLength="44.502" x="918" y="643.7764">ALTER</text><line style="stroke:#181818;stroke-width:0.5;" x1="913" x2="1102.8516" y1="651.0781" y2="651.0781"/></g><!--class Llave--><g class="entity" data-entity="Llave" data-source-line="28" data-uid="ent0009" id="entity_Llave"><rect fill="#F1F1F1" height="64.2969" rx="2.5" ry="2.5" style="stroke:#181818;stroke-width:0.5;" width="69.167" x="489.5" y="546"/><ellipse cx="504.5" cy="562" fill="#ADD1B2" rx="11" ry="11" style="stroke:#181818;stroke-width:1;"/><path d="M507.4688,567.6406 Q506.8906,567.9375 506.25,568.0781 Q505.6094,568.2344 504.9063,568.2344 Q502.4063,568.2344 501.0781,566.5938 Q499.7656,564.9375 499.7656,561.8125 Q499.7656,558.6875 501.0781,557.0313 Q502.4063,555.375 504.9063,555.375 Q505.6094,555.375 506.25,555.5313 Q506.9063,555.6875 507.4688,555.9844 L507.4688,558.7031 Q506.8438,558.125 506.25,557.8594 Q505.6563,557.5781 505.0313,557.5781 Q503.6875,557.5781 503,558.6563 Q502.3125,559.7188 502.3125,561.8125 Q502.3125,563.9063 503,564.9844 Q503.6875,566.0469 505.0313,566.0469 Q505.6563,566.0469 506.25,565.7813 Q506.8438,565.5 507.4688,564.9219 L507.4688,567.6406 Z " fill="#000000"/><text fill="#000000" font-family="sans-serif" font-size="14" lengthAdjust="spacing" textLength="37.167" x="518.5" y="566.8467">Llave</text><line style="stroke:#181818;stroke-width:0.5;" x1="490.5" x2="557.667" y1="578" y2="578"/><text fill="#000000" font-family="sans-serif" font-size="14" lengthAdjust="spacing" textLength="26.8311" x="495.5" y="594.9951">tipo</text><line style="stroke:#181818;stroke-width:0.5;" x1="490.5" x2="557.667" y1="602.2969" y2="602.2969"/></g><!--class TipoLlave--><g class="entity" data-entity="TipoLlave" data-source-line="31" data-uid="ent0010" id="entity_TipoLlave"><rect fill="#F1F1F1" height="80.5938" rx="2.5" ry="2.5" style="stroke:#181818;stroke-width:0.5;" width="99.0605" x="474.5" y="736"/><ellipse cx="489.5" cy="752" fill="#EB937F" rx="11" ry="11" style="stroke:#181818;stroke-width:1;"/><path d="M493.6094,758 L485.8906,758 L485.8906,745.6094 L493.6094,745.6094 L493.6094,747.7656 L488.3438,747.7656 L488.3438,750.4375 L493.1094,750.4375 L493.1094,752.5938 L488.3438,752.5938 L488.3438,755.8438 L493.6094,755.8438 L493.6094,758 Z " fill="#000000"/><text fill="#000000" font-family="sans-serif" font-size="14" lengthAdjust="spacing" textLength="67.0605" x="503.5" y="756.8467">TipoLlave</text><line style="stroke:#181818;stroke-width:0.5;" x1="475.5" x2="572.5605" y1="768" y2="768"/><text fill="#000000" font-family="sans-serif" font-size="14" lengthAdjust="spacing" textLength="58.9736" x="480.5" y="784.9951">primaria</text><text fill="#000000" font-family="sans-serif" font-size="14" lengthAdjust="spacing" textLength="53.8945" x="480.5" y="801.292">for&#225;nea</text><line style="stroke:#181818;stroke-width:0.5;" x1="475.5" x2="572.5605" y1="808.5938" y2="808.5938"/></g><!--class Esquema--><g class="entity" data-entity="Esquema" data-source-line="35" data-uid="ent0011" id="entity_Esquema"><rect fill="#F1F1F1" height="48" rx="2.5" ry="2.5" style="stroke:#181818;stroke-width:0.5;" width="96.7295" x="634.5" y="181.5"/><ellipse cx="649.5" cy="197.5" fill="#ADD1B2" rx="11" ry="11" style="stroke:#181818;stroke-width:1;"/><path d="M652.4688,203.1406 Q651.8906,203.4375 651.25,203.5781 Q650.6094,203.7344 649.9063,203.7344 Q647.4063,203.7344 646.0781,202.0938 Q644.7656,200.4375 644.7656,197.3125 Q644.7656,194.1875 646.0781,192.5313 Q647.4063,190.875 649.9063,190.875 Q650.6094,190.875 651.25,191.0313 Q651.9063,191.1875 652.4688,191.4844 L652.4688,194.2031 Q651.8438,193.625 651.25,193.3594 Q650.6563,193.0781 650.0313,193.0781 Q648.6875,193.0781 648,194.1563 Q647.3125,195.2188 647.3125,197.3125 Q647.3125,199.4063 648,200.4844 Q648.6875,201.5469 650.0313,201.5469 Q650.6563,201.5469 651.25,201.2813 Q651.8438,201 652.4688,200.4219 L652.4688,203.1406 Z " fill="#000000"/><text fill="#000000" font-family="sans-serif" font-size="14" lengthAdjust="spacing" textLength="64.7295" x="663.5" y="202.3467">Esquema</text><line style="stroke:#181818;stroke-width:0.5;" x1="635.5" x2="730.2295" y1="213.5" y2="213.5"/><line style="stroke:#181818;stroke-width:0.5;" x1="635.5" x2="730.2295" y1="221.5" y2="221.5"/></g><!--class Trigger--><g class="entity" data-entity="Trigger" data-source-line="37" data-uid="ent0012" id="entity_Trigger"><rect fill="#F1F1F1" height="80.5938" rx="2.5" ry="2.5" style="stroke:#181818;stroke-width:0.5;" width="155.377" x="266.5" y="165"/><ellipse cx="314.7686" cy="181" fill="#ADD1B2" rx="11" ry="11" style="stroke:#181818;stroke-width:1;"/><path d="M317.7373,186.6406 Q317.1592,186.9375 316.5186,187.0781 Q315.8779,187.2344 315.1748,187.2344 Q312.6748,187.2344 311.3467,185.5938 Q310.0342,183.9375 310.0342,180.8125 Q310.0342,177.6875 311.3467,176.0313 Q312.6748,174.375 315.1748,174.375 Q315.8779,174.375 316.5186,174.5313 Q317.1748,174.6875 317.7373,174.9844 L317.7373,177.7031 Q317.1123,177.125 316.5186,176.8594 Q315.9248,176.5781 315.2998,176.5781 Q313.9561,176.5781 313.2686,177.6563 Q312.5811,178.7188 312.5811,180.8125 Q312.5811,182.9063 313.2686,183.9844 Q313.9561,185.0469 315.2998,185.0469 Q315.9248,185.0469 316.5186,184.7813 Q317.1123,184.5 317.7373,183.9219 L317.7373,186.6406 Z " fill="#000000"/><text fill="#000000" font-family="sans-serif" font-size="14" lengthAdjust="spacing" textLength="50.3398" x="335.2686" y="185.8467">Trigger</text><line style="stroke:#181818;stroke-width:0.5;" x1="267.5" x2="420.877" y1="197" y2="197"/><text fill="#000000" font-family="sans-serif" font-size="14" lengthAdjust="spacing" textLength="124.4346" x="272.5" y="213.9951">evento activaci&#243;n</text><text fill="#000000" font-family="sans-serif" font-size="14" lengthAdjust="spacing" textLength="143.377" x="272.5" y="230.292">momento activaci&#243;n</text><line style="stroke:#181818;stroke-width:0.5;" x1="267.5" x2="420.877" y1="237.5938" y2="237.5938"/></g><!--class TipoEventoActivaci?n--><g class="entity" data-entity="TipoEventoActivaci.n" data-source-line="41" data-uid="ent0013" id="entity_TipoEventoActivaci.n"><rect fill="#F1F1F1" height="96.8906" rx="2.5" ry="2.5" style="stroke:#181818;stroke-width:0.5;" width="183.1084" x="242.5" y="323"/><ellipse cx="257.5" cy="339" fill="#EB937F" rx="11" ry="11" style="stroke:#181818;stroke-width:1;"/><path d="M261.6094,345 L253.8906,345 L253.8906,332.6094 L261.6094,332.6094 L261.6094,334.7656 L256.3438,334.7656 L256.3438,337.4375 L261.1094,337.4375 L261.1094,339.5938 L256.3438,339.5938 L256.3438,342.8438 L261.6094,342.8438 L261.6094,345 Z " fill="#000000"/><text fill="#000000" font-family="sans-serif" font-size="14" lengthAdjust="spacing" textLength="151.1084" x="271.5" y="343.8467">TipoEventoActivaci&#243;n</text><line style="stroke:#181818;stroke-width:0.5;" x1="243.5" x2="424.6084" y1="355" y2="355"/><text fill="#000000" font-family="sans-serif" font-size="14" lengthAdjust="spacing" textLength="50.6133" x="248.5" y="371.9951">INSERT</text><text fill="#000000" font-family="sans-serif" font-size="14" lengthAdjust="spacing" textLength="56.4443" x="248.5" y="388.292">UPDATE</text><text fill="#000000" font-family="sans-serif" font-size="14" lengthAdjust="spacing" textLength="53.6689" x="248.5" y="404.5889">DELETE</text><line style="stroke:#181818;stroke-width:0.5;" x1="243.5" x2="424.6084" y1="411.8906" y2="411.8906"/></g><!--class TipoMomentoActivaci?n--><g class="entity" data-entity="TipoMomentoActivaci.n" data-source-line="46" data-uid="ent0014" id="entity_TipoMomentoActivaci.n"><rect fill="#F1F1F1" height="80.5938" rx="2.5" ry="2.5" style="stroke:#181818;stroke-width:0.5;" width="200.2598" x="7" y="331"/><ellipse cx="22" cy="347" fill="#EB937F" rx="11" ry="11" style="stroke:#181818;stroke-width:1;"/><path d="M26.1094,353 L18.3906,353 L18.3906,340.6094 L26.1094,340.6094 L26.1094,342.7656 L20.8438,342.7656 L20.8438,345.4375 L25.6094,345.4375 L25.6094,347.5938 L20.8438,347.5938 L20.8438,350.8438 L26.1094,350.8438 L26.1094,353 Z " fill="#000000"/><text fill="#000000" font-family="sans-serif" font-size="14" lengthAdjust="spacing" textLength="168.2598" x="36" y="351.8467">TipoMomentoActivaci&#243;n</text><line style="stroke:#181818;stroke-width:0.5;" x1="8" x2="206.2598" y1="363" y2="363"/><text fill="#000000" font-family="sans-serif" font-size="14" lengthAdjust="spacing" textLength="56.0957" x="13" y="379.9951">BEFORE</text><text fill="#000000" font-family="sans-serif" font-size="14" lengthAdjust="spacing" textLength="44.7549" x="13" y="396.292">AFTER</text><line style="stroke:#181818;stroke-width:0.5;" x1="8" x2="206.2598" y1="403.5938" y2="403.5938"/></g><!--class Indice--><g class="entity" data-entity="Indice" data-source-line="50" data-uid="ent0015" id="entity_Indice"><rect fill="#F1F1F1" height="48" rx="2.5" ry="2.5" style="stroke:#181818;stroke-width:0.5;" width="74.0889" x="767" y="181.5"/><ellipse cx="782" cy="197.5" fill="#ADD1B2" rx="11" ry="11" style="stroke:#181818;stroke-width:1;"/><path d="M784.9688,203.1406 Q784.3906,203.4375 783.75,203.5781 Q783.1094,203.7344 782.4063,203.7344 Q779.9063,203.7344 778.5781,202.0938 Q777.2656,200.4375 777.2656,197.3125 Q777.2656,194.1875 778.5781,192.5313 Q779.9063,190.875 782.4063,190.875 Q783.1094,190.875 783.75,191.0313 Q784.4063,191.1875 784.9688,191.4844 L784.9688,194.2031 Q784.3438,193.625 783.75,193.3594 Q783.1563,193.0781 782.5313,193.0781 Q781.1875,193.0781 780.5,194.1563 Q779.8125,195.2188 779.8125,197.3125 Q779.8125,199.4063 780.5,200.4844 Q781.1875,201.5469 782.5313,201.5469 Q783.1563,201.5469 783.75,201.2813 Q784.3438,201 784.9688,200.4219 L784.9688,203.1406 Z " fill="#000000"/><text fill="#000000" font-family="sans-serif" font-size="14" lengthAdjust="spacing" textLength="42.0889" x="796" y="202.3467">Indice</text><line style="stroke:#181818;stroke-width:0.5;" x1="768" x2="840.0889" y1="213.5" y2="213.5"/><line style="stroke:#181818;stroke-width:0.5;" x1="768" x2="840.0889" y1="221.5" y2="221.5"/></g><!--class Campo--><g class="entity" data-entity="Campo" data-source-line="52" data-uid="ent0016" id="entity_Campo"><rect fill="#F1F1F1" height="80.5938" rx="2.5" ry="2.5" style="stroke:#181818;stroke-width:0.5;" width="81.4443" x="642.5" y="331"/><ellipse cx="657.5" cy="347" fill="#ADD1B2" rx="11" ry="11" style="stroke:#181818;stroke-width:1;"/><path d="M660.4688,352.6406 Q659.8906,352.9375 659.25,353.0781 Q658.6094,353.2344 657.9063,353.2344 Q655.4063,353.2344 654.0781,351.5938 Q652.7656,349.9375 652.7656,346.8125 Q652.7656,343.6875 654.0781,342.0313 Q655.4063,340.375 657.9063,340.375 Q658.6094,340.375 659.25,340.5313 Q659.9063,340.6875 660.4688,340.9844 L660.4688,343.7031 Q659.8438,343.125 659.25,342.8594 Q658.6563,342.5781 658.0313,342.5781 Q656.6875,342.5781 656,343.6563 Q655.3125,344.7188 655.3125,346.8125 Q655.3125,348.9063 656,349.9844 Q656.6875,351.0469 658.0313,351.0469 Q658.6563,351.0469 659.25,350.7813 Q659.8438,350.5 660.4688,349.9219 L660.4688,352.6406 Z " fill="#000000"/><text fill="#000000" font-family="sans-serif" font-size="14" lengthAdjust="spacing" textLength="49.4443" x="671.5" y="351.8467">Campo</text><line style="stroke:#181818;stroke-width:0.5;" x1="643.5" x2="722.9443" y1="363" y2="363"/><text fill="#000000" font-family="sans-serif" font-size="14" lengthAdjust="spacing" textLength="54.332" x="648.5" y="379.9951">nombre</text><text fill="#000000" font-family="sans-serif" font-size="14" lengthAdjust="spacing" textLength="26.8311" x="648.5" y="396.292">tipo</text><line style="stroke:#181818;stroke-width:0.5;" x1="643.5" x2="722.9443" y1="403.5938" y2="403.5938"/></g><!--class TipoCampo--><g class="entity" data-entity="TipoCampo" data-source-line="56" data-uid="ent0017" id="entity_TipoCampo"><rect fill="#F1F1F1" height="113.1875" rx="2.5" ry="2.5" style="stroke:#181818;stroke-width:0.5;" width="111.3379" x="621.5" y="521.5"/><ellipse cx="636.5" cy="537.5" fill="#EB937F" rx="11" ry="11" style="stroke:#181818;stroke-width:1;"/><path d="M640.6094,543.5 L632.8906,543.5 L632.8906,531.1094 L640.6094,531.1094 L640.6094,533.2656 L635.3438,533.2656 L635.3438,535.9375 L640.1094,535.9375 L640.1094,538.0938 L635.3438,538.0938 L635.3438,541.3438 L640.6094,541.3438 L640.6094,543.5 Z " fill="#000000"/><text fill="#000000" font-family="sans-serif" font-size="14" lengthAdjust="spacing" textLength="79.3379" x="650.5" y="542.3467">TipoCampo</text><line style="stroke:#181818;stroke-width:0.5;" x1="622.5" x2="731.8379" y1="553.5" y2="553.5"/><text fill="#000000" font-family="sans-serif" font-size="14" lengthAdjust="spacing" textLength="36.4424" x="627.5" y="570.4951">texto</text><text fill="#000000" font-family="sans-serif" font-size="14" lengthAdjust="spacing" textLength="54.3184" x="627.5" y="586.792">n&#250;mero</text><text fill="#000000" font-family="sans-serif" font-size="14" lengthAdjust="spacing" textLength="38.6914" x="627.5" y="603.0889">fecha</text><text fill="#000000" font-family="sans-serif" font-size="14" lengthAdjust="spacing" textLength="13.3506" x="627.5" y="619.3857">...</text><line style="stroke:#181818;stroke-width:0.5;" x1="622.5" x2="731.8379" y1="626.6875" y2="626.6875"/></g><!--class Restriccion--><g class="entity" data-entity="Restriccion" data-source-line="62" data-uid="ent0018" id="entity_Restriccion"><rect fill="#F1F1F1" height="64.2969" rx="2.5" ry="2.5" style="stroke:#181818;stroke-width:0.5;" width="109.4922" x="767.5" y="546"/><ellipse cx="782.5" cy="562" fill="#ADD1B2" rx="11" ry="11" style="stroke:#181818;stroke-width:1;"/><path d="M785.4688,567.6406 Q784.8906,567.9375 784.25,568.0781 Q783.6094,568.2344 782.9063,568.2344 Q780.4063,568.2344 779.0781,566.5938 Q777.7656,564.9375 777.7656,561.8125 Q777.7656,558.6875 779.0781,557.0313 Q780.4063,555.375 782.9063,555.375 Q783.6094,555.375 784.25,555.5313 Q784.9063,555.6875 785.4688,555.9844 L785.4688,558.7031 Q784.8438,558.125 784.25,557.8594 Q783.6563,557.5781 783.0313,557.5781 Q781.6875,557.5781 781,558.6563 Q780.3125,559.7188 780.3125,561.8125 Q780.3125,563.9063 781,564.9844 Q781.6875,566.0469 783.0313,566.0469 Q783.6563,566.0469 784.25,565.7813 Q784.8438,565.5 785.4688,564.9219 L785.4688,567.6406 Z " fill="#000000"/><text fill="#000000" font-family="sans-serif" font-size="14" lengthAdjust="spacing" textLength="77.4922" x="796.5" y="566.8467">Restriccion</text><line style="stroke:#181818;stroke-width:0.5;" x1="768.5" x2="875.9922" y1="578" y2="578"/><text fill="#000000" font-family="sans-serif" font-size="14" lengthAdjust="spacing" textLength="26.8311" x="773.5" y="594.9951">tipo</text><line style="stroke:#181818;stroke-width:0.5;" x1="768.5" x2="875.9922" y1="602.2969" y2="602.2969"/></g><!--class TipoRestriccion--><g class="entity" data-entity="TipoRestriccion" data-source-line="65" data-uid="ent0019" id="entity_TipoRestriccion"><rect fill="#F1F1F1" height="113.1875" rx="2.5" ry="2.5" style="stroke:#181818;stroke-width:0.5;" width="139.3857" x="752.5" y="720"/><ellipse cx="767.5" cy="736" fill="#EB937F" rx="11" ry="11" style="stroke:#181818;stroke-width:1;"/><path d="M771.6094,742 L763.8906,742 L763.8906,729.6094 L771.6094,729.6094 L771.6094,731.7656 L766.3438,731.7656 L766.3438,734.4375 L771.1094,734.4375 L771.1094,736.5938 L766.3438,736.5938 L766.3438,739.8438 L771.6094,739.8438 L771.6094,742 Z " fill="#000000"/><text fill="#000000" font-family="sans-serif" font-size="14" lengthAdjust="spacing" textLength="107.3857" x="781.5" y="740.8467">TipoRestriccion</text><line style="stroke:#181818;stroke-width:0.5;" x1="753.5" x2="890.8857" y1="752" y2="752"/><text fill="#000000" font-family="sans-serif" font-size="14" lengthAdjust="spacing" textLength="70.8135" x="758.5" y="768.9951">NOT NULL</text><text fill="#000000" font-family="sans-serif" font-size="14" lengthAdjust="spacing" textLength="54.9609" x="758.5" y="785.292">UNIQUE</text><text fill="#000000" font-family="sans-serif" font-size="14" lengthAdjust="spacing" textLength="48.1045" x="758.5" y="801.5889">CHECK</text><text fill="#000000" font-family="sans-serif" font-size="14" lengthAdjust="spacing" textLength="63.8545" x="758.5" y="817.8857">DEFAULT</text><line style="stroke:#181818;stroke-width:0.5;" x1="753.5" x2="890.8857" y1="825.1875" y2="825.1875"/></g><!--reverse link Tabla to Esquema--><g class="link" data-entity-1="Tabla" data-entity-2="Esquema" data-source-line="72" data-uid="lnk20" id="link_Tabla_Esquema"><path codeLine="72" d="M611.7338,89.8823 C630.4138,119.9423 651.92,154.51 668.68,181.47" fill="none" id="Tabla-backto-Esquema" style="stroke:#181818;stroke-width:1;"/><polygon fill="#181818" points="605.4,79.69,605.1694,86.8974,611.7338,89.8823,611.9643,82.6749,605.4,79.69" style="stroke:#181818;stroke-width:1;"/><text fill="#000000" font-family="sans-serif" font-size="13" lengthAdjust="spacing" textLength="32.9443" x="639" y="131.0669">tiene</text><text fill="#000000" font-family="sans-serif" font-size="13" lengthAdjust="spacing" textLength="8.271" x="600.554" y="99.926">1</text><text fill="#000000" font-family="sans-serif" font-size="13" lengthAdjust="spacing" textLength="8.271" x="656.0549" y="170.4743">1</text></g><!--reverse link Tabla to Vista--><g class="link" data-entity-1="Tabla" data-entity-2="Vista" data-source-line="73" data-uid="lnk21" id="link_Tabla_Vista"><path codeLine="73" d="M580.4755,91.5928 C576.6255,121.6528 572.41,154.51 568.95,181.47" fill="none" id="Tabla-backto-Vista" style="stroke:#181818;stroke-width:1;"/><polygon fill="#181818" points="582,79.69,577.2702,85.1332,580.4755,91.5928,585.2054,86.1495,582,79.69" style="stroke:#181818;stroke-width:1;"/><text fill="#000000" font-family="sans-serif" font-size="13" lengthAdjust="spacing" textLength="32.9443" x="578" y="131.0669">tiene</text><text fill="#000000" font-family="sans-serif" font-size="13" lengthAdjust="spacing" textLength="8.271" x="572.3278" y="99.926">1</text><text fill="#000000" font-family="sans-serif" font-size="13" lengthAdjust="spacing" textLength="36.5625" x="529.1874" y="170.4743">many</text></g><!--reverse link Tabla to Llave--><g class="link" data-entity-1="Tabla" data-entity-2="Llave" data-source-line="74" data-uid="lnk22" id="link_Tabla_Llave"><path codeLine="74" d="M553.1321,89.5188 C536.6321,111.7688 523.83,133.53 515,165 C476.38,302.59 503.51,476.3 517.29,546" fill="none" id="Tabla-backto-Llave" style="stroke:#181818;stroke-width:1;"/><polygon fill="#181818" points="560.28,79.88,553.4931,82.3168,553.1321,89.5188,559.919,87.0821,560.28,79.88" style="stroke:#181818;stroke-width:1;"/><text fill="#000000" font-family="sans-serif" font-size="13" lengthAdjust="spacing" textLength="32.9443" x="498" y="289.0669">tiene</text><text fill="#000000" font-family="sans-serif" font-size="13" lengthAdjust="spacing" textLength="8.271" x="546.4077" y="99.7821">1</text><text fill="#000000" font-family="sans-serif" font-size="13" lengthAdjust="spacing" textLength="36.5625" x="476.2343" y="534.9031">many</text></g><!--reverse link Tabla to Indice--><g class="link" data-entity-1="Tabla" data-entity-2="Indice" data-source-line="75" data-uid="lnk23" id="link_Tabla_Indice"><path codeLine="75" d="M631.0766,80.6723 C664.1066,104.2523 705.03,133.5 749,165 C756.36,170.27 764.27,175.95 771.73,181.3" fill="none" id="Tabla-backto-Indice" style="stroke:#181818;stroke-width:1;"/><polygon fill="#181818" points="621.31,73.7,623.8692,80.4417,631.0766,80.6723,628.5174,73.9306,621.31,73.7" style="stroke:#181818;stroke-width:1;"/><text fill="#000000" font-family="sans-serif" font-size="13" lengthAdjust="spacing" textLength="32.9443" x="706" y="131.0669">tiene</text><text fill="#000000" font-family="sans-serif" font-size="13" lengthAdjust="spacing" textLength="8.271" x="629.3955" y="74.6069">1</text><text fill="#000000" font-family="sans-serif" font-size="13" lengthAdjust="spacing" textLength="36.5625" x="730.2955" y="170.5124">many</text></g><!--reverse link Tabla to Trigger--><g class="link" data-entity-1="Tabla" data-entity-2="Trigger" data-source-line="76" data-uid="lnk24" id="link_Tabla_Trigger"><path codeLine="76" d="M538.7203,55.0537 C477.1403,64.2037 366.33,84.49 341,118 C331.12,131.07 330.2,148.69 332.4,164.62" fill="none" id="Tabla-backto-Trigger" style="stroke:#181818;stroke-width:1;"/><polygon fill="#181818" points="550.59,53.29,544.0673,50.2153,538.7203,55.0537,545.2431,58.1284,550.59,53.29" style="stroke:#181818;stroke-width:1;"/><text fill="#000000" font-family="sans-serif" font-size="13" lengthAdjust="spacing" textLength="32.9443" x="342" y="131.0669">tiene</text><text fill="#000000" font-family="sans-serif" font-size="13" lengthAdjust="spacing" textLength="8.271" x="534.81" y="50.0041">1</text><text fill="#000000" font-family="sans-serif" font-size="13" lengthAdjust="spacing" textLength="36.5625" x="291.6973" y="154.0193">many</text></g><!--link Trigger to Tabla--><g class="link" data-entity-1="Trigger" data-entity-2="Tabla" data-source-line="94" data-uid="lnk43" id="link_Trigger_Tabla"><path codeLine="94" d="M369.82,164.99 C381.98,148.75 397.64,130.79 415,118 C456.8,87.22 508.4048,69.187 544.8948,58.907" fill="none" id="Trigger-to-Tabla" style="stroke:#181818;stroke-width:1;"/><polygon fill="#181818" points="550.67,57.28,540.9225,55.8704,545.8573,58.6358,543.0919,63.5706,550.67,57.28" style="stroke:#181818;stroke-width:1;"/><text fill="#000000" font-family="sans-serif" font-size="13" lengthAdjust="spacing" textLength="36.4165" x="416" y="131.0669">act&#250;a</text></g><!--reverse link Tabla to Restriccion--><g class="link" data-entity-1="Tabla" data-entity-2="Restriccion" data-source-line="77" data-uid="lnk25" id="link_Tabla_Restriccion"><path codeLine="77" d="M632.5491,65.2367 C702.9491,90.8067 844.12,143.96 858,165 C937.85,286.07 869.27,472.6 836.79,545.9" fill="none" id="Tabla-backto-Restriccion" style="stroke:#181818;stroke-width:1;"/><polygon fill="#181818" points="621.27,61.14,625.544,66.948,632.5491,65.2367,628.2751,59.4286,621.27,61.14" style="stroke:#181818;stroke-width:1;"/><text fill="#000000" font-family="sans-serif" font-size="13" lengthAdjust="spacing" textLength="32.9443" x="897" y="289.0669">tiene</text><text fill="#000000" font-family="sans-serif" font-size="13" lengthAdjust="spacing" textLength="8.271" x="629.3472" y="59.4564">1</text><text fill="#000000" font-family="sans-serif" font-size="13" lengthAdjust="spacing" textLength="36.5625" x="843.5602" y="534.7825">many</text></g><!--reverse link Tabla to Consulta--><g class="link" data-entity-1="Tabla" data-entity-2="Consulta" data-source-line="78" data-uid="lnk27" id="link_Tabla_Consulta"><path codeLine="78" d="M627.39,47.5 C654.63,47.5 686.52,47.5 716.25,47.5" fill="none" id="Tabla-backto-Consulta" style="stroke:#181818;stroke-width:1;"/><polygon fill="#181818" points="621.39,47.5,630.39,51.5,626.39,47.5,630.39,43.5,621.39,47.5" style="stroke:#181818;stroke-width:1;"/><text fill="#000000" font-family="sans-serif" font-size="13" lengthAdjust="spacing" textLength="48.0581" x="644.75" y="40.5669">ejecuta</text></g><!--reverse link Consulta to Usuario--><g class="link" data-entity-1="Consulta" data-entity-2="Usuario" data-source-line="79" data-uid="lnk29" id="link_Consulta_Usuario"><path codeLine="79" d="M815.61,47.5 C843.05,47.5 871.6,47.5 898.8,47.5" fill="none" id="Consulta-backto-Usuario" style="stroke:#181818;stroke-width:1;"/><polygon fill="#181818" points="809.61,47.5,818.61,51.5,814.61,47.5,818.61,43.5,809.61,47.5" style="stroke:#181818;stroke-width:1;"/><text fill="#000000" font-family="sans-serif" font-size="13" lengthAdjust="spacing" textLength="48.0581" x="830.25" y="40.5669">ejecuta</text></g><!--reverse link Usuario to Rol--><g class="link" data-entity-1="Usuario" data-entity-2="Rol" data-source-line="80" data-uid="lnk30" id="link_Usuario_Rol"><path codeLine="80" d="M959.4421,99.7597 C967.4121,126.2097 974.27,148.96 981.63,173.41" fill="none" id="Usuario-backto-Rol" style="stroke:#181818;stroke-width:1;"/><polygon fill="#181818" points="955.98,88.27,953.8812,95.1689,959.4421,99.7597,961.541,92.8608,955.98,88.27" style="stroke:#181818;stroke-width:1;"/><text fill="#000000" font-family="sans-serif" font-size="13" lengthAdjust="spacing" textLength="32.9443" x="970" y="131.0669">tiene</text><text fill="#000000" font-family="sans-serif" font-size="13" lengthAdjust="spacing" textLength="36.5625" x="919.0768" y="107.7695">many</text><text fill="#000000" font-family="sans-serif" font-size="13" lengthAdjust="spacing" textLength="8.271" x="970.8661" y="162.2945">1</text></g><!--reverse link Rol to Permiso--><g class="link" data-entity-1="Rol" data-entity-2="Permiso" data-source-line="81" data-uid="lnk31" id="link_Rol_Permiso"><path codeLine="81" d="M993.8942,249.703 C995.8542,278.883 997.96,310.24 999.91,339.38" fill="none" id="Rol-backto-Permiso" style="stroke:#181818;stroke-width:1;"/><polygon fill="#181818" points="993.09,237.73,989.5011,243.9846,993.8942,249.703,997.4831,243.4484,993.09,237.73" style="stroke:#181818;stroke-width:1;"/><text fill="#000000" font-family="sans-serif" font-size="13" lengthAdjust="spacing" textLength="32.9443" x="998" y="289.0669">tiene</text><text fill="#000000" font-family="sans-serif" font-size="13" lengthAdjust="spacing" textLength="36.5625" x="953.8323" y="257.9743">many</text><text fill="#000000" font-family="sans-serif" font-size="13" lengthAdjust="spacing" textLength="36.5625" x="959.804" y="328.2584">many</text></g><!--link Permiso to TipoCapacidadPermiso--><g class="link" data-entity-1="Permiso" data-entity-2="TipoCapacidadPermiso" data-source-line="82" data-uid="lnk32" id="link_Permiso_TipoCapacidadPermiso"><path codeLine="82" d="M1002.91,403.56 C1003.64,428.36 1004.69,464.27 1005.65,496.98" fill="none" id="Permiso-TipoCapacidadPermiso" style="stroke:#181818;stroke-width:1;stroke-dasharray:7,7;"/></g><!--link Trigger to TipoMomentoActivaci?n--><g class="link" data-entity-1="Trigger" data-entity-2="TipoMomentoActivaci.n" data-source-line="83" data-uid="lnk33" id="link_Trigger_TipoMomentoActivaci.n"><path codeLine="83" d="M286.63,246.2 C249.5,271.89 201.35,305.21 164.25,330.88" fill="none" id="Trigger-TipoMomentoActivaci&#243;n" style="stroke:#181818;stroke-width:1;stroke-dasharray:7,7;"/></g><!--link Trigger to TipoEventoActivaci?n--><g class="link" data-entity-1="Trigger" data-entity-2="TipoEventoActivaci.n" data-source-line="84" data-uid="lnk34" id="link_Trigger_TipoEventoActivaci.n"><path codeLine="84" d="M341.58,246.2 C340.17,269.33 338.38,298.64 336.9,323" fill="none" id="Trigger-TipoEventoActivaci&#243;n" style="stroke:#181818;stroke-width:1;stroke-dasharray:7,7;"/></g><!--link Llave to TipoLlave--><g class="link" data-entity-1="Llave" data-entity-2="TipoLlave" data-source-line="85" data-uid="lnk35" id="link_Llave_TipoLlave"><path codeLine="85" d="M524,610.14 C524,644.12 524,698.61 524,735.68" fill="none" id="Llave-TipoLlave" style="stroke:#181818;stroke-width:1;stroke-dasharray:7,7;"/></g><!--link Campo to TipoCampo--><g class="link" data-entity-1="Campo" data-entity-2="TipoCampo" data-source-line="86" data-uid="lnk36" id="link_Campo_TipoCampo"><path codeLine="86" d="M681.83,412.42 C680.92,443.45 679.64,486.87 678.63,521.33" fill="none" id="Campo-TipoCampo" style="stroke:#181818;stroke-width:1;stroke-dasharray:7,7;"/></g><!--reverse link Esquema to Campo--><g class="link" data-entity-1="Esquema" data-entity-2="Campo" data-source-line="87" data-uid="lnk37" id="link_Esquema_Campo"><path codeLine="87" d="M683,241.65 C683,267.87 683,299.07 683,330.72" fill="none" id="Esquema-backto-Campo" style="stroke:#181818;stroke-width:1;"/><polygon fill="#181818" points="683,229.65,679,235.65,683,241.65,687,235.65,683,229.65" style="stroke:#181818;stroke-width:1;"/><text fill="#000000" font-family="sans-serif" font-size="13" lengthAdjust="spacing" textLength="56.2847" x="684" y="289.0669">contiene</text><text fill="#000000" font-family="sans-serif" font-size="13" lengthAdjust="spacing" textLength="8.271" x="674.091" y="249.4478">1</text><text fill="#000000" font-family="sans-serif" font-size="13" lengthAdjust="spacing" textLength="36.5625" x="644.0285" y="319.8352">many</text></g><!--link Trigger to Esquema--><g class="link" data-entity-1="Trigger" data-entity-2="Esquema" data-source-line="89" data-uid="lnk38" id="link_Trigger_Esquema"><path codeLine="89" d="M402.23,164.97 C454.62,133.79 533.28,100.14 599.5,126.5 C627.13,137.5 650.88,162.46 665.91,181.4" fill="none" id="Trigger-Esquema" style="stroke:#FFFFFF;stroke-width:1;"/></g><!--link Vista to Esquema--><g class="link" data-entity-1="Vista" data-entity-2="Esquema" data-source-line="90" data-uid="lnk40" id="link_Vista_Esquema"><path codeLine="90" d="M599.82,205.5 C611.3,205.5 622.78,205.5 634.26,205.5" fill="none" id="Vista-Esquema" style="stroke:#FFFFFF;stroke-width:1;"/></g><!--reverse link Campo to Restriccion--><g class="link" data-entity-1="Campo" data-entity-2="Restriccion" data-source-line="92" data-uid="lnk41" id="link_Campo_Restriccion"><path codeLine="92" d="M716.877,422.3436 C743.427,461.3936 776.56,510.15 800.84,545.87" fill="none" id="Campo-backto-Restriccion" style="stroke:#181818;stroke-width:1;"/><polygon fill="none" points="710.13,412.42,710.1956,419.6308,716.877,422.3436,716.8114,415.1328,710.13,412.42" style="stroke:#181818;stroke-width:1;"/><text fill="#000000" font-family="sans-serif" font-size="13" lengthAdjust="spacing" textLength="32.9443" x="746" y="463.0669">tiene</text><text fill="#000000" font-family="sans-serif" font-size="13" lengthAdjust="spacing" textLength="8.271" x="705.5145" y="431.6382">1</text><text fill="#000000" font-family="sans-serif" font-size="13" lengthAdjust="spacing" textLength="36.5625" x="756.7705" y="534.7463">many</text></g><!--link Campo to Llave--><g class="link" data-entity-1="Campo" data-entity-2="Llave" data-source-line="93" data-uid="lnk42" id="link_Campo_Llave"><path codeLine="93" d="M642.37,410.93 C630.46,422.98 617.75,436.64 607,450 C582.16,480.89 557.84,519.36 542.01,545.81" fill="none" id="Campo-Llave" style="stroke:#181818;stroke-width:1;"/><text fill="#000000" font-family="sans-serif" font-size="13" lengthAdjust="spacing" textLength="64.9873" x="608" y="463.0669">puede ser</text></g><!--reverse link Indice to Campo--><g class="link" data-entity-1="Indice" data-entity-2="Campo" data-source-line="95" data-uid="lnk44" id="link_Indice_Campo"><path codeLine="95" d="M784.1961,240.1299 C773.5461,257.8799 764.22,272.38 749,293 C739.66,305.65 728.84,318.88 718.69,330.74" fill="none" id="Indice-backto-Campo" style="stroke:#181818;stroke-width:1;"/><polygon fill="#181818" points="790.37,229.84,783.8531,232.927,784.1961,240.1299,790.713,237.0429,790.37,229.84" style="stroke:#181818;stroke-width:1;"/><text fill="#000000" font-family="sans-serif" font-size="13" lengthAdjust="spacing" textLength="32.9443" x="762" y="289.0669">tiene</text><text fill="#000000" font-family="sans-serif" font-size="13" lengthAdjust="spacing" textLength="36.5625" x="746.7179" y="249.6841">many</text><text fill="#000000" font-family="sans-serif" font-size="13" lengthAdjust="spacing" textLength="8.271" x="715.9243" y="319.8585">1</text></g><!--link Trigger to Vista--><g class="link" data-entity-1="Trigger" data-entity-2="Vista" data-source-line="96" data-uid="lnk45" id="link_Trigger_Vista"><path codeLine="96" d="M421.64,205.5 C459.53,205.5 497.13,205.5 526.41,205.5" fill="none" id="Trigger-to-Vista" style="stroke:#181818;stroke-width:1;"/><polygon fill="#181818" points="532.41,205.5,523.41,201.5,527.41,205.5,523.41,209.5,532.41,205.5" style="stroke:#181818;stroke-width:1;"/><text fill="#000000" font-family="sans-serif" font-size="13" lengthAdjust="spacing" textLength="36.4165" x="459" y="198.5669">act&#250;a</text></g><!--link Restriccion to TipoRestriccion--><g class="link" data-entity-1="Restriccion" data-entity-2="TipoRestriccion" data-source-line="97" data-uid="lnk46" id="link_Restriccion_TipoRestriccion"><path codeLine="97" d="M822,610.14 C822,639.57 822,684.4 822,719.96" fill="none" id="Restriccion-TipoRestriccion" style="stroke:#181818;stroke-width:1;stroke-dasharray:7,7;"/></g><!--SRC=[VLIzRjim4DxlAGXdAo03NJC4K1qQDQhQhY9rAJemz2LX894gHRajZ3vC7w7ebjKl5beYQSOoh4Mw-xxxlnElMDkIWjrNR0TIrVSQuG_mNljLjCPglJXJiksgWmPb9xbW6nMmiksO5Yguu4eQpLhS_sE1awjg56ADkXQjjUEiOLnisCP2rdrD2j6ecLS6sXtDwAo0nVAEvWMKwzkqe71hbVOrosalvQirf5b1yn0bgzWMTs2iozYzKpTQr3Pv1WzAx_zAF6PCsnyTrb4B2YqU7r7R3cnH6aKODs9hKzp_br2hUgIBWj7U8Zs2k_DLH2QV1uzlR3xG-IgdaCxZ-XPo8pX6as9rSvp5QTaEDVZBA93xbngrWWVaJmocq-bnNDWQBJWNIevRzmPShWgoBBCCokNYIsa7yP7EFjbwvccP5TOA-lKYa_SJyYv9-hVhBBacHg34KqRDvE_9i7-NAVq8BrE6vbpckBbU9aKrUo8vzu0_599KoSrmMzO0dv5tXe4xbG4Cr37kelgEsUi9wHs-OtZuT4SIM5wUJiyU4_YY7JxUjbF6Q8LXQB-3Um7wxJh6j0BuOP_qSs1UayE_ea_OnqlqjwkVJyBWTxydtaLI1QHV3d3X3fxLnKavekNubMawt21fKOSoasXQzehtBmpSyfpCmcVkbiMRtuIDTTPn7guZaUeL]--></g></svg>