<svg xmlns="http://www.w3.org/2000/svg" xmlns:xlink="http://www.w3.org/1999/xlink" contentStyleType="text/css" data-diagram-type="CLASS" height="1024px" preserveAspectRatio="none" style="width:946px;height:1024px;background:#FFFFFF;" version="1.1" viewBox="0 0 946 1024" width="946px" zoomAndPan="magnify"><defs/><g><!--class Tabla--><g class="entity" data-entity="Tabla" data-source-line="1" data-uid="ent0002" id="entity_Tabla"><rect fill="#F1F1F1" height="64.2969" rx="2.5" ry="2.5" style="stroke:#181818;stroke-width:0.5;" width="70.4863" x="539.5" y="290"/><ellipse cx="554.5" cy="306" fill="#ADD1B2" rx="11" ry="11" style="stroke:#181818;stroke-width:1;"/><path d="M557.4688,311.6406 Q556.8906,311.9375 556.25,312.0781 Q555.6094,312.2344 554.9063,312.2344 Q552.4063,312.2344 551.0781,310.5938 Q549.7656,308.9375 549.7656,305.8125 Q549.7656,302.6875 551.0781,301.0313 Q552.4063,299.375 554.9063,299.375 Q555.6094,299.375 556.25,299.5313 Q556.9063,299.6875 557.4688,299.9844 L557.4688,302.7031 Q556.8438,302.125 556.25,301.8594 Q555.6563,301.5781 555.0313,301.5781 Q553.6875,301.5781 553,302.6563 Q552.3125,303.7188 552.3125,305.8125 Q552.3125,307.9063 553,308.9844 Q553.6875,310.0469 555.0313,310.0469 Q555.6563,310.0469 556.25,309.7813 Q556.8438,309.5 557.4688,308.9219 L557.4688,311.6406 Z " fill="#000000"/><text fill="#000000" font-family="sans-serif" font-size="14" lengthAdjust="spacing" textLength="38.4863" x="568.5" y="310.8467">Tabla</text><line style="stroke:#181818;stroke-width:0.5;" x1="540.5" x2="608.9863" y1="322" y2="322"/><text fill="#000000" font-family="sans-serif" font-size="14" lengthAdjust="spacing" textLength="54.332" x="545.5" y="338.9951">nombre</text><line style="stroke:#181818;stroke-width:0.5;" x1="540.5" x2="608.9863" y1="346.2969" y2="346.2969"/></g><!--class Vista--><g class="entity" data-entity="Vista" data-source-line="4" data-uid="ent0003" id="entity_Vista"><rect fill="#F1F1F1" height="48" rx="2.5" ry="2.5" style="stroke:#181818;stroke-width:0.5;" width="66.8291" x="7" y="613.5"/><ellipse cx="22" cy="629.5" fill="#ADD1B2" rx="11" ry="11" style="stroke:#181818;stroke-width:1;"/><path d="M24.9688,635.1406 Q24.3906,635.4375 23.75,635.5781 Q23.1094,635.7344 22.4063,635.7344 Q19.9063,635.7344 18.5781,634.0938 Q17.2656,632.4375 17.2656,629.3125 Q17.2656,626.1875 18.5781,624.5313 Q19.9063,622.875 22.4063,622.875 Q23.1094,622.875 23.75,623.0313 Q24.4063,623.1875 24.9688,623.4844 L24.9688,626.2031 Q24.3438,625.625 23.75,625.3594 Q23.1563,625.0781 22.5313,625.0781 Q21.1875,625.0781 20.5,626.1563 Q19.8125,627.2188 19.8125,629.3125 Q19.8125,631.4063 20.5,632.4844 Q21.1875,633.5469 22.5313,633.5469 Q23.1563,633.5469 23.75,633.2813 Q24.3438,633 24.9688,632.4219 L24.9688,635.1406 Z " fill="#000000"/><text fill="#000000" font-family="sans-serif" font-size="14" lengthAdjust="spacing" textLength="34.8291" x="36" y="634.3467">Vista</text><line style="stroke:#181818;stroke-width:0.5;" x1="8" x2="72.8291" y1="645.5" y2="645.5"/><line style="stroke:#181818;stroke-width:0.5;" x1="8" x2="72.8291" y1="653.5" y2="653.5"/></g><!--class Consulta--><g class="entity" data-entity="Consulta" data-source-line="6" data-uid="ent0004" id="entity_Consulta"><rect fill="#F1F1F1" height="48" rx="2.5" ry="2.5" style="stroke:#181818;stroke-width:0.5;" width="93.3389" x="531" y="165"/><ellipse cx="546" cy="181" fill="#ADD1B2" rx="11" ry="11" style="stroke:#181818;stroke-width:1;"/><path d="M548.9688,186.6406 Q548.3906,186.9375 547.75,187.0781 Q547.1094,187.2344 546.4063,187.2344 Q543.9063,187.2344 542.5781,185.5938 Q541.2656,183.9375 541.2656,180.8125 Q541.2656,177.6875 542.5781,176.0313 Q543.9063,174.375 546.4063,174.375 Q547.1094,174.375 547.75,174.5313 Q548.4063,174.6875 548.9688,174.9844 L548.9688,177.7031 Q548.3438,177.125 547.75,176.8594 Q547.1563,176.5781 546.5313,176.5781 Q545.1875,176.5781 544.5,177.6563 Q543.8125,178.7188 543.8125,180.8125 Q543.8125,182.9063 544.5,183.9844 Q545.1875,185.0469 546.5313,185.0469 Q547.1563,185.0469 547.75,184.7813 Q548.3438,184.5 548.9688,183.9219 L548.9688,186.6406 Z " fill="#000000"/><text fill="#000000" font-family="sans-serif" font-size="14" lengthAdjust="spacing" textLength="61.3389" x="560" y="185.8467">Consulta</text><line style="stroke:#181818;stroke-width:0.5;" x1="532" x2="623.3389" y1="197" y2="197"/><line style="stroke:#181818;stroke-width:0.5;" x1="532" x2="623.3389" y1="205" y2="205"/></g><!--class Usuario--><g class="entity" data-entity="Usuario" data-source-line="8" data-uid="ent0005" id="entity_Usuario"><rect fill="#F1F1F1" height="80.5938" rx="2.5" ry="2.5" style="stroke:#181818;stroke-width:0.5;" width="90.3193" x="586.5" y="7"/><ellipse cx="603.8019" cy="23" fill="#ADD1B2" rx="11" ry="11" style="stroke:#181818;stroke-width:1;"/><path d="M606.7706,28.6406 Q606.1925,28.9375 605.5519,29.0781 Q604.9112,29.2344 604.2081,29.2344 Q601.7081,29.2344 600.38,27.5938 Q599.0675,25.9375 599.0675,22.8125 Q599.0675,19.6875 600.38,18.0313 Q601.7081,16.375 604.2081,16.375 Q604.9112,16.375 605.5519,16.5313 Q606.2081,16.6875 606.7706,16.9844 L606.7706,19.7031 Q606.1456,19.125 605.5519,18.8594 Q604.9581,18.5781 604.3331,18.5781 Q602.9894,18.5781 602.3019,19.6563 Q601.6144,20.7188 601.6144,22.8125 Q601.6144,24.9063 602.3019,25.9844 Q602.9894,27.0469 604.3331,27.0469 Q604.9581,27.0469 605.5519,26.7813 Q606.1456,26.5 606.7706,25.9219 L606.7706,28.6406 Z " fill="#000000"/><text fill="#000000" font-family="sans-serif" font-size="14" lengthAdjust="spacing" textLength="53.2041" x="618.3134" y="27.8467">Usuario</text><line style="stroke:#181818;stroke-width:0.5;" x1="587.5" x2="675.8193" y1="39" y2="39"/><text fill="#000000" font-family="sans-serif" font-size="14" lengthAdjust="spacing" textLength="54.332" x="592.5" y="55.9951">nombre</text><text fill="#000000" font-family="sans-serif" font-size="14" lengthAdjust="spacing" textLength="78.3193" x="592.5" y="72.292">contrase&#241;a</text><line style="stroke:#181818;stroke-width:0.5;" x1="587.5" x2="675.8193" y1="79.5938" y2="79.5938"/></g><!--class Rol--><g class="entity" data-entity="Rol" data-source-line="12" data-uid="ent0006" id="entity_Rol"><rect fill="#F1F1F1" height="48" rx="2.5" ry="2.5" style="stroke:#181818;stroke-width:0.5;" width="54.1826" x="660.5" y="165"/><ellipse cx="675.5" cy="181" fill="#ADD1B2" rx="11" ry="11" style="stroke:#181818;stroke-width:1;"/><path d="M678.4688,186.6406 Q677.8906,186.9375 677.25,187.0781 Q676.6094,187.2344 675.9063,187.2344 Q673.4063,187.2344 672.0781,185.5938 Q670.7656,183.9375 670.7656,180.8125 Q670.7656,177.6875 672.0781,176.0313 Q673.4063,174.375 675.9063,174.375 Q676.6094,174.375 677.25,174.5313 Q677.9063,174.6875 678.4688,174.9844 L678.4688,177.7031 Q677.8438,177.125 677.25,176.8594 Q676.6563,176.5781 676.0313,176.5781 Q674.6875,176.5781 674,177.6563 Q673.3125,178.7188 673.3125,180.8125 Q673.3125,182.9063 674,183.9844 Q674.6875,185.0469 676.0313,185.0469 Q676.6563,185.0469 677.25,184.7813 Q677.8438,184.5 678.4688,183.9219 L678.4688,186.6406 Z " fill="#000000"/><text fill="#000000" font-family="sans-serif" font-size="14" lengthAdjust="spacing" textLength="22.1826" x="689.5" y="185.8467">Rol</text><line style="stroke:#181818;stroke-width:0.5;" x1="661.5" x2="713.6826" y1="197" y2="197"/><line style="stroke:#181818;stroke-width:0.5;" x1="661.5" x2="713.6826" y1="205" y2="205"/></g><!--class Permiso--><g class="entity" data-entity="Permiso" data-source-line="14" data-uid="ent0007" id="entity_Permiso"><rect fill="#F1F1F1" height="48" rx="2.5" ry="2.5" style="stroke:#181818;stroke-width:0.5;" width="88.1982" x="644.5" y="298"/><ellipse cx="659.5" cy="314" fill="#ADD1B2" rx="11" ry="11" style="stroke:#181818;stroke-width:1;"/><path d="M662.4688,319.6406 Q661.8906,319.9375 661.25,320.0781 Q660.6094,320.2344 659.9063,320.2344 Q657.4063,320.2344 656.0781,318.5938 Q654.7656,316.9375 654.7656,313.8125 Q654.7656,310.6875 656.0781,309.0313 Q657.4063,307.375 659.9063,307.375 Q660.6094,307.375 661.25,307.5313 Q661.9063,307.6875 662.4688,307.9844 L662.4688,310.7031 Q661.8438,310.125 661.25,309.8594 Q660.6563,309.5781 660.0313,309.5781 Q658.6875,309.5781 658,310.6563 Q657.3125,311.7188 657.3125,313.8125 Q657.3125,315.9063 658,316.9844 Q658.6875,318.0469 660.0313,318.0469 Q660.6563,318.0469 661.25,317.7813 Q661.8438,317.5 662.4688,316.9219 L662.4688,319.6406 Z " fill="#000000"/><text fill="#000000" font-family="sans-serif" font-size="14" lengthAdjust="spacing" textLength="56.1982" x="673.5" y="318.8467">Permiso</text><line style="stroke:#181818;stroke-width:0.5;" x1="645.5" x2="731.6982" y1="330" y2="330"/><line style="stroke:#181818;stroke-width:0.5;" x1="645.5" x2="731.6982" y1="338" y2="338"/></g><!--class Llave--><g class="entity" data-entity="Llave" data-source-line="16" data-uid="ent0008" id="entity_Llave"><rect fill="#F1F1F1" height="48" rx="2.5" ry="2.5" style="stroke:#181818;stroke-width:0.5;" width="69.167" x="560" y="795.5"/><ellipse cx="575" cy="811.5" fill="#ADD1B2" rx="11" ry="11" style="stroke:#181818;stroke-width:1;"/><path d="M577.9688,817.1406 Q577.3906,817.4375 576.75,817.5781 Q576.1094,817.7344 575.4063,817.7344 Q572.9063,817.7344 571.5781,816.0938 Q570.2656,814.4375 570.2656,811.3125 Q570.2656,808.1875 571.5781,806.5313 Q572.9063,804.875 575.4063,804.875 Q576.1094,804.875 576.75,805.0313 Q577.4063,805.1875 577.9688,805.4844 L577.9688,808.2031 Q577.3438,807.625 576.75,807.3594 Q576.1563,807.0781 575.5313,807.0781 Q574.1875,807.0781 573.5,808.1563 Q572.8125,809.2188 572.8125,811.3125 Q572.8125,813.4063 573.5,814.4844 Q574.1875,815.5469 575.5313,815.5469 Q576.1563,815.5469 576.75,815.2813 Q577.3438,815 577.9688,814.4219 L577.9688,817.1406 Z " fill="#000000"/><text fill="#000000" font-family="sans-serif" font-size="14" lengthAdjust="spacing" textLength="37.167" x="589" y="816.3467">Llave</text><line style="stroke:#181818;stroke-width:0.5;" x1="561" x2="628.167" y1="827.5" y2="827.5"/><line style="stroke:#181818;stroke-width:0.5;" x1="561" x2="628.167" y1="835.5" y2="835.5"/></g><!--class TipoLlave--><g class="entity" data-entity="TipoLlave" data-source-line="18" data-uid="ent0009" id="entity_TipoLlave"><rect fill="#F1F1F1" height="80.5938" rx="2.5" ry="2.5" style="stroke:#181818;stroke-width:0.5;" width="99.0605" x="545" y="937"/><ellipse cx="560" cy="953" fill="#EB937F" rx="11" ry="11" style="stroke:#181818;stroke-width:1;"/><path d="M564.1094,959 L556.3906,959 L556.3906,946.6094 L564.1094,946.6094 L564.1094,948.7656 L558.8438,948.7656 L558.8438,951.4375 L563.6094,951.4375 L563.6094,953.5938 L558.8438,953.5938 L558.8438,956.8438 L564.1094,956.8438 L564.1094,959 Z " fill="#000000"/><text fill="#000000" font-family="sans-serif" font-size="14" lengthAdjust="spacing" textLength="67.0605" x="574" y="957.8467">TipoLlave</text><line style="stroke:#181818;stroke-width:0.5;" x1="546" x2="643.0605" y1="969" y2="969"/><text fill="#000000" font-family="sans-serif" font-size="14" lengthAdjust="spacing" textLength="58.9736" x="551" y="985.9951">primaria</text><text fill="#000000" font-family="sans-serif" font-size="14" lengthAdjust="spacing" textLength="53.8945" x="551" y="1002.292">for&#225;nea</text><line style="stroke:#181818;stroke-width:0.5;" x1="546" x2="643.0605" y1="1009.5938" y2="1009.5938"/></g><!--class Esquema--><g class="entity" data-entity="Esquema" data-source-line="22" data-uid="ent0010" id="entity_Esquema"><rect fill="#F1F1F1" height="48" rx="2.5" ry="2.5" style="stroke:#181818;stroke-width:0.5;" width="96.7295" x="628" y="447.5"/><ellipse cx="643" cy="463.5" fill="#ADD1B2" rx="11" ry="11" style="stroke:#181818;stroke-width:1;"/><path d="M645.9688,469.1406 Q645.3906,469.4375 644.75,469.5781 Q644.1094,469.7344 643.4063,469.7344 Q640.9063,469.7344 639.5781,468.0938 Q638.2656,466.4375 638.2656,463.3125 Q638.2656,460.1875 639.5781,458.5313 Q640.9063,456.875 643.4063,456.875 Q644.1094,456.875 644.75,457.0313 Q645.4063,457.1875 645.9688,457.4844 L645.9688,460.2031 Q645.3438,459.625 644.75,459.3594 Q644.1563,459.0781 643.5313,459.0781 Q642.1875,459.0781 641.5,460.1563 Q640.8125,461.2188 640.8125,463.3125 Q640.8125,465.4063 641.5,466.4844 Q642.1875,467.5469 643.5313,467.5469 Q644.1563,467.5469 644.75,467.2813 Q645.3438,467 645.9688,466.4219 L645.9688,469.1406 Z " fill="#000000"/><text fill="#000000" font-family="sans-serif" font-size="14" lengthAdjust="spacing" textLength="64.7295" x="657" y="468.3467">Esquema</text><line style="stroke:#181818;stroke-width:0.5;" x1="629" x2="723.7295" y1="479.5" y2="479.5"/><line style="stroke:#181818;stroke-width:0.5;" x1="629" x2="723.7295" y1="487.5" y2="487.5"/></g><!--class Trigger--><g class="entity" data-entity="Trigger" data-source-line="24" data-uid="ent0011" id="entity_Trigger"><rect fill="#F1F1F1" height="80.5938" rx="2.5" ry="2.5" style="stroke:#181818;stroke-width:0.5;" width="155.377" x="350" y="431"/><ellipse cx="398.2686" cy="447" fill="#ADD1B2" rx="11" ry="11" style="stroke:#181818;stroke-width:1;"/><path d="M401.2373,452.6406 Q400.6592,452.9375 400.0186,453.0781 Q399.3779,453.2344 398.6748,453.2344 Q396.1748,453.2344 394.8467,451.5938 Q393.5342,449.9375 393.5342,446.8125 Q393.5342,443.6875 394.8467,442.0313 Q396.1748,440.375 398.6748,440.375 Q399.3779,440.375 400.0186,440.5313 Q400.6748,440.6875 401.2373,440.9844 L401.2373,443.7031 Q400.6123,443.125 400.0186,442.8594 Q399.4248,442.5781 398.7998,442.5781 Q397.4561,442.5781 396.7686,443.6563 Q396.0811,444.7188 396.0811,446.8125 Q396.0811,448.9063 396.7686,449.9844 Q397.4561,451.0469 398.7998,451.0469 Q399.4248,451.0469 400.0186,450.7813 Q400.6123,450.5 401.2373,449.9219 L401.2373,452.6406 Z " fill="#000000"/><text fill="#000000" font-family="sans-serif" font-size="14" lengthAdjust="spacing" textLength="50.3398" x="418.7686" y="451.8467">Trigger</text><line style="stroke:#181818;stroke-width:0.5;" x1="351" x2="504.377" y1="463" y2="463"/><text fill="#000000" font-family="sans-serif" font-size="14" lengthAdjust="spacing" textLength="124.4346" x="356" y="479.9951">evento activaci&#243;n</text><text fill="#000000" font-family="sans-serif" font-size="14" lengthAdjust="spacing" textLength="143.377" x="356" y="496.292">momento activaci&#243;n</text><line style="stroke:#181818;stroke-width:0.5;" x1="351" x2="504.377" y1="503.5938" y2="503.5938"/></g><!--class TipoEventoActivaci?n--><g class="entity" data-entity="TipoEventoActivaci.n" data-source-line="28" data-uid="ent0012" id="entity_TipoEventoActivaci.n"><rect fill="#F1F1F1" height="96.8906" rx="2.5" ry="2.5" style="stroke:#181818;stroke-width:0.5;" width="183.1084" x="109" y="589"/><ellipse cx="124" cy="605" fill="#EB937F" rx="11" ry="11" style="stroke:#181818;stroke-width:1;"/><path d="M128.1094,611 L120.3906,611 L120.3906,598.6094 L128.1094,598.6094 L128.1094,600.7656 L122.8438,600.7656 L122.8438,603.4375 L127.6094,603.4375 L127.6094,605.5938 L122.8438,605.5938 L122.8438,608.8438 L128.1094,608.8438 L128.1094,611 Z " fill="#000000"/><text fill="#000000" font-family="sans-serif" font-size="14" lengthAdjust="spacing" textLength="151.1084" x="138" y="609.8467">TipoEventoActivaci&#243;n</text><line style="stroke:#181818;stroke-width:0.5;" x1="110" x2="291.1084" y1="621" y2="621"/><text fill="#000000" font-family="sans-serif" font-size="14" lengthAdjust="spacing" textLength="50.6133" x="115" y="637.9951">INSERT</text><text fill="#000000" font-family="sans-serif" font-size="14" lengthAdjust="spacing" textLength="56.4443" x="115" y="654.292">UPDATE</text><text fill="#000000" font-family="sans-serif" font-size="14" lengthAdjust="spacing" textLength="53.6689" x="115" y="670.5889">DELETE</text><line style="stroke:#181818;stroke-width:0.5;" x1="110" x2="291.1084" y1="677.8906" y2="677.8906"/></g><!--class TipoMomentoActivaci?n--><g class="entity" data-entity="TipoMomentoActivaci.n" data-source-line="33" data-uid="ent0013" id="entity_TipoMomentoActivaci.n"><rect fill="#F1F1F1" height="80.5938" rx="2.5" ry="2.5" style="stroke:#181818;stroke-width:0.5;" width="200.2598" x="327.5" y="597"/><ellipse cx="342.5" cy="613" fill="#EB937F" rx="11" ry="11" style="stroke:#181818;stroke-width:1;"/><path d="M346.6094,619 L338.8906,619 L338.8906,606.6094 L346.6094,606.6094 L346.6094,608.7656 L341.3438,608.7656 L341.3438,611.4375 L346.1094,611.4375 L346.1094,613.5938 L341.3438,613.5938 L341.3438,616.8438 L346.6094,616.8438 L346.6094,619 Z " fill="#000000"/><text fill="#000000" font-family="sans-serif" font-size="14" lengthAdjust="spacing" textLength="168.2598" x="356.5" y="617.8467">TipoMomentoActivaci&#243;n</text><line style="stroke:#181818;stroke-width:0.5;" x1="328.5" x2="526.7598" y1="629" y2="629"/><text fill="#000000" font-family="sans-serif" font-size="14" lengthAdjust="spacing" textLength="56.0957" x="333.5" y="645.9951">BEFORE</text><text fill="#000000" font-family="sans-serif" font-size="14" lengthAdjust="spacing" textLength="44.7549" x="333.5" y="662.292">AFTER</text><line style="stroke:#181818;stroke-width:0.5;" x1="328.5" x2="526.7598" y1="669.5938" y2="669.5938"/></g><!--class Indice--><g class="entity" data-entity="Indice" data-source-line="37" data-uid="ent0014" id="entity_Indice"><rect fill="#F1F1F1" height="48" rx="2.5" ry="2.5" style="stroke:#181818;stroke-width:0.5;" width="74.0889" x="760.5" y="447.5"/><ellipse cx="775.5" cy="463.5" fill="#ADD1B2" rx="11" ry="11" style="stroke:#181818;stroke-width:1;"/><path d="M778.4688,469.1406 Q777.8906,469.4375 777.25,469.5781 Q776.6094,469.7344 775.9063,469.7344 Q773.4063,469.7344 772.0781,468.0938 Q770.7656,466.4375 770.7656,463.3125 Q770.7656,460.1875 772.0781,458.5313 Q773.4063,456.875 775.9063,456.875 Q776.6094,456.875 777.25,457.0313 Q777.9063,457.1875 778.4688,457.4844 L778.4688,460.2031 Q777.8438,459.625 777.25,459.3594 Q776.6563,459.0781 776.0313,459.0781 Q774.6875,459.0781 774,460.1563 Q773.3125,461.2188 773.3125,463.3125 Q773.3125,465.4063 774,466.4844 Q774.6875,467.5469 776.0313,467.5469 Q776.6563,467.5469 777.25,467.2813 Q777.8438,467 778.4688,466.4219 L778.4688,469.1406 Z " fill="#000000"/><text fill="#000000" font-family="sans-serif" font-size="14" lengthAdjust="spacing" textLength="42.0889" x="789.5" y="468.3467">Indice</text><line style="stroke:#181818;stroke-width:0.5;" x1="761.5" x2="833.5889" y1="479.5" y2="479.5"/><line style="stroke:#181818;stroke-width:0.5;" x1="761.5" x2="833.5889" y1="487.5" y2="487.5"/></g><!--class Campo--><g class="entity" data-entity="Campo" data-source-line="39" data-uid="ent0015" id="entity_Campo"><rect fill="#F1F1F1" height="48" rx="2.5" ry="2.5" style="stroke:#181818;stroke-width:0.5;" width="81.4443" x="696" y="613.5"/><ellipse cx="711" cy="629.5" fill="#ADD1B2" rx="11" ry="11" style="stroke:#181818;stroke-width:1;"/><path d="M713.9688,635.1406 Q713.3906,635.4375 712.75,635.5781 Q712.1094,635.7344 711.4063,635.7344 Q708.9063,635.7344 707.5781,634.0938 Q706.2656,632.4375 706.2656,629.3125 Q706.2656,626.1875 707.5781,624.5313 Q708.9063,622.875 711.4063,622.875 Q712.1094,622.875 712.75,623.0313 Q713.4063,623.1875 713.9688,623.4844 L713.9688,626.2031 Q713.3438,625.625 712.75,625.3594 Q712.1563,625.0781 711.5313,625.0781 Q710.1875,625.0781 709.5,626.1563 Q708.8125,627.2188 708.8125,629.3125 Q708.8125,631.4063 709.5,632.4844 Q710.1875,633.5469 711.5313,633.5469 Q712.1563,633.5469 712.75,633.2813 Q713.3438,633 713.9688,632.4219 L713.9688,635.1406 Z " fill="#000000"/><text fill="#000000" font-family="sans-serif" font-size="14" lengthAdjust="spacing" textLength="49.4443" x="725" y="634.3467">Campo</text><line style="stroke:#181818;stroke-width:0.5;" x1="697" x2="776.4443" y1="645.5" y2="645.5"/><line style="stroke:#181818;stroke-width:0.5;" x1="697" x2="776.4443" y1="653.5" y2="653.5"/></g><!--class TipoCampo--><g class="entity" data-entity="TipoCampo" data-source-line="41" data-uid="ent0016" id="entity_TipoCampo"><rect fill="#F1F1F1" height="113.1875" rx="2.5" ry="2.5" style="stroke:#181818;stroke-width:0.5;" width="111.3379" x="681" y="763"/><ellipse cx="696" cy="779" fill="#EB937F" rx="11" ry="11" style="stroke:#181818;stroke-width:1;"/><path d="M700.1094,785 L692.3906,785 L692.3906,772.6094 L700.1094,772.6094 L700.1094,774.7656 L694.8438,774.7656 L694.8438,777.4375 L699.6094,777.4375 L699.6094,779.5938 L694.8438,779.5938 L694.8438,782.8438 L700.1094,782.8438 L700.1094,785 Z " fill="#000000"/><text fill="#000000" font-family="sans-serif" font-size="14" lengthAdjust="spacing" textLength="79.3379" x="710" y="783.8467">TipoCampo</text><line style="stroke:#181818;stroke-width:0.5;" x1="682" x2="791.3379" y1="795" y2="795"/><text fill="#000000" font-family="sans-serif" font-size="14" lengthAdjust="spacing" textLength="36.4424" x="687" y="811.9951">texto</text><text fill="#000000" font-family="sans-serif" font-size="14" lengthAdjust="spacing" textLength="54.3184" x="687" y="828.292">n&#250;mero</text><text fill="#000000" font-family="sans-serif" font-size="14" lengthAdjust="spacing" textLength="38.6914" x="687" y="844.5889">fecha</text><text fill="#000000" font-family="sans-serif" font-size="14" lengthAdjust="spacing" textLength="13.3506" x="687" y="860.8857">...</text><line style="stroke:#181818;stroke-width:0.5;" x1="682" x2="791.3379" y1="868.1875" y2="868.1875"/></g><!--class Restriccion--><g class="entity" data-entity="Restriccion" data-source-line="47" data-uid="ent0017" id="entity_Restriccion"><rect fill="#F1F1F1" height="48" rx="2.5" ry="2.5" style="stroke:#181818;stroke-width:0.5;" width="109.4922" x="830" y="795.5"/><ellipse cx="845" cy="811.5" fill="#ADD1B2" rx="11" ry="11" style="stroke:#181818;stroke-width:1;"/><path d="M847.9688,817.1406 Q847.3906,817.4375 846.75,817.5781 Q846.1094,817.7344 845.4063,817.7344 Q842.9063,817.7344 841.5781,816.0938 Q840.2656,814.4375 840.2656,811.3125 Q840.2656,808.1875 841.5781,806.5313 Q842.9063,804.875 845.4063,804.875 Q846.1094,804.875 846.75,805.0313 Q847.4063,805.1875 847.9688,805.4844 L847.9688,808.2031 Q847.3438,807.625 846.75,807.3594 Q846.1563,807.0781 845.5313,807.0781 Q844.1875,807.0781 843.5,808.1563 Q842.8125,809.2188 842.8125,811.3125 Q842.8125,813.4063 843.5,814.4844 Q844.1875,815.5469 845.5313,815.5469 Q846.1563,815.5469 846.75,815.2813 Q847.3438,815 847.9688,814.4219 L847.9688,817.1406 Z " fill="#000000"/><text fill="#000000" font-family="sans-serif" font-size="14" lengthAdjust="spacing" textLength="77.4922" x="859" y="816.3467">Restriccion</text><line style="stroke:#181818;stroke-width:0.5;" x1="831" x2="938.4922" y1="827.5" y2="827.5"/><line style="stroke:#181818;stroke-width:0.5;" x1="831" x2="938.4922" y1="835.5" y2="835.5"/></g><!--reverse link Usuario to Rol--><g class="link" data-entity-1="Usuario" data-entity-2="Rol" data-source-line="50" data-uid="lnk18" id="link_Usuario_Rol"><path codeLine="50" d="M651.8706,99.2361 C661.8306,124.0461 669.85,144.02 678.22,164.88" fill="none" id="Usuario-backto-Rol" style="stroke:#181818;stroke-width:1;"/><polygon fill="#181818" points="647.4,88.1,645.9233,95.1583,651.8706,99.2361,653.3474,92.1779,647.4,88.1" style="stroke:#181818;stroke-width:1;"/><text fill="#000000" font-family="sans-serif" font-size="13" lengthAdjust="spacing" textLength="32.9443" x="667.5" y="131.0669">tiene</text><text fill="#000000" font-family="sans-serif" font-size="13" lengthAdjust="spacing" textLength="36.5625" x="611.0971" y="107.5735">many</text><text fill="#000000" font-family="sans-serif" font-size="13" lengthAdjust="spacing" textLength="8.271" x="666.8283" y="153.8613">1</text></g><!--reverse link Rol to Permiso--><g class="link" data-entity-1="Rol" data-entity-2="Permiso" data-source-line="51" data-uid="lnk19" id="link_Rol_Permiso"><path codeLine="51" d="M687.7708,225.1197 C687.9508,248.9197 688.14,273.8 688.32,297.67" fill="none" id="Rol-backto-Permiso" style="stroke:#181818;stroke-width:1;"/><polygon fill="#181818" points="687.68,213.12,683.7255,219.1501,687.7708,225.1197,691.7253,219.0896,687.68,213.12" style="stroke:#181818;stroke-width:1;"/><text fill="#000000" font-family="sans-serif" font-size="13" lengthAdjust="spacing" textLength="32.9443" x="688.5" y="256.0669">tiene</text><text fill="#000000" font-family="sans-serif" font-size="13" lengthAdjust="spacing" textLength="36.5625" x="647.3827" y="232.9105">many</text><text fill="#000000" font-family="sans-serif" font-size="13" lengthAdjust="spacing" textLength="36.5625" x="647.933" y="286.9945">many</text></g><!--link Usuario to Consulta--><g class="link" data-entity-1="Usuario" data-entity-2="Consulta" data-source-line="52" data-uid="lnk20" id="link_Usuario_Consulta"><path codeLine="52" d="M603.18,88.26 C597.56,97.66 592.25,107.89 588.5,118 C582.94,133 580.7738,144.8385 579.4138,158.7485" fill="none" id="Usuario-to-Consulta" style="stroke:#181818;stroke-width:1;"/><polygon fill="#181818" points="578.83,164.72,583.6868,156.1519,579.3165,159.7437,575.7247,155.3735,578.83,164.72" style="stroke:#181818;stroke-width:1;"/><text fill="#000000" font-family="sans-serif" font-size="13" lengthAdjust="spacing" textLength="48.0581" x="589.5" y="131.0669">ejecuta</text></g><!--link Consulta to Tabla--><g class="link" data-entity-1="Consulta" data-entity-2="Tabla" data-source-line="53" data-uid="lnk21" id="link_Consulta_Tabla"><path codeLine="53" d="M576.97,213.12 C576.48,234.42 575.8849,260.2015 575.3549,283.7615" fill="none" id="Consulta-to-Tabla" style="stroke:#181818;stroke-width:1;"/><polygon fill="#181818" points="575.22,289.76,579.4214,280.8522,575.3325,284.7613,571.4234,280.6723,575.22,289.76" style="stroke:#181818;stroke-width:1;"/><text fill="#000000" font-family="sans-serif" font-size="13" lengthAdjust="spacing" textLength="48.0581" x="577.5" y="256.0669">ejecuta</text></g><!--reverse link Tabla to Esquema--><g class="link" data-entity-1="Tabla" data-entity-2="Esquema" data-source-line="54" data-uid="lnk22" id="link_Tabla_Esquema"><path codeLine="54" d="M602.9552,364.15 C622.2552,392.06 643.24,422.4 660.57,447.46" fill="none" id="Tabla-backto-Esquema" style="stroke:#181818;stroke-width:1;"/><polygon fill="#181818" points="596.13,354.28,596.2526,361.4901,602.9552,364.15,602.8326,356.9399,596.13,354.28" style="stroke:#181818;stroke-width:1;"/><text fill="#000000" font-family="sans-serif" font-size="13" lengthAdjust="spacing" textLength="32.9443" x="626.5" y="397.0669">tiene</text><text fill="#000000" font-family="sans-serif" font-size="13" lengthAdjust="spacing" textLength="8.271" x="591.744" y="374.5346">1</text><text fill="#000000" font-family="sans-serif" font-size="13" lengthAdjust="spacing" textLength="8.271" x="647.5323" y="436.4618">1</text></g><!--reverse link Tabla to Llave--><g class="link" data-entity-1="Tabla" data-entity-2="Llave" data-source-line="55" data-uid="lnk23" id="link_Tabla_Llave"><path codeLine="55" d="M576.2529,366.3603 C579.9629,458.4803 590.31,714.75 593.57,795.34" fill="none" id="Tabla-backto-Llave" style="stroke:#181818;stroke-width:1;"/><polygon fill="#181818" points="575.77,354.37,572.0147,360.5261,576.2529,366.3603,580.0082,360.2042,575.77,354.37" style="stroke:#181818;stroke-width:1;"/><text fill="#000000" font-family="sans-serif" font-size="13" lengthAdjust="spacing" textLength="32.9443" x="585.5" y="555.0669">tiene</text><text fill="#000000" font-family="sans-serif" font-size="13" lengthAdjust="spacing" textLength="8.271" x="567.2113" y="374.2702">1</text><text fill="#000000" font-family="sans-serif" font-size="13" lengthAdjust="spacing" textLength="36.5625" x="552.7699" y="784.311">many</text></g><!--reverse link Tabla to Restriccion--><g class="link" data-entity-1="Tabla" data-entity-2="Restriccion" data-source-line="56" data-uid="lnk24" id="link_Tabla_Restriccion"><path codeLine="56" d="M620.2899,351.0951 C626.0899,354.2651 621.6,351.53 627.5,354 C724.99,394.83 790.14,345.66 852.5,431 C935.54,544.64 904.54,730.21 890.18,795.17" fill="none" id="Tabla-backto-Restriccion" style="stroke:#181818;stroke-width:1;"/><polygon fill="#181818" points="609.76,345.34,613.1066,351.7275,620.2899,351.0951,616.9433,344.7076,609.76,345.34" style="stroke:#181818;stroke-width:1;"/><text fill="#000000" font-family="sans-serif" font-size="13" lengthAdjust="spacing" textLength="32.9443" x="902.5" y="555.0669">tiene</text><text fill="#000000" font-family="sans-serif" font-size="13" lengthAdjust="spacing" textLength="8.271" x="617.8352" y="363.7507">1</text><text fill="#000000" font-family="sans-serif" font-size="13" lengthAdjust="spacing" textLength="36.5625" x="851.1856" y="784.4945">many</text></g><!--reverse link Tabla to Vista--><g class="link" data-entity-1="Tabla" data-entity-2="Vista" data-source-line="57" data-uid="lnk25" id="link_Tabla_Vista"><path codeLine="57" d="M527.8353,337.2682 C474.1353,354.1982 380.81,386.33 298.5,431 C224.03,471.42 209.48,488.84 143.5,542 C114.96,564.99 84.26,593.74 63.87,613.45" fill="none" id="Tabla-backto-Vista" style="stroke:#181818;stroke-width:1;"/><polygon fill="#181818" points="539.28,333.66,532.3549,331.6492,527.8353,337.2682,534.7604,339.279,539.28,333.66" style="stroke:#181818;stroke-width:1;"/><text fill="#000000" font-family="sans-serif" font-size="13" lengthAdjust="spacing" textLength="32.9443" x="299.5" y="476.0669">tiene</text><text fill="#000000" font-family="sans-serif" font-size="13" lengthAdjust="spacing" textLength="8.271" x="523.1687" y="331.568">1</text><text fill="#000000" font-family="sans-serif" font-size="13" lengthAdjust="spacing" textLength="36.5625" x="29.34" y="602.4492">many</text></g><!--reverse link Tabla to Indice--><g class="link" data-entity-1="Tabla" data-entity-2="Indice" data-source-line="58" data-uid="lnk26" id="link_Tabla_Indice"><path codeLine="58" d="M619.7571,351.1941 C653.9871,372.6541 697.19,400.2 742.5,431 C750.18,436.22 758.36,441.98 765.99,447.45" fill="none" id="Tabla-backto-Indice" style="stroke:#181818;stroke-width:1;"/><polygon fill="#181818" points="609.59,344.82,612.5489,351.3961,619.7571,351.1941,616.7983,344.618,609.59,344.82" style="stroke:#181818;stroke-width:1;"/><text fill="#000000" font-family="sans-serif" font-size="13" lengthAdjust="spacing" textLength="32.9443" x="697.5" y="397.0669">tiene</text><text fill="#000000" font-family="sans-serif" font-size="13" lengthAdjust="spacing" textLength="8.271" x="618.1174" y="345.2202">1</text><text fill="#000000" font-family="sans-serif" font-size="13" lengthAdjust="spacing" textLength="36.5625" x="723.2156" y="436.5399">many</text></g><!--reverse link Tabla to Trigger--><g class="link" data-entity-1="Tabla" data-entity-2="Trigger" data-source-line="59" data-uid="lnk27" id="link_Tabla_Trigger"><path codeLine="59" d="M527.6339,330.6452 C495.0539,337.4552 459.78,350.33 435.5,384 C425.89,397.33 423.01,414.99 422.87,430.88" fill="none" id="Tabla-backto-Trigger" style="stroke:#181818;stroke-width:1;"/><polygon fill="#181818" points="539.38,328.19,532.6885,325.5022,527.6339,330.6452,534.3253,333.333,539.38,328.19" style="stroke:#181818;stroke-width:1;"/><text fill="#000000" font-family="sans-serif" font-size="13" lengthAdjust="spacing" textLength="32.9443" x="436.5" y="397.0669">tiene</text><text fill="#000000" font-family="sans-serif" font-size="13" lengthAdjust="spacing" textLength="8.271" x="523.2893" y="343.0635">1</text><text fill="#000000" font-family="sans-serif" font-size="13" lengthAdjust="spacing" textLength="36.5625" x="383.1373" y="420.0217">many</text></g><!--link Trigger to Tabla--><g class="link" data-entity-1="Trigger" data-entity-2="Tabla" data-source-line="60" data-uid="lnk28" id="link_Trigger_Tabla"><path codeLine="60" d="M464.73,430.96 C478.91,416.09 495.32,399.13 510.5,384 C520.39,374.14 526.9922,367.7148 536.9922,358.2048" fill="none" id="Trigger-to-Tabla" style="stroke:#181818;stroke-width:1;"/><polygon fill="#181818" points="541.34,354.07,532.0617,357.3736,537.7168,357.5157,537.5748,363.1707,541.34,354.07" style="stroke:#181818;stroke-width:1;"/><text fill="#000000" font-family="sans-serif" font-size="13" lengthAdjust="spacing" textLength="36.4165" x="511.5" y="397.0669">act&#250;a</text></g><!--link Trigger to Vista--><g class="link" data-entity-1="Trigger" data-entity-2="Vista" data-source-line="61" data-uid="lnk29" id="link_Trigger_Vista"><path codeLine="61" d="M349.81,489.63 C279.03,507.46 173.36,539.73 91.5,589 C80.51,595.61 74.1422,600.667 65.4522,609.277" fill="none" id="Trigger-to-Vista" style="stroke:#181818;stroke-width:1;"/><polygon fill="#181818" points="61.19,613.5,70.3986,610.007,64.7418,609.9809,64.768,604.3241,61.19,613.5" style="stroke:#181818;stroke-width:1;"/><text fill="#000000" font-family="sans-serif" font-size="13" lengthAdjust="spacing" textLength="36.4165" x="179.5" y="555.0669">act&#250;a</text></g><!--link Trigger to TipoMomentoActivaci?n--><g class="link" data-entity-1="Trigger" data-entity-2="TipoMomentoActivaci.n" data-source-line="62" data-uid="lnk30" id="link_Trigger_TipoMomentoActivaci.n"><path codeLine="62" d="M427.5,512.2 C427.5,537.89 427.5,571.21 427.5,596.88" fill="none" id="Trigger-TipoMomentoActivaci&#243;n" style="stroke:#181818;stroke-width:1;stroke-dasharray:7,7;"/></g><!--link Trigger to TipoEventoActivaci?n--><g class="link" data-entity-1="Trigger" data-entity-2="TipoEventoActivaci.n" data-source-line="63" data-uid="lnk31" id="link_Trigger_TipoEventoActivaci.n"><path codeLine="63" d="M372.55,512.2 C340.53,535.33 299.96,564.64 266.25,589" fill="none" id="Trigger-TipoEventoActivaci&#243;n" style="stroke:#181818;stroke-width:1;stroke-dasharray:7,7;"/></g><!--reverse link Esquema to Campo--><g class="link" data-entity-1="Esquema" data-entity-2="Campo" data-source-line="64" data-uid="lnk32" id="link_Esquema_Campo"><path codeLine="64" d="M678.9974,507.8097 C680.6274,525.5597 683.03,538.41 690.5,559 C697.54,578.41 709.55,598.41 719.54,613.23" fill="none" id="Esquema-backto-Campo" style="stroke:#181818;stroke-width:1;"/><polygon fill="#181818" points="677.9,495.86,674.4654,502.2006,678.9974,507.8097,682.4319,501.4691,677.9,495.86" style="stroke:#181818;stroke-width:1;"/><text fill="#000000" font-family="sans-serif" font-size="13" lengthAdjust="spacing" textLength="56.2847" x="691.5" y="555.0669">contiene</text><text fill="#000000" font-family="sans-serif" font-size="13" lengthAdjust="spacing" textLength="8.271" x="669.3322" y="515.709">1</text><text fill="#000000" font-family="sans-serif" font-size="13" lengthAdjust="spacing" textLength="36.5625" x="675.0329" y="602.5691">many</text></g><!--link Campo to TipoCampo--><g class="link" data-entity-1="Campo" data-entity-2="TipoCampo" data-source-line="65" data-uid="lnk33" id="link_Campo_TipoCampo"><path codeLine="65" d="M736.5,661.66 C736.5,687.11 736.5,728.89 736.5,762.93" fill="none" id="Campo-TipoCampo" style="stroke:#181818;stroke-width:1;stroke-dasharray:7,7;"/></g><!--reverse link Campo to Restriccion--><g class="link" data-entity-1="Campo" data-entity-2="Restriccion" data-source-line="66" data-uid="lnk34" id="link_Campo_Restriccion"><path codeLine="66" d="M763.169,670.931 C791.579,705.501 837.15,760.91 865.53,795.43" fill="none" id="Campo-backto-Restriccion" style="stroke:#181818;stroke-width:1;"/><polygon fill="none" points="755.55,661.66,756.2692,668.8352,763.169,670.931,762.4498,663.7558,755.55,661.66" style="stroke:#181818;stroke-width:1;"/><text fill="#000000" font-family="sans-serif" font-size="13" lengthAdjust="spacing" textLength="32.9443" x="811.5" y="729.0669">tiene</text><text fill="#000000" font-family="sans-serif" font-size="13" lengthAdjust="spacing" textLength="8.271" x="751.1973" y="681.4602">1</text><text fill="#000000" font-family="sans-serif" font-size="13" lengthAdjust="spacing" textLength="36.5625" x="820.0654" y="784.4241">many</text></g><!--reverse link Indice to Campo--><g class="link" data-entity-1="Indice" data-entity-2="Campo" data-source-line="67" data-uid="lnk35" id="link_Indice_Campo"><path codeLine="67" d="M784.7057,506.8969 C773.0757,538.1569 756.67,582.27 745.07,613.47" fill="none" id="Indice-backto-Campo" style="stroke:#181818;stroke-width:1;"/><polygon fill="#181818" points="788.89,495.65,783.0489,499.8787,784.7057,506.8969,790.5468,502.6682,788.89,495.65" style="stroke:#181818;stroke-width:1;"/><text fill="#000000" font-family="sans-serif" font-size="13" lengthAdjust="spacing" textLength="32.9443" x="771.5" y="555.0669">tiene</text><text fill="#000000" font-family="sans-serif" font-size="13" lengthAdjust="spacing" textLength="36.5625" x="746.4615" y="515.4478">many</text><text fill="#000000" font-family="sans-serif" font-size="13" lengthAdjust="spacing" textLength="8.271" x="738.2189" y="602.4743">1</text></g><!--link Llave to TipoLlave--><g class="link" data-entity-1="Llave" data-entity-2="TipoLlave" data-source-line="68" data-uid="lnk36" id="link_Llave_TipoLlave"><path codeLine="68" d="M594.5,843.52 C594.5,868.01 594.5,907.22 594.5,936.73" fill="none" id="Llave-TipoLlave" style="stroke:#181818;stroke-width:1;stroke-dasharray:7,7;"/></g><!--link Campo to Llave--><g class="link" data-entity-1="Campo" data-entity-2="Llave" data-source-line="69" data-uid="lnk37" id="link_Campo_Llave"><path codeLine="69" d="M712.36,661.59 C697.31,676.51 677.94,696.67 662.5,716 C641.84,741.86 621.27,773.98 608.25,795.3" fill="none" id="Campo-Llave" style="stroke:#181818;stroke-width:1;"/><text fill="#000000" font-family="sans-serif" font-size="13" lengthAdjust="spacing" textLength="64.9873" x="663.5" y="729.0669">puede ser</text></g><!--SRC=[VLF1JiCm3BtxAw8TaLQ9AmUamO8qQS0qEkvPC13K92L99z34n_09YDkk_J7QD6spJlIq-ldvsR7VUCQi9IdRPcmFIikjGVW2xj57OLs5jk6rLhR8OcHZ2sQ4xWgvLiumY-KFwpXhdVK5ApHIMDq3oupji0vH5PAa8jS1oOsGbJQ3PstARuMz8BNl1SfeYjI8bnSqUy0TAgS9uqxi61VbhmAfvGaMDQE-OjOdzx2uUw3h53Qh-IobCATBMlr49RUDub7D5RsvNrEOtQHqtOsrK4-2OxG-9dDzzDI0EFnm6bHva6WqF2D_PP0aIRz1jCu8peLMTJc4hPE9PEfpGiwcKp8vdzIB9XV42LG8zNUSRZx3zZjMApITNdR7hPBuXhnm33gepdk7HCachlks_SDTElK1end1NtUS4ZrtdEZjEKvfRZ3E2VRfII6ENrtPfpomerJRVP1AadzSCcISM0_Q1Gxcyowf6jL_BZzW0mGP7mIeBjJZYmmB6LYdRT5mcXi5VHy4_OhTtYyly0c9HVC7]--></g></svg>