<svg xmlns="http://www.w3.org/2000/svg" xmlns:xlink="http://www.w3.org/1999/xlink" contentStyleType="text/css" data-diagram-type="CLASS" height="1121px" preserveAspectRatio="none" style="width:1141px;height:1121px;background:#FFFFFF;" version="1.1" viewBox="0 0 1141 1121" width="1141px" zoomAndPan="magnify"><defs/><g><!--class Tabla--><g class="entity" data-entity="Tabla" data-source-line="1" data-uid="ent0002" id="entity_Tabla"><rect fill="#F1F1F1" height="64.2969" rx="2.5" ry="2.5" style="stroke:#181818;stroke-width:0.5;" width="70.4863" x="581.5" y="306"/><ellipse cx="596.5" cy="322" fill="#ADD1B2" rx="11" ry="11" style="stroke:#181818;stroke-width:1;"/><path d="M599.4688,327.6406 Q598.8906,327.9375 598.25,328.0781 Q597.6094,328.2344 596.9063,328.2344 Q594.4063,328.2344 593.0781,326.5938 Q591.7656,324.9375 591.7656,321.8125 Q591.7656,318.6875 593.0781,317.0313 Q594.4063,315.375 596.9063,315.375 Q597.6094,315.375 598.25,315.5313 Q598.9063,315.6875 599.4688,315.9844 L599.4688,318.7031 Q598.8438,318.125 598.25,317.8594 Q597.6563,317.5781 597.0313,317.5781 Q595.6875,317.5781 595,318.6563 Q594.3125,319.7188 594.3125,321.8125 Q594.3125,323.9063 595,324.9844 Q595.6875,326.0469 597.0313,326.0469 Q597.6563,326.0469 598.25,325.7813 Q598.8438,325.5 599.4688,324.9219 L599.4688,327.6406 Z " fill="#000000"/><text fill="#000000" font-family="sans-serif" font-size="14" lengthAdjust="spacing" textLength="38.4863" x="610.5" y="326.8467">Tabla</text><line style="stroke:#181818;stroke-width:0.5;" x1="582.5" x2="650.9863" y1="338" y2="338"/><text fill="#000000" font-family="sans-serif" font-size="14" lengthAdjust="spacing" textLength="54.332" x="587.5" y="354.9951">nombre</text><line style="stroke:#181818;stroke-width:0.5;" x1="582.5" x2="650.9863" y1="362.2969" y2="362.2969"/></g><!--class Vista--><g class="entity" data-entity="Vista" data-source-line="4" data-uid="ent0003" id="entity_Vista"><rect fill="#F1F1F1" height="48" rx="2.5" ry="2.5" style="stroke:#181818;stroke-width:0.5;" width="66.8291" x="7" y="710.5"/><ellipse cx="22" cy="726.5" fill="#ADD1B2" rx="11" ry="11" style="stroke:#181818;stroke-width:1;"/><path d="M24.9688,732.1406 Q24.3906,732.4375 23.75,732.5781 Q23.1094,732.7344 22.4063,732.7344 Q19.9063,732.7344 18.5781,731.0938 Q17.2656,729.4375 17.2656,726.3125 Q17.2656,723.1875 18.5781,721.5313 Q19.9063,719.875 22.4063,719.875 Q23.1094,719.875 23.75,720.0313 Q24.4063,720.1875 24.9688,720.4844 L24.9688,723.2031 Q24.3438,722.625 23.75,722.3594 Q23.1563,722.0781 22.5313,722.0781 Q21.1875,722.0781 20.5,723.1563 Q19.8125,724.2188 19.8125,726.3125 Q19.8125,728.4063 20.5,729.4844 Q21.1875,730.5469 22.5313,730.5469 Q23.1563,730.5469 23.75,730.2813 Q24.3438,730 24.9688,729.4219 L24.9688,732.1406 Z " fill="#000000"/><text fill="#000000" font-family="sans-serif" font-size="14" lengthAdjust="spacing" textLength="34.8291" x="36" y="731.3467">Vista</text><line style="stroke:#181818;stroke-width:0.5;" x1="8" x2="72.8291" y1="742.5" y2="742.5"/><line style="stroke:#181818;stroke-width:0.5;" x1="8" x2="72.8291" y1="750.5" y2="750.5"/></g><!--class Consulta--><g class="entity" data-entity="Consulta" data-source-line="6" data-uid="ent0004" id="entity_Consulta"><rect fill="#F1F1F1" height="64.2969" rx="2.5" ry="2.5" style="stroke:#181818;stroke-width:0.5;" width="93.3389" x="830" y="165"/><ellipse cx="845" cy="181" fill="#ADD1B2" rx="11" ry="11" style="stroke:#181818;stroke-width:1;"/><path d="M847.9688,186.6406 Q847.3906,186.9375 846.75,187.0781 Q846.1094,187.2344 845.4063,187.2344 Q842.9063,187.2344 841.5781,185.5938 Q840.2656,183.9375 840.2656,180.8125 Q840.2656,177.6875 841.5781,176.0313 Q842.9063,174.375 845.4063,174.375 Q846.1094,174.375 846.75,174.5313 Q847.4063,174.6875 847.9688,174.9844 L847.9688,177.7031 Q847.3438,177.125 846.75,176.8594 Q846.1563,176.5781 845.5313,176.5781 Q844.1875,176.5781 843.5,177.6563 Q842.8125,178.7188 842.8125,180.8125 Q842.8125,182.9063 843.5,183.9844 Q844.1875,185.0469 845.5313,185.0469 Q846.1563,185.0469 846.75,184.7813 Q847.3438,184.5 847.9688,183.9219 L847.9688,186.6406 Z " fill="#000000"/><text fill="#000000" font-family="sans-serif" font-size="14" lengthAdjust="spacing" textLength="61.3389" x="859" y="185.8467">Consulta</text><line style="stroke:#181818;stroke-width:0.5;" x1="831" x2="922.3389" y1="197" y2="197"/><text fill="#000000" font-family="sans-serif" font-size="14" lengthAdjust="spacing" textLength="72.8506" x="836" y="213.9951">enunciado</text><line style="stroke:#181818;stroke-width:0.5;" x1="831" x2="922.3389" y1="221.2969" y2="221.2969"/></g><!--class Usuario--><g class="entity" data-entity="Usuario" data-source-line="9" data-uid="ent0005" id="entity_Usuario"><rect fill="#F1F1F1" height="80.5938" rx="2.5" ry="2.5" style="stroke:#181818;stroke-width:0.5;" width="90.3193" x="888.5" y="7"/><ellipse cx="905.8019" cy="23" fill="#ADD1B2" rx="11" ry="11" style="stroke:#181818;stroke-width:1;"/><path d="M908.7706,28.6406 Q908.1925,28.9375 907.5519,29.0781 Q906.9112,29.2344 906.2081,29.2344 Q903.7081,29.2344 902.38,27.5938 Q901.0675,25.9375 901.0675,22.8125 Q901.0675,19.6875 902.38,18.0313 Q903.7081,16.375 906.2081,16.375 Q906.9112,16.375 907.5519,16.5313 Q908.2081,16.6875 908.7706,16.9844 L908.7706,19.7031 Q908.1456,19.125 907.5519,18.8594 Q906.9581,18.5781 906.3331,18.5781 Q904.9894,18.5781 904.3019,19.6563 Q903.6144,20.7188 903.6144,22.8125 Q903.6144,24.9063 904.3019,25.9844 Q904.9894,27.0469 906.3331,27.0469 Q906.9581,27.0469 907.5519,26.7813 Q908.1456,26.5 908.7706,25.9219 L908.7706,28.6406 Z " fill="#000000"/><text fill="#000000" font-family="sans-serif" font-size="14" lengthAdjust="spacing" textLength="53.2041" x="920.3134" y="27.8467">Usuario</text><line style="stroke:#181818;stroke-width:0.5;" x1="889.5" x2="977.8193" y1="39" y2="39"/><text fill="#000000" font-family="sans-serif" font-size="14" lengthAdjust="spacing" textLength="54.332" x="894.5" y="55.9951">nombre</text><text fill="#000000" font-family="sans-serif" font-size="14" lengthAdjust="spacing" textLength="78.3193" x="894.5" y="72.292">contrase&#241;a</text><line style="stroke:#181818;stroke-width:0.5;" x1="889.5" x2="977.8193" y1="79.5938" y2="79.5938"/></g><!--class Rol--><g class="entity" data-entity="Rol" data-source-line="13" data-uid="ent0006" id="entity_Rol"><rect fill="#F1F1F1" height="64.2969" rx="2.5" ry="2.5" style="stroke:#181818;stroke-width:0.5;" width="66.332" x="970.5" y="165"/><ellipse cx="990.9672" cy="181" fill="#ADD1B2" rx="11" ry="11" style="stroke:#181818;stroke-width:1;"/><path d="M993.936,186.6406 Q993.3579,186.9375 992.7172,187.0781 Q992.0766,187.2344 991.3735,187.2344 Q988.8735,187.2344 987.5454,185.5938 Q986.2329,183.9375 986.2329,180.8125 Q986.2329,177.6875 987.5454,176.0313 Q988.8735,174.375 991.3735,174.375 Q992.0766,174.375 992.7172,174.5313 Q993.3735,174.6875 993.936,174.9844 L993.936,177.7031 Q993.311,177.125 992.7172,176.8594 Q992.1235,176.5781 991.4985,176.5781 Q990.1547,176.5781 989.4672,177.6563 Q988.7797,178.7188 988.7797,180.8125 Q988.7797,182.9063 989.4672,183.9844 Q990.1547,185.0469 991.4985,185.0469 Q992.1235,185.0469 992.7172,184.7813 Q993.311,184.5 993.936,183.9219 L993.936,186.6406 Z " fill="#000000"/><text fill="#000000" font-family="sans-serif" font-size="14" lengthAdjust="spacing" textLength="22.1826" x="1006.1822" y="185.8467">Rol</text><line style="stroke:#181818;stroke-width:0.5;" x1="971.5" x2="1035.832" y1="197" y2="197"/><text fill="#000000" font-family="sans-serif" font-size="14" lengthAdjust="spacing" textLength="54.332" x="976.5" y="213.9951">nombre</text><line style="stroke:#181818;stroke-width:0.5;" x1="971.5" x2="1035.832" y1="221.2969" y2="221.2969"/></g><!--class Permiso--><g class="entity" data-entity="Permiso" data-source-line="16" data-uid="ent0007" id="entity_Permiso"><rect fill="#F1F1F1" height="64.2969" rx="2.5" ry="2.5" style="stroke:#181818;stroke-width:0.5;" width="88.1982" x="988.5" y="306"/><ellipse cx="1003.5" cy="322" fill="#ADD1B2" rx="11" ry="11" style="stroke:#181818;stroke-width:1;"/><path d="M1006.4688,327.6406 Q1005.8906,327.9375 1005.25,328.0781 Q1004.6094,328.2344 1003.9063,328.2344 Q1001.4063,328.2344 1000.0781,326.5938 Q998.7656,324.9375 998.7656,321.8125 Q998.7656,318.6875 1000.0781,317.0313 Q1001.4063,315.375 1003.9063,315.375 Q1004.6094,315.375 1005.25,315.5313 Q1005.9063,315.6875 1006.4688,315.9844 L1006.4688,318.7031 Q1005.8438,318.125 1005.25,317.8594 Q1004.6563,317.5781 1004.0313,317.5781 Q1002.6875,317.5781 1002,318.6563 Q1001.3125,319.7188 1001.3125,321.8125 Q1001.3125,323.9063 1002,324.9844 Q1002.6875,326.0469 1004.0313,326.0469 Q1004.6563,326.0469 1005.25,325.7813 Q1005.8438,325.5 1006.4688,324.9219 L1006.4688,327.6406 Z " fill="#000000"/><text fill="#000000" font-family="sans-serif" font-size="14" lengthAdjust="spacing" textLength="56.1982" x="1017.5" y="326.8467">Permiso</text><line style="stroke:#181818;stroke-width:0.5;" x1="989.5" x2="1075.6982" y1="338" y2="338"/><text fill="#000000" font-family="sans-serif" font-size="14" lengthAdjust="spacing" textLength="71.6816" x="994.5" y="354.9951">capacidad</text><line style="stroke:#181818;stroke-width:0.5;" x1="989.5" x2="1075.6982" y1="362.2969" y2="362.2969"/></g><!--class TipoCapacidadPermiso--><g class="entity" data-entity="TipoCapacidadPermiso" data-source-line="19" data-uid="ent0008" id="entity_TipoCapacidadPermiso"><rect fill="#F1F1F1" height="162.0781" rx="2.5" ry="2.5" style="stroke:#181818;stroke-width:0.5;" width="191.8516" x="942.5" y="447"/><ellipse cx="957.5" cy="463" fill="#EB937F" rx="11" ry="11" style="stroke:#181818;stroke-width:1;"/><path d="M961.6094,469 L953.8906,469 L953.8906,456.6094 L961.6094,456.6094 L961.6094,458.7656 L956.3438,458.7656 L956.3438,461.4375 L961.1094,461.4375 L961.1094,463.5938 L956.3438,463.5938 L956.3438,466.8438 L961.6094,466.8438 L961.6094,469 Z " fill="#000000"/><text fill="#000000" font-family="sans-serif" font-size="14" lengthAdjust="spacing" textLength="159.8516" x="971.5" y="467.8467">TipoCapacidadPermiso</text><line style="stroke:#181818;stroke-width:0.5;" x1="943.5" x2="1133.3516" y1="479" y2="479"/><text fill="#000000" font-family="sans-serif" font-size="14" lengthAdjust="spacing" textLength="52.7051" x="948.5" y="495.9951">SELECT</text><text fill="#000000" font-family="sans-serif" font-size="14" lengthAdjust="spacing" textLength="50.6133" x="948.5" y="512.292">INSERT</text><text fill="#000000" font-family="sans-serif" font-size="14" lengthAdjust="spacing" textLength="56.4443" x="948.5" y="528.5889">UPDATE</text><text fill="#000000" font-family="sans-serif" font-size="14" lengthAdjust="spacing" textLength="53.6689" x="948.5" y="544.8857">DELETE</text><text fill="#000000" font-family="sans-serif" font-size="14" lengthAdjust="spacing" textLength="55.3232" x="948.5" y="561.1826">CREATE</text><text fill="#000000" font-family="sans-serif" font-size="14" lengthAdjust="spacing" textLength="39.9697" x="948.5" y="577.4795">DROP</text><text fill="#000000" font-family="sans-serif" font-size="14" lengthAdjust="spacing" textLength="44.502" x="948.5" y="593.7764">ALTER</text><line style="stroke:#181818;stroke-width:0.5;" x1="943.5" x2="1133.3516" y1="601.0781" y2="601.0781"/></g><!--class Llave--><g class="entity" data-entity="Llave" data-source-line="28" data-uid="ent0009" id="entity_Llave"><rect fill="#F1F1F1" height="48" rx="2.5" ry="2.5" style="stroke:#181818;stroke-width:0.5;" width="69.167" x="560" y="892.5"/><ellipse cx="575" cy="908.5" fill="#ADD1B2" rx="11" ry="11" style="stroke:#181818;stroke-width:1;"/><path d="M577.9688,914.1406 Q577.3906,914.4375 576.75,914.5781 Q576.1094,914.7344 575.4063,914.7344 Q572.9063,914.7344 571.5781,913.0938 Q570.2656,911.4375 570.2656,908.3125 Q570.2656,905.1875 571.5781,903.5313 Q572.9063,901.875 575.4063,901.875 Q576.1094,901.875 576.75,902.0313 Q577.4063,902.1875 577.9688,902.4844 L577.9688,905.2031 Q577.3438,904.625 576.75,904.3594 Q576.1563,904.0781 575.5313,904.0781 Q574.1875,904.0781 573.5,905.1563 Q572.8125,906.2188 572.8125,908.3125 Q572.8125,910.4063 573.5,911.4844 Q574.1875,912.5469 575.5313,912.5469 Q576.1563,912.5469 576.75,912.2813 Q577.3438,912 577.9688,911.4219 L577.9688,914.1406 Z " fill="#000000"/><text fill="#000000" font-family="sans-serif" font-size="14" lengthAdjust="spacing" textLength="37.167" x="589" y="913.3467">Llave</text><line style="stroke:#181818;stroke-width:0.5;" x1="561" x2="628.167" y1="924.5" y2="924.5"/><line style="stroke:#181818;stroke-width:0.5;" x1="561" x2="628.167" y1="932.5" y2="932.5"/></g><!--class TipoLlave--><g class="entity" data-entity="TipoLlave" data-source-line="30" data-uid="ent0010" id="entity_TipoLlave"><rect fill="#F1F1F1" height="80.5938" rx="2.5" ry="2.5" style="stroke:#181818;stroke-width:0.5;" width="99.0605" x="545" y="1034"/><ellipse cx="560" cy="1050" fill="#EB937F" rx="11" ry="11" style="stroke:#181818;stroke-width:1;"/><path d="M564.1094,1056 L556.3906,1056 L556.3906,1043.6094 L564.1094,1043.6094 L564.1094,1045.7656 L558.8438,1045.7656 L558.8438,1048.4375 L563.6094,1048.4375 L563.6094,1050.5938 L558.8438,1050.5938 L558.8438,1053.8438 L564.1094,1053.8438 L564.1094,1056 Z " fill="#000000"/><text fill="#000000" font-family="sans-serif" font-size="14" lengthAdjust="spacing" textLength="67.0605" x="574" y="1054.8467">TipoLlave</text><line style="stroke:#181818;stroke-width:0.5;" x1="546" x2="643.0605" y1="1066" y2="1066"/><text fill="#000000" font-family="sans-serif" font-size="14" lengthAdjust="spacing" textLength="58.9736" x="551" y="1082.9951">primaria</text><text fill="#000000" font-family="sans-serif" font-size="14" lengthAdjust="spacing" textLength="53.8945" x="551" y="1099.292">for&#225;nea</text><line style="stroke:#181818;stroke-width:0.5;" x1="546" x2="643.0605" y1="1106.5938" y2="1106.5938"/></g><!--class Esquema--><g class="entity" data-entity="Esquema" data-source-line="34" data-uid="ent0011" id="entity_Esquema"><rect fill="#F1F1F1" height="48" rx="2.5" ry="2.5" style="stroke:#181818;stroke-width:0.5;" width="96.7295" x="630" y="504"/><ellipse cx="645" cy="520" fill="#ADD1B2" rx="11" ry="11" style="stroke:#181818;stroke-width:1;"/><path d="M647.9688,525.6406 Q647.3906,525.9375 646.75,526.0781 Q646.1094,526.2344 645.4063,526.2344 Q642.9063,526.2344 641.5781,524.5938 Q640.2656,522.9375 640.2656,519.8125 Q640.2656,516.6875 641.5781,515.0313 Q642.9063,513.375 645.4063,513.375 Q646.1094,513.375 646.75,513.5313 Q647.4063,513.6875 647.9688,513.9844 L647.9688,516.7031 Q647.3438,516.125 646.75,515.8594 Q646.1563,515.5781 645.5313,515.5781 Q644.1875,515.5781 643.5,516.6563 Q642.8125,517.7188 642.8125,519.8125 Q642.8125,521.9063 643.5,522.9844 Q644.1875,524.0469 645.5313,524.0469 Q646.1563,524.0469 646.75,523.7813 Q647.3438,523.5 647.9688,522.9219 L647.9688,525.6406 Z " fill="#000000"/><text fill="#000000" font-family="sans-serif" font-size="14" lengthAdjust="spacing" textLength="64.7295" x="659" y="524.8467">Esquema</text><line style="stroke:#181818;stroke-width:0.5;" x1="631" x2="725.7295" y1="536" y2="536"/><line style="stroke:#181818;stroke-width:0.5;" x1="631" x2="725.7295" y1="544" y2="544"/></g><!--class Trigger--><g class="entity" data-entity="Trigger" data-source-line="36" data-uid="ent0012" id="entity_Trigger"><rect fill="#F1F1F1" height="80.5938" rx="2.5" ry="2.5" style="stroke:#181818;stroke-width:0.5;" width="155.377" x="350" y="487.5"/><ellipse cx="398.2686" cy="503.5" fill="#ADD1B2" rx="11" ry="11" style="stroke:#181818;stroke-width:1;"/><path d="M401.2373,509.1406 Q400.6592,509.4375 400.0186,509.5781 Q399.3779,509.7344 398.6748,509.7344 Q396.1748,509.7344 394.8467,508.0938 Q393.5342,506.4375 393.5342,503.3125 Q393.5342,500.1875 394.8467,498.5313 Q396.1748,496.875 398.6748,496.875 Q399.3779,496.875 400.0186,497.0313 Q400.6748,497.1875 401.2373,497.4844 L401.2373,500.2031 Q400.6123,499.625 400.0186,499.3594 Q399.4248,499.0781 398.7998,499.0781 Q397.4561,499.0781 396.7686,500.1563 Q396.0811,501.2188 396.0811,503.3125 Q396.0811,505.4063 396.7686,506.4844 Q397.4561,507.5469 398.7998,507.5469 Q399.4248,507.5469 400.0186,507.2813 Q400.6123,507 401.2373,506.4219 L401.2373,509.1406 Z " fill="#000000"/><text fill="#000000" font-family="sans-serif" font-size="14" lengthAdjust="spacing" textLength="50.3398" x="418.7686" y="508.3467">Trigger</text><line style="stroke:#181818;stroke-width:0.5;" x1="351" x2="504.377" y1="519.5" y2="519.5"/><text fill="#000000" font-family="sans-serif" font-size="14" lengthAdjust="spacing" textLength="124.4346" x="356" y="536.4951">evento activaci&#243;n</text><text fill="#000000" font-family="sans-serif" font-size="14" lengthAdjust="spacing" textLength="143.377" x="356" y="552.792">momento activaci&#243;n</text><line style="stroke:#181818;stroke-width:0.5;" x1="351" x2="504.377" y1="560.0938" y2="560.0938"/></g><!--class TipoEventoActivaci?n--><g class="entity" data-entity="TipoEventoActivaci.n" data-source-line="40" data-uid="ent0013" id="entity_TipoEventoActivaci.n"><rect fill="#F1F1F1" height="96.8906" rx="2.5" ry="2.5" style="stroke:#181818;stroke-width:0.5;" width="183.1084" x="109" y="686"/><ellipse cx="124" cy="702" fill="#EB937F" rx="11" ry="11" style="stroke:#181818;stroke-width:1;"/><path d="M128.1094,708 L120.3906,708 L120.3906,695.6094 L128.1094,695.6094 L128.1094,697.7656 L122.8438,697.7656 L122.8438,700.4375 L127.6094,700.4375 L127.6094,702.5938 L122.8438,702.5938 L122.8438,705.8438 L128.1094,705.8438 L128.1094,708 Z " fill="#000000"/><text fill="#000000" font-family="sans-serif" font-size="14" lengthAdjust="spacing" textLength="151.1084" x="138" y="706.8467">TipoEventoActivaci&#243;n</text><line style="stroke:#181818;stroke-width:0.5;" x1="110" x2="291.1084" y1="718" y2="718"/><text fill="#000000" font-family="sans-serif" font-size="14" lengthAdjust="spacing" textLength="50.6133" x="115" y="734.9951">INSERT</text><text fill="#000000" font-family="sans-serif" font-size="14" lengthAdjust="spacing" textLength="56.4443" x="115" y="751.292">UPDATE</text><text fill="#000000" font-family="sans-serif" font-size="14" lengthAdjust="spacing" textLength="53.6689" x="115" y="767.5889">DELETE</text><line style="stroke:#181818;stroke-width:0.5;" x1="110" x2="291.1084" y1="774.8906" y2="774.8906"/></g><!--class TipoMomentoActivaci?n--><g class="entity" data-entity="TipoMomentoActivaci.n" data-source-line="45" data-uid="ent0014" id="entity_TipoMomentoActivaci.n"><rect fill="#F1F1F1" height="80.5938" rx="2.5" ry="2.5" style="stroke:#181818;stroke-width:0.5;" width="200.2598" x="327.5" y="694"/><ellipse cx="342.5" cy="710" fill="#EB937F" rx="11" ry="11" style="stroke:#181818;stroke-width:1;"/><path d="M346.6094,716 L338.8906,716 L338.8906,703.6094 L346.6094,703.6094 L346.6094,705.7656 L341.3438,705.7656 L341.3438,708.4375 L346.1094,708.4375 L346.1094,710.5938 L341.3438,710.5938 L341.3438,713.8438 L346.6094,713.8438 L346.6094,716 Z " fill="#000000"/><text fill="#000000" font-family="sans-serif" font-size="14" lengthAdjust="spacing" textLength="168.2598" x="356.5" y="714.8467">TipoMomentoActivaci&#243;n</text><line style="stroke:#181818;stroke-width:0.5;" x1="328.5" x2="526.7598" y1="726" y2="726"/><text fill="#000000" font-family="sans-serif" font-size="14" lengthAdjust="spacing" textLength="56.0957" x="333.5" y="742.9951">BEFORE</text><text fill="#000000" font-family="sans-serif" font-size="14" lengthAdjust="spacing" textLength="44.7549" x="333.5" y="759.292">AFTER</text><line style="stroke:#181818;stroke-width:0.5;" x1="328.5" x2="526.7598" y1="766.5938" y2="766.5938"/></g><!--class Indice--><g class="entity" data-entity="Indice" data-source-line="49" data-uid="ent0015" id="entity_Indice"><rect fill="#F1F1F1" height="48" rx="2.5" ry="2.5" style="stroke:#181818;stroke-width:0.5;" width="74.0889" x="762.5" y="504"/><ellipse cx="777.5" cy="520" fill="#ADD1B2" rx="11" ry="11" style="stroke:#181818;stroke-width:1;"/><path d="M780.4688,525.6406 Q779.8906,525.9375 779.25,526.0781 Q778.6094,526.2344 777.9063,526.2344 Q775.4063,526.2344 774.0781,524.5938 Q772.7656,522.9375 772.7656,519.8125 Q772.7656,516.6875 774.0781,515.0313 Q775.4063,513.375 777.9063,513.375 Q778.6094,513.375 779.25,513.5313 Q779.9063,513.6875 780.4688,513.9844 L780.4688,516.7031 Q779.8438,516.125 779.25,515.8594 Q778.6563,515.5781 778.0313,515.5781 Q776.6875,515.5781 776,516.6563 Q775.3125,517.7188 775.3125,519.8125 Q775.3125,521.9063 776,522.9844 Q776.6875,524.0469 778.0313,524.0469 Q778.6563,524.0469 779.25,523.7813 Q779.8438,523.5 780.4688,522.9219 L780.4688,525.6406 Z " fill="#000000"/><text fill="#000000" font-family="sans-serif" font-size="14" lengthAdjust="spacing" textLength="42.0889" x="791.5" y="524.8467">Indice</text><line style="stroke:#181818;stroke-width:0.5;" x1="763.5" x2="835.5889" y1="536" y2="536"/><line style="stroke:#181818;stroke-width:0.5;" x1="763.5" x2="835.5889" y1="544" y2="544"/></g><!--class Campo--><g class="entity" data-entity="Campo" data-source-line="51" data-uid="ent0016" id="entity_Campo"><rect fill="#F1F1F1" height="48" rx="2.5" ry="2.5" style="stroke:#181818;stroke-width:0.5;" width="81.4443" x="698" y="710.5"/><ellipse cx="713" cy="726.5" fill="#ADD1B2" rx="11" ry="11" style="stroke:#181818;stroke-width:1;"/><path d="M715.9688,732.1406 Q715.3906,732.4375 714.75,732.5781 Q714.1094,732.7344 713.4063,732.7344 Q710.9063,732.7344 709.5781,731.0938 Q708.2656,729.4375 708.2656,726.3125 Q708.2656,723.1875 709.5781,721.5313 Q710.9063,719.875 713.4063,719.875 Q714.1094,719.875 714.75,720.0313 Q715.4063,720.1875 715.9688,720.4844 L715.9688,723.2031 Q715.3438,722.625 714.75,722.3594 Q714.1563,722.0781 713.5313,722.0781 Q712.1875,722.0781 711.5,723.1563 Q710.8125,724.2188 710.8125,726.3125 Q710.8125,728.4063 711.5,729.4844 Q712.1875,730.5469 713.5313,730.5469 Q714.1563,730.5469 714.75,730.2813 Q715.3438,730 715.9688,729.4219 L715.9688,732.1406 Z " fill="#000000"/><text fill="#000000" font-family="sans-serif" font-size="14" lengthAdjust="spacing" textLength="49.4443" x="727" y="731.3467">Campo</text><line style="stroke:#181818;stroke-width:0.5;" x1="699" x2="778.4443" y1="742.5" y2="742.5"/><line style="stroke:#181818;stroke-width:0.5;" x1="699" x2="778.4443" y1="750.5" y2="750.5"/></g><!--class TipoCampo--><g class="entity" data-entity="TipoCampo" data-source-line="53" data-uid="ent0017" id="entity_TipoCampo"><rect fill="#F1F1F1" height="113.1875" rx="2.5" ry="2.5" style="stroke:#181818;stroke-width:0.5;" width="111.3379" x="683" y="860"/><ellipse cx="698" cy="876" fill="#EB937F" rx="11" ry="11" style="stroke:#181818;stroke-width:1;"/><path d="M702.1094,882 L694.3906,882 L694.3906,869.6094 L702.1094,869.6094 L702.1094,871.7656 L696.8438,871.7656 L696.8438,874.4375 L701.6094,874.4375 L701.6094,876.5938 L696.8438,876.5938 L696.8438,879.8438 L702.1094,879.8438 L702.1094,882 Z " fill="#000000"/><text fill="#000000" font-family="sans-serif" font-size="14" lengthAdjust="spacing" textLength="79.3379" x="712" y="880.8467">TipoCampo</text><line style="stroke:#181818;stroke-width:0.5;" x1="684" x2="793.3379" y1="892" y2="892"/><text fill="#000000" font-family="sans-serif" font-size="14" lengthAdjust="spacing" textLength="36.4424" x="689" y="908.9951">texto</text><text fill="#000000" font-family="sans-serif" font-size="14" lengthAdjust="spacing" textLength="54.3184" x="689" y="925.292">n&#250;mero</text><text fill="#000000" font-family="sans-serif" font-size="14" lengthAdjust="spacing" textLength="38.6914" x="689" y="941.5889">fecha</text><text fill="#000000" font-family="sans-serif" font-size="14" lengthAdjust="spacing" textLength="13.3506" x="689" y="957.8857">...</text><line style="stroke:#181818;stroke-width:0.5;" x1="684" x2="793.3379" y1="965.1875" y2="965.1875"/></g><!--class Restriccion--><g class="entity" data-entity="Restriccion" data-source-line="59" data-uid="ent0018" id="entity_Restriccion"><rect fill="#F1F1F1" height="48" rx="2.5" ry="2.5" style="stroke:#181818;stroke-width:0.5;" width="109.4922" x="833" y="892.5"/><ellipse cx="848" cy="908.5" fill="#ADD1B2" rx="11" ry="11" style="stroke:#181818;stroke-width:1;"/><path d="M850.9688,914.1406 Q850.3906,914.4375 849.75,914.5781 Q849.1094,914.7344 848.4063,914.7344 Q845.9063,914.7344 844.5781,913.0938 Q843.2656,911.4375 843.2656,908.3125 Q843.2656,905.1875 844.5781,903.5313 Q845.9063,901.875 848.4063,901.875 Q849.1094,901.875 849.75,902.0313 Q850.4063,902.1875 850.9688,902.4844 L850.9688,905.2031 Q850.3438,904.625 849.75,904.3594 Q849.1563,904.0781 848.5313,904.0781 Q847.1875,904.0781 846.5,905.1563 Q845.8125,906.2188 845.8125,908.3125 Q845.8125,910.4063 846.5,911.4844 Q847.1875,912.5469 848.5313,912.5469 Q849.1563,912.5469 849.75,912.2813 Q850.3438,912 850.9688,911.4219 L850.9688,914.1406 Z " fill="#000000"/><text fill="#000000" font-family="sans-serif" font-size="14" lengthAdjust="spacing" textLength="77.4922" x="862" y="913.3467">Restriccion</text><line style="stroke:#181818;stroke-width:0.5;" x1="834" x2="941.4922" y1="924.5" y2="924.5"/><line style="stroke:#181818;stroke-width:0.5;" x1="834" x2="941.4922" y1="932.5" y2="932.5"/></g><!--reverse link Usuario to Rol--><g class="link" data-entity-1="Usuario" data-entity-2="Rol" data-source-line="62" data-uid="lnk19" id="link_Usuario_Rol"><path codeLine="62" d="M957.4056,98.8708 C968.8256,122.9308 978.06,142.4 988.68,164.78" fill="none" id="Usuario-backto-Rol" style="stroke:#181818;stroke-width:1;"/><polygon fill="#181818" points="952.26,88.03,951.2192,95.1656,957.4056,98.8708,958.4464,91.7352,952.26,88.03" style="stroke:#181818;stroke-width:1;"/><text fill="#000000" font-family="sans-serif" font-size="13" lengthAdjust="spacing" textLength="32.9443" x="973.5" y="131.0669">tiene</text><text fill="#000000" font-family="sans-serif" font-size="13" lengthAdjust="spacing" textLength="36.5625" x="916.4005" y="107.7946">many</text><text fill="#000000" font-family="sans-serif" font-size="13" lengthAdjust="spacing" textLength="8.271" x="976.9688" y="154.0109">1</text></g><!--reverse link Rol to Permiso--><g class="link" data-entity-1="Rol" data-entity-2="Permiso" data-source-line="63" data-uid="lnk20" id="link_Rol_Permiso"><path codeLine="63" d="M1012.457,240.9379 C1017.227,263.8379 1021.24,283.04 1026.01,305.91" fill="none" id="Rol-backto-Permiso" style="stroke:#181818;stroke-width:1;"/><polygon fill="#181818" points="1010.01,229.19,1007.3176,235.8796,1012.457,240.9379,1015.1495,234.2482,1010.01,229.19" style="stroke:#181818;stroke-width:1;"/><text fill="#000000" font-family="sans-serif" font-size="13" lengthAdjust="spacing" textLength="32.9443" x="1020.5" y="272.0669">tiene</text><text fill="#000000" font-family="sans-serif" font-size="13" lengthAdjust="spacing" textLength="36.5625" x="971.664" y="249.426">many</text><text fill="#000000" font-family="sans-serif" font-size="13" lengthAdjust="spacing" textLength="36.5625" x="984.9965" y="294.7945">many</text></g><!--link Usuario to Consulta--><g class="link" data-entity-1="Usuario" data-entity-2="Consulta" data-source-line="64" data-uid="lnk21" id="link_Usuario_Consulta"><path codeLine="64" d="M911.06,88.25 C906.18,97.81 901.34,108.12 897.5,118 C891.66,133.03 888.2605,144.473 884.7105,158.933" fill="none" id="Usuario-to-Consulta" style="stroke:#181818;stroke-width:1;"/><polygon fill="#181818" points="883.28,164.76,889.3105,156.9733,884.4721,159.9042,881.5412,155.0659,883.28,164.76" style="stroke:#181818;stroke-width:1;"/><text fill="#000000" font-family="sans-serif" font-size="13" lengthAdjust="spacing" textLength="48.0581" x="898.5" y="131.0669">ejecuta</text></g><!--link Consulta to Tabla--><g class="link" data-entity-1="Consulta" data-entity-2="Tabla" data-source-line="65" data-uid="lnk22" id="link_Consulta_Tabla"><path codeLine="65" d="M829.72,223.01 C778.55,250.37 702.9915,290.7615 656.9515,315.3715" fill="none" id="Consulta-to-Tabla" style="stroke:#181818;stroke-width:1;"/><polygon fill="#181818" points="651.66,318.2,661.4829,317.4849,656.0696,315.8429,657.7116,310.4296,651.66,318.2" style="stroke:#181818;stroke-width:1;"/><text fill="#000000" font-family="sans-serif" font-size="13" lengthAdjust="spacing" textLength="48.0581" x="762.5" y="272.0669">ejecuta</text></g><!--reverse link Tabla to Esquema--><g class="link" data-entity-1="Tabla" data-entity-2="Esquema" data-source-line="66" data-uid="lnk23" id="link_Tabla_Esquema"><path codeLine="66" d="M630.4966,381.4368 C642.9066,419.0868 659.79,470.28 670.89,503.92" fill="none" id="Tabla-backto-Esquema" style="stroke:#181818;stroke-width:1;"/><polygon fill="#181818" points="626.74,370.04,624.8193,376.9906,630.4966,381.4368,632.4172,374.4862,626.74,370.04" style="stroke:#181818;stroke-width:1;"/><text fill="#000000" font-family="sans-serif" font-size="13" lengthAdjust="spacing" textLength="32.9443" x="643.5" y="413.0669">tiene</text><text fill="#000000" font-family="sans-serif" font-size="13" lengthAdjust="spacing" textLength="8.271" x="620.0048" y="390.2451">1</text><text fill="#000000" font-family="sans-serif" font-size="13" lengthAdjust="spacing" textLength="8.271" x="659.9843" y="492.9115">1</text></g><!--reverse link Tabla to Llave--><g class="link" data-entity-1="Tabla" data-entity-2="Llave" data-source-line="67" data-uid="lnk24" id="link_Tabla_Llave"><path codeLine="67" d="M614.843,382.3913 C610.903,485.7813 598.83,802.05 595.38,892.33" fill="none" id="Tabla-backto-Llave" style="stroke:#181818;stroke-width:1;"/><polygon fill="#181818" points="615.3,370.4,611.0744,376.2433,614.843,382.3913,619.0686,376.548,615.3,370.4" style="stroke:#181818;stroke-width:1;"/><text fill="#000000" font-family="sans-serif" font-size="13" lengthAdjust="spacing" textLength="32.9443" x="606.5" y="652.0669">tiene</text><text fill="#000000" font-family="sans-serif" font-size="13" lengthAdjust="spacing" textLength="8.271" x="606.2551" y="390.3061">1</text><text fill="#000000" font-family="sans-serif" font-size="13" lengthAdjust="spacing" textLength="36.5625" x="555.0437" y="881.2985">many</text></g><!--reverse link Tabla to Restriccion--><g class="link" data-entity-1="Tabla" data-entity-2="Restriccion" data-source-line="68" data-uid="lnk25" id="link_Tabla_Restriccion"><path codeLine="68" d="M663.4645,345.5463 C717.3845,354.5963 807.43,378.32 854.5,447 C952.69,590.26 910.33,819.46 893.33,892.41" fill="none" id="Tabla-backto-Restriccion" style="stroke:#181818;stroke-width:1;"/><polygon fill="#181818" points="651.63,343.56,656.8851,348.498,663.4645,345.5463,658.2093,340.6083,651.63,343.56" style="stroke:#181818;stroke-width:1;"/><text fill="#000000" font-family="sans-serif" font-size="13" lengthAdjust="spacing" textLength="32.9443" x="916.5" y="652.0669">tiene</text><text fill="#000000" font-family="sans-serif" font-size="13" lengthAdjust="spacing" textLength="8.271" x="660.1661" y="340.1846">1</text><text fill="#000000" font-family="sans-serif" font-size="13" lengthAdjust="spacing" textLength="36.5625" x="854.2204" y="881.399">many</text></g><!--reverse link Tabla to Vista--><g class="link" data-entity-1="Tabla" data-entity-2="Vista" data-source-line="69" data-uid="lnk26" id="link_Tabla_Vista"><path codeLine="69" d="M569.3508,346.5052 C507.4408,357.3752 389.11,384.28 298.5,447 C187.88,523.58 91.92,656.52 55.79,710.11" fill="none" id="Tabla-backto-Vista" style="stroke:#181818;stroke-width:1;"/><polygon fill="#181818" points="581.17,344.43,574.5687,341.5279,569.3508,346.5052,575.9521,349.4073,581.17,344.43" style="stroke:#181818;stroke-width:1;"/><text fill="#000000" font-family="sans-serif" font-size="13" lengthAdjust="spacing" textLength="32.9443" x="299.5" y="532.5669">tiene</text><text fill="#000000" font-family="sans-serif" font-size="13" lengthAdjust="spacing" textLength="8.271" x="565.036" y="341.2593">1</text><text fill="#000000" font-family="sans-serif" font-size="13" lengthAdjust="spacing" textLength="36.5625" x="19.2188" y="699.4199">many</text></g><!--reverse link Tabla to Indice--><g class="link" data-entity-1="Tabla" data-entity-2="Indice" data-source-line="70" data-uid="lnk27" id="link_Tabla_Indice"><path codeLine="70" d="M661.1302,371.7359 C688.1802,392.3159 716.1,415.65 744.5,447 C760.46,464.61 775.52,487.09 785.83,503.73" fill="none" id="Tabla-backto-Indice" style="stroke:#181818;stroke-width:1;"/><polygon fill="#181818" points="651.58,364.47,653.9331,371.2864,661.1302,371.7359,658.7771,364.9196,651.58,364.47" style="stroke:#181818;stroke-width:1;"/><text fill="#000000" font-family="sans-serif" font-size="13" lengthAdjust="spacing" textLength="32.9443" x="713.5" y="413.0669">tiene</text><text fill="#000000" font-family="sans-serif" font-size="13" lengthAdjust="spacing" textLength="8.271" x="660.1052" y="365.6686">1</text><text fill="#000000" font-family="sans-serif" font-size="13" lengthAdjust="spacing" textLength="36.5625" x="742.1682" y="493.0691">many</text></g><!--reverse link Tabla to Trigger--><g class="link" data-entity-1="Tabla" data-entity-2="Trigger" data-source-line="71" data-uid="lnk28" id="link_Tabla_Trigger"><path codeLine="71" d="M569.4586,340.5177 C527.0786,343.4477 469.14,354.54 434.5,400 C415.83,424.5 415.43,460.01 418.93,487.26" fill="none" id="Tabla-backto-Trigger" style="stroke:#181818;stroke-width:1;"/><polygon fill="#181818" points="581.43,339.69,575.1684,336.1134,569.4586,340.5177,575.7202,344.0943,581.43,339.69" style="stroke:#181818;stroke-width:1;"/><text fill="#000000" font-family="sans-serif" font-size="13" lengthAdjust="spacing" textLength="32.9443" x="435.5" y="413.0669">tiene</text><text fill="#000000" font-family="sans-serif" font-size="13" lengthAdjust="spacing" textLength="8.271" x="565.3496" y="353.6354">1</text><text fill="#000000" font-family="sans-serif" font-size="13" lengthAdjust="spacing" textLength="36.5625" x="378.5447" y="476.3818">many</text></g><!--link Trigger to Tabla--><g class="link" data-entity-1="Trigger" data-entity-2="Tabla" data-source-line="72" data-uid="lnk29" id="link_Trigger_Tabla"><path codeLine="72" d="M447.88,487.22 C463.07,460.31 485.76,425.2 512.5,400 C532.61,381.05 554.2594,368.0953 575.7194,357.4053" fill="none" id="Trigger-to-Tabla" style="stroke:#181818;stroke-width:1;"/><polygon fill="#181818" points="581.09,354.73,571.2506,355.1625,576.6145,356.9594,574.8177,362.3233,581.09,354.73" style="stroke:#181818;stroke-width:1;"/><text fill="#000000" font-family="sans-serif" font-size="13" lengthAdjust="spacing" textLength="36.4165" x="513.5" y="413.0669">act&#250;a</text></g><!--link Trigger to Vista--><g class="link" data-entity-1="Trigger" data-entity-2="Vista" data-source-line="73" data-uid="lnk30" id="link_Trigger_Vista"><path codeLine="73" d="M349.82,557.23 C279.27,584.7 173.97,630.37 91.5,686 C81.17,692.97 75.1973,697.843 66.6073,706.173" fill="none" id="Trigger-to-Vista" style="stroke:#181818;stroke-width:1;"/><polygon fill="#181818" points="62.3,710.35,71.5456,706.9561,65.8894,706.8692,65.9764,701.213,62.3,710.35" style="stroke:#181818;stroke-width:1;"/><text fill="#000000" font-family="sans-serif" font-size="13" lengthAdjust="spacing" textLength="36.4165" x="171.5" y="652.0669">act&#250;a</text></g><!--link Trigger to TipoMomentoActivaci?n--><g class="link" data-entity-1="Trigger" data-entity-2="TipoMomentoActivaci.n" data-source-line="74" data-uid="lnk31" id="link_Trigger_TipoMomentoActivaci.n"><path codeLine="74" d="M427.5,568.92 C427.5,604.95 427.5,657.68 427.5,693.69" fill="none" id="Trigger-TipoMomentoActivaci&#243;n" style="stroke:#181818;stroke-width:1;stroke-dasharray:7,7;"/></g><!--link Trigger to TipoEventoActivaci?n--><g class="link" data-entity-1="Trigger" data-entity-2="TipoEventoActivaci.n" data-source-line="75" data-uid="lnk32" id="link_Trigger_TipoEventoActivaci.n"><path codeLine="75" d="M383.46,568.67 C346.33,602.12 293.08,650.09 253.6,685.67" fill="none" id="Trigger-TipoEventoActivaci&#243;n" style="stroke:#181818;stroke-width:1;stroke-dasharray:7,7;"/></g><!--reverse link Esquema to Campo--><g class="link" data-entity-1="Esquema" data-entity-2="Campo" data-source-line="76" data-uid="lnk33" id="link_Esquema_Campo"><path codeLine="76" d="M678.2602,564.0994 C678.5202,590.0494 680.82,621.08 692.5,656 C699.05,675.59 711.08,695.58 721.19,710.35" fill="none" id="Esquema-backto-Campo" style="stroke:#181818;stroke-width:1;"/><polygon fill="#181818" points="678.14,552.1,674.2003,558.1398,678.2602,564.0994,682.1999,558.0596,678.14,552.1" style="stroke:#181818;stroke-width:1;"/><text fill="#000000" font-family="sans-serif" font-size="13" lengthAdjust="spacing" textLength="56.2847" x="693.5" y="652.0669">contiene</text><text fill="#000000" font-family="sans-serif" font-size="13" lengthAdjust="spacing" textLength="8.271" x="669.1432" y="571.8856">1</text><text fill="#000000" font-family="sans-serif" font-size="13" lengthAdjust="spacing" textLength="36.5625" x="676.157" y="699.3236">many</text></g><!--link Campo to TipoCampo--><g class="link" data-entity-1="Campo" data-entity-2="TipoCampo" data-source-line="77" data-uid="lnk34" id="link_Campo_TipoCampo"><path codeLine="77" d="M738.5,758.66 C738.5,784.11 738.5,825.89 738.5,859.93" fill="none" id="Campo-TipoCampo" style="stroke:#181818;stroke-width:1;stroke-dasharray:7,7;"/></g><!--reverse link Campo to Restriccion--><g class="link" data-entity-1="Campo" data-entity-2="Restriccion" data-source-line="78" data-uid="lnk35" id="link_Campo_Restriccion"><path codeLine="78" d="M765.3209,767.9047 C793.9309,802.4747 839.83,857.91 868.4,892.43" fill="none" id="Campo-backto-Restriccion" style="stroke:#181818;stroke-width:1;"/><polygon fill="none" points="757.67,758.66,758.4139,765.8326,765.3209,767.9047,764.577,760.7321,757.67,758.66" style="stroke:#181818;stroke-width:1;"/><text fill="#000000" font-family="sans-serif" font-size="13" lengthAdjust="spacing" textLength="32.9443" x="813.5" y="826.0669">tiene</text><text fill="#000000" font-family="sans-serif" font-size="13" lengthAdjust="spacing" textLength="8.271" x="753.3466" y="778.4602">1</text><text fill="#000000" font-family="sans-serif" font-size="13" lengthAdjust="spacing" textLength="36.5625" x="822.9021" y="881.4241">many</text></g><!--reverse link Indice to Campo--><g class="link" data-entity-1="Indice" data-entity-2="Campo" data-source-line="79" data-uid="lnk36" id="link_Indice_Campo"><path codeLine="79" d="M789.1917,563.5599 C777.4817,602.8399 757.21,670.78 745.45,710.21" fill="none" id="Indice-backto-Campo" style="stroke:#181818;stroke-width:1;"/><polygon fill="#181818" points="792.62,552.06,787.0726,556.6672,789.1917,563.5599,794.7391,558.9527,792.62,552.06" style="stroke:#181818;stroke-width:1;"/><text fill="#000000" font-family="sans-serif" font-size="13" lengthAdjust="spacing" textLength="32.9443" x="765.5" y="652.0669">tiene</text><text fill="#000000" font-family="sans-serif" font-size="13" lengthAdjust="spacing" textLength="36.5625" x="750.3052" y="572.2312">many</text><text fill="#000000" font-family="sans-serif" font-size="13" lengthAdjust="spacing" textLength="8.271" x="738.1479" y="699.5443">1</text></g><!--link Llave to TipoLlave--><g class="link" data-entity-1="Llave" data-entity-2="TipoLlave" data-source-line="80" data-uid="lnk37" id="link_Llave_TipoLlave"><path codeLine="80" d="M594.5,940.52 C594.5,965.01 594.5,1004.22 594.5,1033.73" fill="none" id="Llave-TipoLlave" style="stroke:#181818;stroke-width:1;stroke-dasharray:7,7;"/></g><!--link Campo to Llave--><g class="link" data-entity-1="Campo" data-entity-2="Llave" data-source-line="81" data-uid="lnk38" id="link_Campo_Llave"><path codeLine="81" d="M714.45,758.66 C699.44,773.61 680.07,793.77 664.5,813 C643.48,838.96 622.25,871.06 608.77,892.35" fill="none" id="Campo-Llave" style="stroke:#181818;stroke-width:1;"/><text fill="#000000" font-family="sans-serif" font-size="13" lengthAdjust="spacing" textLength="64.9873" x="665.5" y="826.0669">puede ser</text></g><!--link Permiso to TipoCapacidadPermiso--><g class="link" data-entity-1="Permiso" data-entity-2="TipoCapacidadPermiso" data-source-line="82" data-uid="lnk39" id="link_Permiso_TipoCapacidadPermiso"><path codeLine="82" d="M1033.49,370.04 C1034.16,391.01 1035.08,419.7 1035.94,446.82" fill="none" id="Permiso-TipoCapacidadPermiso" style="stroke:#181818;stroke-width:1;stroke-dasharray:7,7;"/></g><!--SRC=[VLHBRjim4DtFAGWl2rX0jrqKS1m62E0sXg9apr2Jb8L8gYHbf31wc1wXo2vRNQmKHT6qt6ebpfitFxwXUCEi9HLxQjWHb9PF1k4Ny80-2kiyEfbRhMpN30YgJd71Qfry3xPZHkYKWclb3BFO_s69K-hceiGUZHJMnt7MCYvgLdkNJoz99LgzdS14kwSxkgtWzkizBIjus5zlAWhN7lIVRKc3LTxjOREhQ9cgx1fsm6EUEIAj4TBtpU1Pc_wtmbEprFxeK6RJLqQylA3nmnzGEKqOT-BWk-lV54WjBx2i60qHcvFp-Ey1if0lOyQpc2jwSrTIsDpaezsgMd3CH6AorSVpImo8mrUdGVNl4es6P-JV61H5SL87hJE2Sw7L40vHKRAIJFrSaG_hDLbzN0qYaa_42LG8mpbtZyUeLM9DYTRhpsc5l1E_8-ySWmGD_h27cNEqXxfJ_QXBoZvZZ2q4TPSfsRZBnF08bYcZ1ikSk3udKhJpgVtwzE_ip3LLdxcAuZzRCcTSh1vC5pZhBso9BpGytD3W2CGqmOZG4AYNBp9Uo6nrfX8ZPzGevWz6pE_PatvjXpKIYmQcfKhzdFyO_W80]--></g></svg>