<svg xmlns="http://www.w3.org/2000/svg" xmlns:xlink="http://www.w3.org/1999/xlink" contentStyleType="text/css" data-diagram-type="CLASS" height="456px" preserveAspectRatio="none" style="width:1684px;height:456px;background:#FFFFFF;" version="1.1" viewBox="0 0 1684 456" width="1684px" zoomAndPan="magnify"><defs/><g><g class="entity" data-entity="Tabla1" data-source-line="1" data-uid="ent0002" id="entity_Tabla1"><rect fill="#F1F1F1" height="44.5938" rx="2.5" ry="2.5" style="stroke:#181818;stroke-width:0.5;" width="135.2109" x="209" y="15"/><text fill="#000000" font-family="sans-serif" font-size="14" lengthAdjust="spacing" textLength="90.5967" x="231.3071" y="29.9951">Tabla1:Tabla</text><line style="stroke:#181818;stroke-width:0.5;" x1="210" x2="343.2109" y1="35.2969" y2="35.2969"/><text fill="#000000" font-family="sans-serif" font-size="14" lengthAdjust="spacing" textLength="123.2109" x="215" y="52.292">nombre: alumnos</text></g><g class="entity" data-entity="Consulta1" data-source-line="5" data-uid="ent0003" id="entity_Consulta1"><rect fill="#F1F1F1" height="44.5938" rx="2.5" ry="2.5" style="stroke:#181818;stroke-width:0.5;" width="272.3809" x="431.5" y="15"/><text fill="#000000" font-family="sans-serif" font-size="14" lengthAdjust="spacing" textLength="136.3018" x="499.5396" y="29.9951">Consulta1:Consulta</text><line style="stroke:#181818;stroke-width:0.5;" x1="432.5" x2="702.8809" y1="35.2969" y2="35.2969"/><text fill="#000000" font-family="sans-serif" font-size="14" lengthAdjust="spacing" textLength="260.3809" x="437.5" y="52.292">enunciado: SELECT * FROM alumnos;</text></g><g class="entity" data-entity="Usuario1" data-source-line="9" data-uid="ent0004" id="entity_Usuario1"><rect fill="#F1F1F1" height="60.8906" rx="2.5" ry="2.5" style="stroke:#181818;stroke-width:0.5;" width="185.0654" x="789" y="7"/><text fill="#000000" font-family="sans-serif" font-size="14" lengthAdjust="spacing" textLength="120.0322" x="821.5166" y="21.9951">Usuario1:Usuario</text><line style="stroke:#181818;stroke-width:0.5;" x1="790" x2="973.0654" y1="27.2969" y2="27.2969"/><text fill="#000000" font-family="sans-serif" font-size="14" lengthAdjust="spacing" textLength="155.9346" x="795" y="44.292">nombre: martinlopez7</text><text fill="#000000" font-family="sans-serif" font-size="14" lengthAdjust="spacing" textLength="173.0654" x="795" y="60.5889">contrase&#241;a: hsbn45drXB</text></g><g class="entity" data-entity="Rol1" data-source-line="14" data-uid="ent0005" id="entity_Rol1"><rect fill="#F1F1F1" height="44.5938" rx="2.5" ry="2.5" style="stroke:#181818;stroke-width:0.5;" width="119.3652" x="912" y="145"/><text fill="#000000" font-family="sans-serif" font-size="14" lengthAdjust="spacing" textLength="57.9893" x="942.688" y="159.9951">Rol1:Rol</text><line style="stroke:#181818;stroke-width:0.5;" x1="913" x2="1030.3652" y1="165.2969" y2="165.2969"/><text fill="#000000" font-family="sans-serif" font-size="14" lengthAdjust="spacing" textLength="107.3652" x="918" y="182.292">nombre: admin</text></g><g class="entity" data-entity="Permiso1" data-source-line="18" data-uid="ent0006" id="entity_Permiso1"><rect fill="#F1F1F1" height="44.5938" rx="2.5" ry="2.5" style="stroke:#181818;stroke-width:0.5;" width="145.5537" x="987.5" y="275"/><text fill="#000000" font-family="sans-serif" font-size="14" lengthAdjust="spacing" textLength="126.0205" x="997.2666" y="289.9951">Permiso1:Permiso</text><line style="stroke:#181818;stroke-width:0.5;" x1="988.5" x2="1132.0537" y1="295.2969" y2="295.2969"/><text fill="#000000" font-family="sans-serif" font-size="14" lengthAdjust="spacing" textLength="133.5537" x="993.5" y="312.292">capacidad: SELECT</text></g><g class="entity" data-entity="Permiso2" data-source-line="22" data-uid="ent0007" id="entity_Permiso2"><rect fill="#F1F1F1" height="44.5938" rx="2.5" ry="2.5" style="stroke:#181818;stroke-width:0.5;" width="143.4619" x="1169" y="275"/><text fill="#000000" font-family="sans-serif" font-size="14" lengthAdjust="spacing" textLength="126.0205" x="1177.7207" y="289.9951">Permiso2:Permiso</text><line style="stroke:#181818;stroke-width:0.5;" x1="1170" x2="1311.4619" y1="295.2969" y2="295.2969"/><text fill="#000000" font-family="sans-serif" font-size="14" lengthAdjust="spacing" textLength="131.4619" x="1175" y="312.292">capacidad: INSERT</text></g><g class="entity" data-entity="Permiso3" data-source-line="26" data-uid="ent0008" id="entity_Permiso3"><rect fill="#F1F1F1" height="44.5938" rx="2.5" ry="2.5" style="stroke:#181818;stroke-width:0.5;" width="149.293" x="1347" y="275"/><text fill="#000000" font-family="sans-serif" font-size="14" lengthAdjust="spacing" textLength="126.0205" x="1358.6362" y="289.9951">Permiso3:Permiso</text><line style="stroke:#181818;stroke-width:0.5;" x1="1348" x2="1495.293" y1="295.2969" y2="295.2969"/><text fill="#000000" font-family="sans-serif" font-size="14" lengthAdjust="spacing" textLength="137.293" x="1353" y="312.292">capacidad: UPDATE</text></g><g class="entity" data-entity="Permiso4" data-source-line="30" data-uid="ent0009" id="entity_Permiso4"><rect fill="#F1F1F1" height="44.5938" rx="2.5" ry="2.5" style="stroke:#181818;stroke-width:0.5;" width="146.5176" x="1531" y="275"/><text fill="#000000" font-family="sans-serif" font-size="14" lengthAdjust="spacing" textLength="126.0205" x="1541.2485" y="289.9951">Permiso4:Permiso</text><line style="stroke:#181818;stroke-width:0.5;" x1="1532" x2="1676.5176" y1="295.2969" y2="295.2969"/><text fill="#000000" font-family="sans-serif" font-size="14" lengthAdjust="spacing" textLength="134.5176" x="1537" y="312.292">capacidad: DELETE</text></g><g class="entity" data-entity="Permiso5" data-source-line="34" data-uid="ent0010" id="entity_Permiso5"><rect fill="#F1F1F1" height="44.5938" rx="2.5" ry="2.5" style="stroke:#181818;stroke-width:0.5;" width="148.1719" x="454.5" y="275"/><text fill="#000000" font-family="sans-serif" font-size="14" lengthAdjust="spacing" textLength="126.0205" x="465.5757" y="289.9951">Permiso5:Permiso</text><line style="stroke:#181818;stroke-width:0.5;" x1="455.5" x2="601.6719" y1="295.2969" y2="295.2969"/><text fill="#000000" font-family="sans-serif" font-size="14" lengthAdjust="spacing" textLength="136.1719" x="460.5" y="312.292">capacidad: CREATE</text></g><g class="entity" data-entity="Permiso6" data-source-line="38" data-uid="ent0011" id="entity_Permiso6"><rect fill="#F1F1F1" height="44.5938" rx="2.5" ry="2.5" style="stroke:#181818;stroke-width:0.5;" width="140.0205" x="637.5" y="275"/><text fill="#000000" font-family="sans-serif" font-size="14" lengthAdjust="spacing" textLength="126.0205" x="644.5" y="289.9951">Permiso6:Permiso</text><line style="stroke:#181818;stroke-width:0.5;" x1="638.5" x2="776.5205" y1="295.2969" y2="295.2969"/><text fill="#000000" font-family="sans-serif" font-size="14" lengthAdjust="spacing" textLength="120.8184" x="643.5" y="312.292">capacidad: DROP</text></g><g class="entity" data-entity="Permiso7" data-source-line="42" data-uid="ent0012" id="entity_Permiso7"><rect fill="#F1F1F1" height="44.5938" rx="2.5" ry="2.5" style="stroke:#181818;stroke-width:0.5;" width="140.0205" x="812.5" y="275"/><text fill="#000000" font-family="sans-serif" font-size="14" lengthAdjust="spacing" textLength="126.0205" x="819.5" y="289.9951">Permiso7:Permiso</text><line style="stroke:#181818;stroke-width:0.5;" x1="813.5" x2="951.5205" y1="295.2969" y2="295.2969"/><text fill="#000000" font-family="sans-serif" font-size="14" lengthAdjust="spacing" textLength="125.3506" x="818.5" y="312.292">capacidad: ALTER</text></g><g class="entity" data-entity="Llave1" data-source-line="46" data-uid="ent0013" id="entity_Llave1"><rect fill="#F1F1F1" height="44.5938" rx="2.5" ry="2.5" style="stroke:#181818;stroke-width:0.5;" width="106.9717" x="7" y="405"/><text fill="#000000" font-family="sans-serif" font-size="14" lengthAdjust="spacing" textLength="87.958" x="16.5068" y="419.9951">Llave1:Llave</text><line style="stroke:#181818;stroke-width:0.5;" x1="8" x2="112.9717" y1="425.2969" y2="425.2969"/><text fill="#000000" font-family="sans-serif" font-size="14" lengthAdjust="spacing" textLength="94.9717" x="13" y="442.292">tipo: primaria</text></g><g class="entity" data-entity="Esquema1" data-source-line="50" data-uid="ent0014" id="entity_Esquema1"><rect fill="#F1F1F1" height="36.2969" rx="2.5" ry="2.5" style="stroke:#181818;stroke-width:0.5;" width="157.083" x="191" y="149.5"/><text fill="#000000" font-family="sans-serif" font-size="14" lengthAdjust="spacing" textLength="143.083" x="198" y="164.4951">Esquema1:Esquema</text><line style="stroke:#181818;stroke-width:0.5;" x1="192" x2="347.083" y1="169.7969" y2="169.7969"/></g><g class="entity" data-entity="Campo1" data-source-line="53" data-uid="ent0015" id="entity_Campo1"><rect fill="#F1F1F1" height="60.8906" rx="2.5" ry="2.5" style="stroke:#181818;stroke-width:0.5;" width="126.5127" x="56" y="267"/><text fill="#000000" font-family="sans-serif" font-size="14" lengthAdjust="spacing" textLength="112.5127" x="63" y="281.9951">Campo1:Campo</text><line style="stroke:#181818;stroke-width:0.5;" x1="57" x2="181.5127" y1="287.2969" y2="287.2969"/><text fill="#000000" font-family="sans-serif" font-size="14" lengthAdjust="spacing" textLength="78.4082" x="62" y="304.292">nombre: ID</text><text fill="#000000" font-family="sans-serif" font-size="14" lengthAdjust="spacing" textLength="90.3164" x="62" y="320.5889">tipo: n&#250;mero</text></g><g class="entity" data-entity="Campo2" data-source-line="58" data-uid="ent0016" id="entity_Campo2"><rect fill="#F1F1F1" height="60.8906" rx="2.5" ry="2.5" style="stroke:#181818;stroke-width:0.5;" width="129.8311" x="218.5" y="267"/><text fill="#000000" font-family="sans-serif" font-size="14" lengthAdjust="spacing" textLength="112.5127" x="227.1592" y="281.9951">Campo2:Campo</text><line style="stroke:#181818;stroke-width:0.5;" x1="219.5" x2="347.3311" y1="287.2969" y2="287.2969"/><text fill="#000000" font-family="sans-serif" font-size="14" lengthAdjust="spacing" textLength="117.8311" x="224.5" y="304.292">nombre: nombre</text><text fill="#000000" font-family="sans-serif" font-size="14" lengthAdjust="spacing" textLength="72.4404" x="224.5" y="320.5889">tipo: texto</text></g><g class="entity" data-entity="Restriccion1" data-source-line="63" data-uid="ent0017" id="entity_Restriccion1"><rect fill="#F1F1F1" height="44.5938" rx="2.5" ry="2.5" style="stroke:#181818;stroke-width:0.5;" width="182.6084" x="230" y="405"/><text fill="#000000" font-family="sans-serif" font-size="14" lengthAdjust="spacing" textLength="168.6084" x="237" y="419.9951">Restriccion1:Restriccion</text><line style="stroke:#181818;stroke-width:0.5;" x1="231" x2="411.6084" y1="425.2969" y2="425.2969"/><text fill="#000000" font-family="sans-serif" font-size="14" lengthAdjust="spacing" textLength="135.0234" x="236" y="442.292">tipo: CHECK (ID&gt;0)</text></g><!--reverse link Tabla1 to Esquema1--><g class="link" data-entity-1="Tabla1" data-entity-2="Esquema1" data-source-line="67" data-uid="lnk18" id="link_Tabla1_Esquema1"><path codeLine="67" d="M274.6563,72.1922 C273.2863,97.3022 271.71,126.14 270.45,149.2" fill="none" id="Tabla1-backto-Esquema1" style="stroke:#181818;stroke-width:1;"/><polygon fill="#181818" points="275.31,60.21,270.9891,65.9832,274.6563,72.1922,278.9772,66.419,275.31,60.21" style="stroke:#181818;stroke-width:1;"/><text fill="#000000" font-family="sans-serif" font-size="13" lengthAdjust="spacing" textLength="32.9443" x="274.5" y="111.0669">tiene</text></g><!--reverse link Tabla1 to Llave1--><g class="link" data-entity-1="Tabla1" data-entity-2="Llave1" data-source-line="68" data-uid="lnk19" id="link_Tabla1_Llave1"><path codeLine="68" d="M229.3369,66.5006 C173.3969,101.6206 79.6,170.57 38.5,267 C18.77,313.29 37.66,373.34 50.62,404.91" fill="none" id="Tabla1-backto-Llave1" style="stroke:#181818;stroke-width:1;"/><polygon fill="#181818" points="239.5,60.12,232.2916,59.9226,229.3369,66.5006,236.5453,66.698,239.5,60.12" style="stroke:#181818;stroke-width:1;"/><text fill="#000000" font-family="sans-serif" font-size="13" lengthAdjust="spacing" textLength="32.9443" x="64.5" y="233.0669">tiene</text></g><!--reverse link Tabla1 to Restriccion1--><g class="link" data-entity-1="Tabla1" data-entity-2="Restriccion1" data-source-line="69" data-uid="lnk20" id="link_Tabla1_Restriccion1"><path codeLine="69" d="M311.7362,68.3764 C333.2262,87.9764 353.09,110.8 365.5,145 C393.24,221.46 382.46,248.45 365.5,328 C359.56,355.84 345.17,385.35 334.45,404.72" fill="none" id="Tabla1-backto-Restriccion1" style="stroke:#181818;stroke-width:1;"/><polygon fill="#181818" points="302.87,60.29,304.6076,67.2886,311.7362,68.3764,309.9986,61.3778,302.87,60.29" style="stroke:#181818;stroke-width:1;"/><text fill="#000000" font-family="sans-serif" font-size="13" lengthAdjust="spacing" textLength="32.9443" x="383.5" y="233.0669">tiene</text></g><!--reverse link Tabla1 to Consulta1--><g class="link" data-entity-1="Tabla1" data-entity-2="Consulta1" data-source-line="70" data-uid="lnk22" id="link_Tabla1_Consulta1"><path codeLine="70" d="M350.36,37.5 C376.39,37.5 401.11,37.5 431.3,37.5" fill="none" id="Tabla1-backto-Consulta1" style="stroke:#181818;stroke-width:1;"/><polygon fill="#181818" points="344.36,37.5,353.36,41.5,349.36,37.5,353.36,33.5,344.36,37.5" style="stroke:#181818;stroke-width:1;"/><text fill="#000000" font-family="sans-serif" font-size="13" lengthAdjust="spacing" textLength="48.0581" x="363.75" y="30.5669">ejecuta</text></g><!--reverse link Consulta1 to Usuario1--><g class="link" data-entity-1="Consulta1" data-entity-2="Usuario1" data-source-line="71" data-uid="lnk24" id="link_Consulta1_Usuario1"><path codeLine="71" d="M709.86,37.5 C738.49,37.5 762.05,37.5 788.65,37.5" fill="none" id="Consulta1-backto-Usuario1" style="stroke:#181818;stroke-width:1;"/><polygon fill="#181818" points="703.86,37.5,712.86,41.5,708.86,37.5,712.86,33.5,703.86,37.5" style="stroke:#181818;stroke-width:1;"/><text fill="#000000" font-family="sans-serif" font-size="13" lengthAdjust="spacing" textLength="48.0581" x="722.25" y="30.5669">ejecuta</text></g><!--reverse link Usuario1 to Rol1--><g class="link" data-entity-1="Usuario1" data-entity-2="Rol1" data-source-line="72" data-uid="lnk25" id="link_Usuario1_Rol1"><path codeLine="72" d="M909.2751,78.0043 C925.7951,101.4843 941.55,123.91 956.36,144.97" fill="none" id="Usuario1-backto-Rol1" style="stroke:#181818;stroke-width:1;"/><polygon fill="#181818" points="902.37,68.19,902.5511,75.3988,909.2751,78.0043,909.094,70.7954,902.37,68.19" style="stroke:#181818;stroke-width:1;"/><text fill="#000000" font-family="sans-serif" font-size="13" lengthAdjust="spacing" textLength="32.9443" x="935.5" y="111.0669">tiene</text></g><!--reverse link Rol1 to Permiso1--><g class="link" data-entity-1="Rol1" data-entity-2="Permiso1" data-source-line="73" data-uid="lnk26" id="link_Rol1_Permiso1"><path codeLine="73" d="M993.4484,200.0639 C1009.8084,223.6039 1028.93,251.1 1045.33,274.68" fill="none" id="Rol1-backto-Permiso1" style="stroke:#181818;stroke-width:1;"/><polygon fill="#181818" points="986.6,190.21,986.7395,197.4198,993.4484,200.0639,993.3088,192.8542,986.6,190.21" style="stroke:#181818;stroke-width:1;"/><text fill="#000000" font-family="sans-serif" font-size="13" lengthAdjust="spacing" textLength="32.9443" x="1019.5" y="233.0669">tiene</text></g><!--reverse link Rol1 to Permiso2--><g class="link" data-entity-1="Rol1" data-entity-2="Permiso2" data-source-line="74" data-uid="lnk27" id="link_Rol1_Permiso2"><path codeLine="74" d="M1027.666,195.2256 C1077.226,218.8056 1145.35,251.22 1194.99,274.84" fill="none" id="Rol1-backto-Permiso2" style="stroke:#181818;stroke-width:1;"/><polygon fill="#181818" points="1016.83,190.07,1020.5295,196.2598,1027.666,195.2256,1023.9666,189.0358,1016.83,190.07" style="stroke:#181818;stroke-width:1;"/><text fill="#000000" font-family="sans-serif" font-size="13" lengthAdjust="spacing" textLength="32.9443" x="1114.5" y="233.0669">tiene</text></g><!--reverse link Rol1 to Permiso3--><g class="link" data-entity-1="Rol1" data-entity-2="Permiso3" data-source-line="75" data-uid="lnk28" id="link_Rol1_Permiso3"><path codeLine="75" d="M1042.8621,187.1846 C1114.1121,206.0046 1225.09,235.91 1329.5,267 C1337.86,269.49 1346.62,272.18 1355.27,274.9" fill="none" id="Rol1-backto-Permiso3" style="stroke:#181818;stroke-width:1;"/><polygon fill="#181818" points="1031.26,184.12,1036.0395,189.5197,1042.8621,187.1846,1038.0826,181.7849,1031.26,184.12" style="stroke:#181818;stroke-width:1;"/><text fill="#000000" font-family="sans-serif" font-size="13" lengthAdjust="spacing" textLength="32.9443" x="1222.5" y="233.0669">tiene</text></g><!--reverse link Rol1 to Permiso4--><g class="link" data-entity-1="Rol1" data-entity-2="Permiso4" data-source-line="76" data-uid="lnk29" id="link_Rol1_Permiso4"><path codeLine="76" d="M1042.9123,178.2168 C1143.3223,192.3868 1340.43,222.87 1513.5,267 C1522.67,269.34 1532.27,272.1 1541.65,274.98" fill="none" id="Rol1-backto-Permiso4" style="stroke:#181818;stroke-width:1;"/><polygon fill="#181818" points="1031.03,176.54,1036.4122,181.3392,1042.9123,178.2168,1037.5301,173.4177,1031.03,176.54" style="stroke:#181818;stroke-width:1;"/><text fill="#000000" font-family="sans-serif" font-size="13" lengthAdjust="spacing" textLength="32.9443" x="1381.5" y="233.0669">tiene</text></g><!--reverse link Rol1 to Permiso5--><g class="link" data-entity-1="Rol1" data-entity-2="Permiso5" data-source-line="77" data-uid="lnk30" id="link_Rol1_Permiso5"><path codeLine="77" d="M900.4177,187.6185 C830.4477,206.5785 722.48,236.35 620.5,267 C612.15,269.51 603.39,272.22 594.74,274.94" fill="none" id="Rol1-backto-Permiso5" style="stroke:#181818;stroke-width:1;"/><polygon fill="#181818" points="912,184.48,905.1627,182.1885,900.4177,187.6185,907.255,189.91,912,184.48" style="stroke:#181818;stroke-width:1;"/><text fill="#000000" font-family="sans-serif" font-size="13" lengthAdjust="spacing" textLength="32.9443" x="774.5" y="233.0669">tiene</text></g><!--reverse link Rol1 to Permiso6--><g class="link" data-entity-1="Rol1" data-entity-2="Permiso6" data-source-line="78" data-uid="lnk31" id="link_Rol1_Permiso6"><path codeLine="78" d="M916.212,195.3047 C867.572,218.8847 800.88,251.22 752.17,274.84" fill="none" id="Rol1-backto-Permiso6" style="stroke:#181818;stroke-width:1;"/><polygon fill="#181818" points="927.01,190.07,919.8661,189.088,916.212,195.3047,923.3559,196.2867,927.01,190.07" style="stroke:#181818;stroke-width:1;"/><text fill="#000000" font-family="sans-serif" font-size="13" lengthAdjust="spacing" textLength="32.9443" x="863.5" y="233.0669">tiene</text></g><!--reverse link Rol1 to Permiso7--><g class="link" data-entity-1="Rol1" data-entity-2="Permiso7" data-source-line="79" data-uid="lnk32" id="link_Rol1_Permiso7"><path codeLine="79" d="M949.5516,200.0639 C933.1916,223.6039 914.07,251.1 897.67,274.68" fill="none" id="Rol1-backto-Permiso7" style="stroke:#181818;stroke-width:1;"/><polygon fill="#181818" points="956.4,190.21,949.6912,192.8542,949.5516,200.0639,956.2605,197.4198,956.4,190.21" style="stroke:#181818;stroke-width:1;"/><text fill="#000000" font-family="sans-serif" font-size="13" lengthAdjust="spacing" textLength="32.9443" x="935.5" y="233.0669">tiene</text></g><!--reverse link Esquema1 to Campo1--><g class="link" data-entity-1="Esquema1" data-entity-2="Campo1" data-source-line="80" data-uid="lnk33" id="link_Esquema1_Campo1"><path codeLine="80" d="M240.1428,193.5506 C215.8328,214.3006 183.77,241.66 154.31,266.79" fill="none" id="Esquema1-backto-Campo1" style="stroke:#181818;stroke-width:1;"/><polygon fill="#181818" points="249.27,185.76,242.1095,186.6129,240.1428,193.5506,247.3033,192.6977,249.27,185.76" style="stroke:#181818;stroke-width:1;"/><text fill="#000000" font-family="sans-serif" font-size="13" lengthAdjust="spacing" textLength="56.2847" x="209.5" y="233.0669">contiene</text></g><!--reverse link Esquema1 to Campo2--><g class="link" data-entity-1="Esquema1" data-entity-2="Campo2" data-source-line="81" data-uid="lnk34" id="link_Esquema1_Campo2"><path codeLine="81" d="M272.695,197.6888 C274.965,218.4388 277.5,241.66 280.25,266.79" fill="none" id="Esquema1-backto-Campo2" style="stroke:#181818;stroke-width:1;"/><polygon fill="#181818" points="271.39,185.76,268.0662,192.1594,272.695,197.6888,276.0188,191.2894,271.39,185.76" style="stroke:#181818;stroke-width:1;"/><text fill="#000000" font-family="sans-serif" font-size="13" lengthAdjust="spacing" textLength="56.2847" x="278.5" y="233.0669">contiene</text></g><!--reverse link Campo1 to Restriccion1--><g class="link" data-entity-1="Campo1" data-entity-2="Restriccion1" data-source-line="82" data-uid="lnk35" id="link_Campo1_Restriccion1"><path codeLine="82" d="M176.2372,334.4516 C213.2872,357.9216 254.12,383.81 287.43,404.91" fill="none" id="Campo1-backto-Restriccion1" style="stroke:#181818;stroke-width:1;"/><polygon fill="none" points="166.1,328.03,169.0281,334.6199,176.2372,334.4516,173.3091,327.8617,166.1,328.03" style="stroke:#181818;stroke-width:1;"/><text fill="#000000" font-family="sans-serif" font-size="13" lengthAdjust="spacing" textLength="32.9443" x="240.5" y="371.0669">tiene</text></g><!--link Campo1 to Llave1--><g class="link" data-entity-1="Campo1" data-entity-2="Llave1" data-source-line="83" data-uid="lnk36" id="link_Campo1_Llave1"><path codeLine="83" d="M103.34,328.2 C98.39,337.63 93.06,348.17 88.5,358 C81.31,373.5 74.04,391.39 68.7,404.99" fill="none" id="Campo1-Llave1" style="stroke:#181818;stroke-width:1;"/><text fill="#000000" font-family="sans-serif" font-size="13" lengthAdjust="spacing" textLength="14.771" x="89.5" y="371.0669">es</text></g><!--SRC=[TPJDZjiW4CVlF0NAQHifqiRvahnIfApZgb7J9l8cqbw9ZRHKDhY0gwfM7whNNlV55eEnyIw-U63-_6O0py1kFt0guUI2RZcQXzfC81BGE6f0MN7ZE8GehmhA1FWB06kPY55HvL9XTgJ9pbq3J2kQ4fIn43x5npYwm2dyd9o-sMWFRhYhg10dR1ws0ntCElkD58XBGdDMuZyRa38gEHBuzHyAuOkuqUKguy-FRjY4vVDGVNIuPkASAIi8TTUUCI-8K5je1vgnpXgag4GfoL1cZ-DX0nyR3DZ3zwSuyR4B7xiOiDVpVdU9FUpInou7x5xjsSkkVEngm4P9xC-xzh7hOTxaTFQG6n-v6P2xuoLENFIOerzu7cgZCUEeWIIbAhAI4rKU1Bb8B7vMk515sWuqPftre9vHKQf_husfPEtew-MmR_FGr_y5vkm37Bo7WnusjWqWyMyvm1Ci92TfIXXLrTfFJDKweZrgz2MEliAxmtvx_wa9PFeLJcUpxd1GvI6OObSpz-LJt2ITtlKodEMpRVieA1MhNLSI0TkUHkvNUrRe7AhzkjXwqdXjWuqgmQYo65MMeyfgL5cFAfjEwIwtKKs1AArvXqRam9LRW8tUjz7T7uN56m00]--></g></svg>